<?xml version="1.0" encoding="utf-8" ?>
<svg xmlns="http://www.w3.org/2000/svg" xmlns:xlink="http://www.w3.org/1999/xlink" width="475" height="478">
	<path fill="#01A9B4" transform="matrix(0.945312 0 0 0.945312 -249.081 -230.859)" d="M512.975 530.75L513.588 530.611C515.597 530.331 517.169 530.533 518.75 531.892C523.356 535.855 527.236 542.474 531.124 547.286C542.84 561.787 557.227 578.169 563.059 596.18C564.918 601.921 565.668 608.077 565.914 614.089C566.459 627.368 561.376 640.15 552.399 649.836C542.136 660.91 529.289 665.664 514.31 666.17C509.406 666.131 504.211 665.704 499.468 664.406C486.043 660.734 474.319 651.476 467.624 639.25C460.648 626.51 460.168 610.798 464.532 597.124C466.355 591.411 469.189 585.93 472.35 580.848C480.678 567.46 491.11 555.045 501.236 542.991C504.586 539.003 508.352 533.125 512.975 530.75ZM532.076 562.25C530.751 563.259 530.483 563.367 529.902 565C530.445 567.604 532.114 569.649 533.564 571.83C535.611 574.906 537.668 577.949 539.485 581.17C543.22 587.791 545.516 594.759 547.034 602.203C548.129 607.569 548.085 614.365 547.119 619.748C546.782 621.627 545.8 624.147 545.877 626C545.947 627.693 546.59 628.28 547.75 629.398C549.439 629.767 549.696 629.55 551.25 628.938C555.829 622.236 555.872 609.607 554.492 601.984C552.295 589.848 546.569 579.123 539.549 569.122C538.078 567.028 536.394 564.16 534.267 562.71C533.357 562.089 533.123 562.25 532.076 562.25Z"/>
	<defs>
		<linearGradient id="gradient_0" gradientUnits="userSpaceOnUse" x1="320.64609" y1="647.79089" x2="701.09448" y2="334.22131">
			<stop offset="0" stop-color="#01A9B4"/>
			<stop offset="1" stop-color="#086972"/>
		</linearGradient>
	</defs>
	<path fill="url(#gradient_0)" transform="matrix(0.945312 0 0 0.945312 -249.081 -230.859)" d="M732.715 380.44L732.876 380.551C734.919 383.4 736.498 387.622 738.025 390.862C748.611 413.325 755.657 437.32 758.949 461.922C767.549 526.195 750.376 593.572 710.971 645.252C679.643 686.339 637.102 718.985 587.471 734.511C578.612 737.282 569.279 740.033 560.064 741.283L559.887 721.804C561.391 720.843 563.691 720.592 565.417 720.165L576.005 717.294C583.282 715.112 590.557 712.682 597.578 709.768C652.5 686.976 695.763 641.841 718.342 587.028C727.898 563.83 734.511 536.784 735.94 511.719C737.874 477.779 731.032 442.55 717.976 411.235C701.342 371.34 672.212 335.081 636.385 310.808C626.689 304.239 616.573 298.148 605.727 293.681L605.65 295.113C605.582 296.54 605.132 311.699 605.479 312.27C605.822 312.835 608.711 314.283 609.355 314.683C613.722 317.395 618.204 319.902 622.422 322.846C636.479 332.656 649.635 343.786 661.167 356.485C684.58 382.269 700.826 411.876 709.958 445.456C712.832 456.024 715.301 467.14 716.278 478.048C717.067 486.874 716.913 496.479 716.466 505.324C712.045 495.862 706.928 488.115 699.522 480.69C675.724 456.832 643.733 449.487 610.938 449.436C614.328 456.653 617.156 464.254 618.75 472.083C620.254 479.471 620.677 487.049 621.834 494.491C624.116 509.17 630.676 523.302 641.12 533.948C651.775 544.808 664.38 551.291 679.455 553.318C683.718 553.891 688.192 553.733 692.493 553.784C692.795 550.842 692.85 547.944 692.508 545C689.602 519.992 666.634 498.068 647.913 483.217L655.12 485.332C659.858 487.029 664.401 489.753 668.625 492.444C681.445 500.61 692.661 511.922 699.186 525.813C707.546 543.611 706.461 562.85 699.782 580.952C686.112 618.005 656.918 652.207 623.777 673.526C615.268 678.999 606.397 683.341 597.22 687.54L597.259 612.456L597.161 577.05C597.112 567.506 597.694 557.633 595.496 548.286C592.294 534.667 585.112 521.336 578.972 508.818L565.683 480.354C562.553 473.362 559.042 465.838 557.274 458.367C553.764 443.538 557.605 427.662 555.709 412.7C555.215 408.801 553.612 405.102 550.415 402.694C548.852 401.517 547.285 400.945 545.35 400.685C542.321 400.278 538.991 400.533 535.919 400.53L519.073 400.537L499.575 400.562C496.208 400.573 492.554 400.276 489.236 400.811C485.676 401.384 482.356 403.237 480.306 406.25C478.261 409.257 477.904 413.587 478.652 417.114C479.331 420.315 482.825 425.101 486.297 425.538C489.178 425.9 493.285 424.559 495.755 426.425C497.683 427.881 498.794 430.089 498.901 432.5C499.029 435.389 496.213 438.873 493.483 439.751C488.986 441.199 485.386 438.977 481.429 443.162C479.165 445.556 477.772 449.412 478.042 452.703C478.305 455.893 479.895 459.407 482.344 461.487C486.083 464.663 488.5 463.274 492.75 463.182C494.036 463.154 495.587 463.958 496.514 464.817C497.674 465.892 498.453 467.332 498.495 468.926C498.543 470.732 497.912 472.231 496.787 473.62C493.782 477.33 488.847 480.56 485.244 483.787L462.771 504.941C452.026 515.546 441.099 527.33 435.91 541.776C434.223 546.472 432.976 551.202 432.458 556.174C430.939 570.742 431.98 586.366 431.956 601.047L431.664 686.184L424.372 682.997C379.177 661.308 341.905 618.668 325.75 571.423C317.402 547.009 315.413 519.144 327.226 495.421C338.779 472.218 359.407 453.378 384.012 445.02C379.66 449.691 374.291 453.767 369.721 458.31C353.939 474.003 338.278 493.64 333.387 515.817C332.262 520.92 332.036 526.279 331.643 531.48C340.153 531.559 348.269 531.139 356.469 528.643C388.515 518.891 407.474 491.771 414.07 460.126C415.944 451.137 416.351 442.106 417.728 433.071C419.465 421.673 423.602 411.566 429.025 401.475C410.262 401.385 393.079 404.296 375.187 409.749C347.461 418.2 322.457 436.644 308.75 462.538C291.918 494.337 294.384 534.149 304.681 567.612C323.563 628.973 367.965 678.753 426.051 705.623C436.023 710.236 446.353 713.952 456.784 717.38C460.82 718.706 466.624 719.519 470.237 721.442L470.126 742.006L447.947 736.175C418.341 727.255 391.172 713.745 366.54 694.938C313.702 654.599 278.255 593.107 269.502 527.253C266.769 506.693 267.309 485.532 269.954 465C278.344 399.878 310.737 340.581 362.211 299.436C370.028 293.188 378.427 287.223 386.862 281.843L394.48 277.071C394.626 276.979 396.188 276.064 396.231 275.959C396.403 275.542 396.172 273.578 396.16 273.027C396.026 266.55 395.661 260.459 400.005 255.077C402.893 251.499 408.008 249.007 412.556 248.535C419.478 247.817 426.899 248.242 433.871 248.187L478.986 248.057L518.191 247.98C526.533 247.953 535.037 247.622 543.361 248.216C578.159 250.7 611.798 262.987 641.274 281.379C647.745 285.417 654.386 289.532 660.336 294.309C685.487 312.522 707.624 337.272 723.633 363.844C726.815 369.125 730.339 374.749 732.715 380.44ZM409.32 262.997C408.778 271.768 409.279 280.721 409.212 289.52C409.183 293.386 408.235 300.656 409.75 303.98C412.487 305.626 416.598 305.058 419.784 305.055C426.15 305.048 432.792 304.699 439.111 305.459C446.733 306.375 453.725 308.773 460.39 312.547C473.723 320.098 483.385 331.718 488.413 346.109C488.449 346.211 489.057 347.981 489.058 347.981C489.281 348.078 490.948 347.983 491.305 347.983L500.024 347.99L534.363 348.012C539.128 348.014 544.779 348.632 549.447 347.825C551.926 339.75 554.712 332.538 562.684 328.471C564.584 327.502 566.605 326.945 568.652 326.388L569.368 326.3L591.027 325.851C591.032 322.315 591.217 318.585 590.792 315.077C589.401 303.588 584.172 293.023 576.077 284.842C565.802 274.456 552.89 267.723 538.694 264.478C531.781 262.899 524.961 263.102 517.918 263.09L493.216 263.053L414.25 262.979L409.32 262.997ZM508.302 361.255C502.388 361.275 493.676 359.773 489.117 364.28C488.371 365.017 487.895 365.697 487.713 366.75C487.334 368.942 487.55 371.481 487.542 373.703L487.522 386.803L526.375 386.648L549.006 386.58C549.015 381.45 550.496 367.02 547.19 363.49C546.441 362.69 545.438 361.903 544.37 361.614C540.495 360.566 535.837 361.057 531.844 361.078L508.302 361.255ZM445.059 319.495C444.246 339.554 436.68 358.113 421.681 371.912L411.052 381.688C419.37 380.536 426.732 378.41 434.627 375.637C439.623 373.452 444.404 371.14 448.843 367.941C458.251 361.164 467.134 350.185 473.083 340.285C464.559 332.095 456.2 323.995 445.059 319.495ZM604.962 333.75C604.002 334.945 603.921 335.229 603.671 336.75C604.598 339.144 607.155 340.832 609.147 342.328C638.276 364.205 660.237 392.459 674.874 425.816L679.673 437.797C680.776 440.959 684.654 456.306 686.339 457.663C686.823 458.052 687.446 458.228 688 458.511C688.983 458.452 689.828 458.471 690.75 458.094C692.1 456.553 692.405 455.336 692.209 453.281C691.52 446.033 688.335 437.396 685.809 430.557C673.141 396.262 651.189 365.4 622.144 343.01C618.365 340.097 610.301 332.805 605.583 333.596L604.962 333.75ZM584.131 354.25L582.996 355.5C583.305 359.018 585.611 360.489 588.009 362.853C591.101 365.9 594.344 368.865 597.177 372.157C606.877 383.426 615.112 395.482 621.9 408.728L627.127 419.962C628.089 422.252 629.155 426.567 630.976 428.25C632.002 429.198 632.908 429.319 634.25 429.465L636.111 428.75C636.947 427.588 637.614 426.771 637.509 425.25C637.22 421.086 634.493 416.057 632.755 412.326C625.572 396.917 616.67 382.644 605.303 369.98C601.003 365.189 596.398 360.236 591.164 356.435C589.489 355.218 587.194 353.647 585.019 354.049L584.131 354.25ZM415.007 351.007C408.448 353.147 402.513 356.696 396.668 360.297C382.196 369.212 369.646 379.897 358.146 392.405C355.965 394.778 352.401 397.881 351.11 400.75C350.339 402.463 350.571 403.145 351.25 404.82C352.723 405.807 353.064 406.149 354.885 406.25C358.143 404.837 359.91 401.571 361.997 398.824C363.554 396.774 365.242 394.955 367.051 393.132C375.961 384.155 385.672 375.988 396.266 369.063L408.518 361.629C411.525 359.926 416.913 358.081 418.75 355.166C419.004 353.267 419.06 353.329 417.99 351.75C416.89 351.234 416.237 350.895 415.007 351.007ZM414.364 331.168C400.473 333.351 386.464 339.053 373.951 345.468C370.357 347.311 366.393 349.167 363.35 351.864C362.655 353.648 362.794 353.814 363.25 355.582C364.635 356.638 365.784 356.964 367.505 356.744L368.74 356.504C380.166 350.556 391.235 345.056 403.518 341.041L411.989 338.647C414.724 338.012 417.762 337.777 419.838 335.75C420.176 334.382 420.662 333.504 419.605 332.25C418.561 331.011 416.296 330.831 414.789 331.066L414.364 331.168Z"/>
	<path fill="#086972" transform="matrix(0.945312 0 0 0.945312 -249.081 -230.859)" d="M697.255 333.75L697.565 333.767L698.125 334.379L698.75 333.755C699.613 335.055 699.745 335.2 699.75 336.745L699.25 336.811C697.919 335.624 697.552 335.569 697.255 333.75Z"/>
	<path fill="#086972" transform="matrix(0.945312 0 0 0.945312 -249.081 -230.859)" d="M695.255 334.75L696.235 335.031C696.897 336.677 697.752 337.469 697.245 339.25L695.995 338.974C695.768 338.29 695.673 337.689 695.503 336.998C695.266 336.036 695.032 335.741 695.255 334.75Z"/>
	<path fill="#086972" transform="matrix(0.945312 0 0 0.945312 -249.081 -230.859)" d="M690.5 330.25L691.34 330.23L693.122 332C693.235 333.573 693.225 333.498 692.25 334.745C691.013 333.579 689.885 332.654 689.274 331.016L690.5 330.25Z"/>
	<path fill="#086972" transform="matrix(0.945312 0 0 0.945312 -249.081 -230.859)" d="M660.336 294.309C685.487 312.522 707.624 337.272 723.633 363.844C726.815 369.125 730.339 374.749 732.715 380.44L731.875 380.625L731 379C730.209 377.743 728.847 375.98 728.503 374.498L728.5 373.75C727.41 372.864 727.123 371.516 726.336 370.389L724.503 367.498L724.5 366.75C723.931 366.221 723.514 365.8 723.112 365.125L722.755 364.5L722.003 363.498C721.191 361.831 720.499 360.429 719.245 359L718.5 359.745L717.875 359.125L717.25 359.745L716.5 359L715.75 359.745L715 359L714.375 359.498C713.716 359.497 713.452 358.95 713 358.5L712.25 359.245C711.453 358.419 711.075 358.13 710.755 357L711.75 355.755C711.829 354.908 711.82 354.551 711.426 353.764L711.003 352.997L710.255 351.5C709.589 350.372 709.755 350.051 709.755 348.75L710.753 348.375L711 346.75L710.375 346.125L709.75 347.245L709.255 346.75L709.5 345.75L708.755 345.25L709.25 344.755L708.503 343.875C708.118 343.209 707.877 342.744 707.375 342.125C706.757 342.738 706.376 342.979 705.625 343.375L704 341.25L705.25 339.755L705 338.75C704.056 337.768 703.464 337.354 702.255 336.75L702.75 336.255L698.755 331.75L698.25 331.745L697.255 330.75L696.878 330L696.503 329.498C695.756 328.089 694.809 327.286 693.961 325.953L693.625 325.375L692.125 325.248L692.745 326.25L691.997 326.998L692 328.25L691.25 328.245L691 328.75L690.5 328.75C689.539 329.711 688.124 330.433 687 331.245C685.641 330.342 684.614 331.153 683.255 330.25L683.642 328.094L683.753 327.625C682.883 326.808 682.033 326.108 681 325.5C680.223 325.042 679.862 324.974 679.379 324.17C678.72 323.074 679.32 323.866 678.363 322.717C677.506 321.688 677.981 322.34 677.255 321.25C677.214 320.039 677.101 319.088 677.755 318L678.25 317.255C677.247 316.006 676.755 315.629 676.755 314C677.401 313.028 677.17 313.467 677.657 312.332L678.003 311.502L678.75 311.255L678.255 310.75C677.555 309.959 676.889 308.84 676 308.25C673.838 306.815 671.171 304.63 669.362 302.742L668.503 301.875C667.111 300.954 668.252 301.95 667.374 301.195L661.492 296.266L661 295.75L660.25 295.745L659.624 294.887L660.336 294.309Z"/>
</svg>
