<svg width="575" height="603" viewBox="0 0 575 603" fill="none" xmlns="http://www.w3.org/2000/svg">
<path d="M36.5469 200.629C39.1179 200.398 41.4464 200.492 43.5017 202.285C45.5443 204.067 46.5471 207.349 46.9678 209.954L44.6051 209.524C43.2795 207.787 41.6161 206.271 39.8936 204.932C39.2525 204.434 37.6737 203.623 37.2888 203.014C36.9623 202.498 36.7392 201.246 36.5469 200.629Z" fill="#72CCD4"/>
<path d="M113.54 351.215C115.182 349.744 116.411 347.88 117.84 346.212C120.725 342.843 124.451 340.83 128.336 338.853C126.364 344.357 127.298 349.412 128.977 354.823C124.623 356.483 118.122 358.85 114.819 362.139C112.182 362.863 108.394 366.704 106.076 368.451C107.981 362.292 110.429 356.852 113.54 351.215Z" fill="#361614"/>
<path d="M46.9679 209.954C46.9101 210.719 46.8654 211.555 46.6235 212.287C45.67 215.173 42.689 217.692 40.086 219.029C36.499 220.871 34.6183 220.718 30.8376 219.501C29.9914 218.566 28.9199 217.521 28.4309 216.349C27.3105 213.664 26.6827 209.993 27.9084 207.263C29.6167 203.462 32.8466 202.03 36.547 200.629C36.7393 201.246 36.9624 202.499 37.2889 203.014C37.6738 203.624 39.2526 204.434 39.8937 204.932C41.6162 206.271 43.2796 207.787 44.6052 209.524L46.9679 209.954Z" fill="#AAE3E8"/>
<path d="M35.8536 175.125C37.384 179.365 37.3316 183.402 35.4538 187.56C33.6558 191.542 30.3395 194.68 26.2273 196.177L25.7113 196.361L25.232 196.563C21.962 197.88 18.0322 196.956 14.9128 195.618C10.9875 193.932 6.99719 190.096 5.02979 186.326C9.5163 186.068 13.7304 187.335 18.2831 186.683C23.9784 185.868 28.9477 183.447 32.4541 178.751C33.4508 177.415 34.6656 176.289 35.8536 175.125Z" fill="#72CCD4"/>
<path d="M5.02964 186.327L4.03932 182.996C3.11673 178.971 3.68417 174.666 5.8916 171.169C7.85375 168.062 10.576 166.015 14.219 165.27C18.5175 164.393 24.5422 164.15 28.3436 166.771C32.1833 169.418 33.5956 170.992 35.8535 175.125C34.6655 176.289 33.4506 177.416 32.454 178.751C28.9476 183.447 23.9782 185.869 18.2829 186.684C13.7302 187.335 9.51616 186.068 5.02964 186.327ZM17.6051 167.911C13.3478 169.041 9.25923 170.968 6.9048 174.887C6.10739 176.215 5.98028 177.883 6.35545 179.381C6.57738 180.266 7.01 181.006 7.81547 181.431C9.2427 182.187 11.3271 182.368 12.8558 181.877C16.9922 180.892 21.3797 178.511 23.6474 174.817C24.5695 173.315 24.8009 172.064 24.3963 170.345C23.6823 169.332 23.1318 168.798 22.0103 168.263L21.6768 168.103C20.4293 167.556 18.9265 167.805 17.6051 167.911Z" fill="#AAE3E8"/>
<path d="M201.631 474.415C201.096 473.396 201.144 470.981 201.031 469.766C207.641 471.505 214.296 472.48 221.101 472.964L228.227 473.843C229.433 488.426 229.961 502.909 232.16 517.407L236.155 539.307C236.889 542.933 237.879 546.544 238.345 550.217C238.828 554.036 240.113 559.221 238.128 562.682C236.844 563.724 236.014 564.235 234.325 564.494L233.818 564.574C229.234 565.219 223.99 564.771 219.339 564.771C214.965 564.771 210.164 565.156 205.841 564.704C205.232 564.641 204.758 564.399 204.286 564.024C203.962 563.766 204.004 563.441 203.99 563.056C203.931 561.319 204.724 560.159 205.886 558.988C208.92 555.927 212.643 553.945 216.459 552.062L197.563 477.974C199.497 476.02 196.287 472.31 196.53 470.06C197.786 470.001 199.376 469.724 200.53 470.264L200.627 472.115C201.048 473.726 201.082 474.906 201.079 476.593L201.363 476.788C201.377 475.993 201.521 475.2 201.631 474.415Z" fill="url(#paint0_linear_315_14511)"/>
<path d="M201.63 474.415C201.096 473.396 201.144 470.981 201.03 469.766C207.64 471.505 214.296 472.48 221.101 472.964C219.137 473.348 216.932 473.895 215.041 472.954C214.459 473.08 212.992 473.557 212.494 473.37C211.597 473.031 209.071 473.211 208.6 472.821C207.737 472.106 206.662 471.536 205.498 471.545C205.021 471.55 205.104 471.606 204.666 471.679C204.088 471.776 203.519 471.72 202.941 471.667L201.839 472.187L201.909 472.418C202.282 473.72 202.282 475.052 202.331 476.397L201.968 476.984C201.911 476.135 201.934 475.218 201.63 474.415Z" fill="#D4460D"/>
<path d="M263.074 475.992L298.992 473.95C299.647 474.916 298.58 477.061 299.48 477.289L299.68 474.422L301.33 473.284C301.807 473.624 302.234 473.887 302.597 474.356L302.463 474.635C302.142 475.381 302.036 476.206 301.723 476.985C301.576 477.349 301.514 477.656 301.436 478.044C301.277 478.848 301.113 479.3 300.554 479.906C300.569 481.008 300.732 481.1 301.358 481.955C298.1 496.207 293.232 510.363 289.169 524.416C286.503 533.645 284.614 543.466 280.954 552.355C281.716 553.285 283.483 554.013 284.547 554.636C288.044 556.682 290.947 559.008 293.149 562.439C293.261 563.605 293.445 563.842 292.759 564.836C292.064 565.088 291.352 565.28 290.617 565.368C286.413 565.872 281.63 565.387 277.379 565.28C272.6 565.16 267.174 565.417 262.509 564.58C261.526 564.404 260.444 564.019 259.673 563.363C257.779 561.754 258.01 558.274 258.297 556.06C259.458 547.068 261.952 538.484 263.402 529.583C266.241 512.13 265.365 493.47 263.074 475.992Z" fill="url(#paint1_linear_315_14511)"/>
<path d="M111.261 324.113C109.144 320.297 105.928 316.63 103.187 313.235C92.7316 300.281 81.5264 287.903 68.9532 276.956C64.8309 273.367 60.8484 269.787 56.2808 266.742C53.0631 264.598 49.5919 263.674 46.1355 262.094C45.9138 266.228 45.1099 271.108 44.1162 275.112C43.1404 279.042 41.5867 280.653 38.1728 282.721C36.5563 282.646 35.0885 281.692 33.4848 281.739C32.3092 281.775 30.2626 282.61 29.2073 282.375C28.5307 282.224 27.4913 281.579 26.88 281.226C23.6027 279.336 19.8939 277.007 18.9706 273.116C16.9476 264.59 20.2965 254.095 26.0796 247.726C28.1418 245.456 31.2008 243.451 32.7801 240.927C32.7712 236.064 21.9455 236.35 19.4604 231.305C18.9385 230.246 18.972 228.094 19.4604 227.042C20.6287 224.526 22.8949 223.544 25.3383 222.684C33.6152 224.239 39.7588 229.532 44.14 236.648C44.9611 237.98 46.0076 241.011 46.9793 241.988C48.4416 243.457 52.4493 244.277 54.4447 245.162C60.7309 247.952 66.7911 251.006 72.7409 254.458C80.7149 259.081 88.2236 264.966 95.2191 270.932C101.621 276.39 107.784 281.853 113.549 288.014C112.734 291.035 113.093 294.05 112.96 297.132L112.114 320.222C112.087 320.909 112.371 322.134 112.221 322.729C112.124 323.114 111.439 323.589 111.261 324.113Z" fill="#EC740C"/>
<path d="M36.8888 240.927L37.2619 240.992C38.7745 241.583 43.0571 244.447 43.6437 245.796C42.7998 246.855 41.2847 246.383 40.0713 247.547C37.7388 249.783 38.3 254.447 38.245 257.504C36.8832 259.427 35.7539 262.075 34.9249 264.277C34.4895 265.433 33.7757 268.746 32.9185 269.473C32.8217 266.782 34.9326 261.524 33.4776 259.324C33.0976 258.749 32.2654 258.571 31.6002 258.456C30.3416 258.236 30.0672 258.51 29.1154 259.235C26.5521 262.415 26.2829 267.166 25.9448 271.116L25.5167 271.314C25.1538 268.618 25.412 265.544 25.8561 262.856C26.1463 261.1 26.6764 256.955 28.0489 255.996C30.8742 257.066 33.9803 257.201 36.9577 257.602C36.9808 255.699 36.9256 253.702 37.238 251.824C37.5952 249.677 38.3408 247.547 38.3126 245.355C38.292 243.752 36.8725 242.65 36.8754 241.305L36.8888 240.927Z" fill="#E76B0A"/>
<path d="M424.347 296.528L424.743 296.213C428.955 292.83 432.386 288.195 436.273 284.402C445.943 274.965 456.214 266.252 467.399 258.648C473.894 254.231 481.001 250.524 488.157 247.319L494.36 244.556C495.373 244.154 497.463 243.629 498.261 242.855C499.532 241.622 500.568 238.671 501.588 237.103C505.002 231.846 513.017 223.177 520.072 223.766C521.242 223.862 524.098 224.944 524.856 225.837C526.01 227.195 526.618 229.14 526.295 230.89C525.946 232.772 525.153 233.816 523.57 234.877C520.371 237.018 513.65 237.269 512.665 241.122C513.496 243.83 517.089 245.588 518.981 247.834C524.561 254.461 530.409 267.615 525.727 276.072C524.318 278.615 519.116 282.202 516.324 283.285C515.059 283.044 513.363 282.45 512.086 282.467C509.243 282.503 505.955 284.292 503.797 281.175C500.625 276.593 500.33 268.436 499.21 262.953C494.918 264.938 491.041 266.171 487.107 269.022C482.011 272.715 477.277 277.14 472.652 281.398C453.51 299.024 437.064 319.766 422.529 341.287C419.261 346.126 415.179 351.136 413.097 356.619L410.956 363.758C409.742 363.151 409.735 363.218 408.42 363.598L398.083 376.815C395.658 376.962 393.227 379.389 390.477 379.752C388.499 380.013 386.843 379.964 385.249 378.673C381.146 375.346 382.65 370.798 382.001 366.374L381.953 366.074L381.928 366.033C383.784 358.743 386.184 351.08 389.487 344.306C392.454 338.222 396.338 332.667 400.243 327.162L412.941 310.196C416.561 305.744 420.935 301.426 424.195 296.752L424.347 296.528Z" fill="#F43F0E"/>
<path d="M506.951 252.594C506.867 251.795 506.837 250.757 506.558 250.006C505.71 247.712 504.037 248.231 502.26 247.247C501.787 246.983 501.854 246.679 501.72 246.186C502.368 244.934 503.498 244.386 504.56 243.535C505.753 242.582 508.028 241.399 509.577 241.452C508.913 242.508 507.583 244.32 507.401 245.54C507.258 246.506 507.811 248.074 508.039 249.038C508.783 249.712 508.922 250.536 508.987 251.544L509.358 257.29C510.359 257.392 511.28 257.373 512.28 257.287L512.67 256.901C513.29 256.901 514.161 257.054 514.667 256.717C515.059 256.458 514.928 256.535 515.361 256.426C516.24 256.204 517.07 255.671 517.929 255.344C519.778 256.828 519.59 259.811 520.129 262.075C520.455 263.442 520.654 265.432 520.721 266.851C520.738 267.214 520.799 267.521 520.858 267.876C521.091 269.258 520.609 270.977 520.466 272.39L519.299 272.95L518.711 272.674L518.691 272.414C518.647 271.917 518.619 271.525 518.44 271.058C517.871 269.586 518.527 267.741 517.932 266.052C517.005 263.411 517.383 261.449 514.812 259.43C513.725 259.801 513.207 260.271 512.459 261.131C512.467 262.697 512.4 264.152 512.86 265.662C513.404 267.453 513.09 269.397 513.485 271.229C512.897 271.303 512.96 271.348 512.36 271.083L511.912 271.751C511.051 270.564 511.403 269.224 511.001 267.805L510.962 267.166C510.846 265.672 509.111 262.814 508.19 261.569C507.076 260.059 507.063 258.772 506.245 257.287L506.635 256.898C506.653 255.433 506.692 254.043 506.951 252.594Z" fill="#D4460D"/>
<path d="M353.862 154.473L369.697 158.377C372.983 159.145 376.186 160.717 379.209 162.205C391.572 168.29 402.629 177.491 409.899 189.314C413.808 195.669 416.973 202.594 418.979 209.791C421.364 218.351 422.658 227.469 423.654 236.284C425.192 249.893 425.969 263.25 425.753 276.962C425.65 283.354 425.659 290.273 424.347 296.528L424.194 296.752C420.934 301.426 416.56 305.744 412.94 310.196L400.242 327.162C396.337 332.667 392.454 338.222 389.487 344.306C386.183 351.08 383.784 358.742 381.928 366.033L381.953 366.073L382.001 366.374C382.649 370.798 381.146 375.346 385.249 378.673C386.843 379.964 388.499 380.013 390.477 379.752C393.227 379.389 395.658 376.962 398.082 376.815L408.42 363.598C409.735 363.217 409.741 363.15 410.955 363.758C405.442 382.015 397.919 399.784 389.372 416.816C384.861 425.805 380.089 435.116 373.605 442.882C366.69 451.166 358.583 457.798 349.052 462.845C340.877 467.172 332.038 469.545 322.954 471.042L310.949 472.532C308.621 472.756 305.518 472.527 303.492 473.667L301.979 472.415C301.959 472.184 301.841 471.943 301.92 471.726C302.222 470.9 303.564 469.549 304.127 468.808L310.407 460.241L330.363 430.463C335.901 421.517 340.614 411.823 345.013 402.275C372.338 342.976 380.43 275.285 368.637 211.093L362.079 181.779L357.332 166.459C356.176 163.019 353.878 158.43 353.859 154.879L353.862 154.473Z" fill="url(#paint2_linear_315_14511)"/>
<path d="M381.975 326.19C383.147 326.049 384.396 326.102 385.515 326.509C387.79 327.336 389.112 329.789 390.072 331.779C390.453 332.572 390.595 333.273 390.782 334.127L390.93 334.795L390.924 335.194C391.002 336.861 390.732 337.428 389.908 338.835C389.12 339.345 388.501 339.842 387.521 339.845C385.528 340.013 383.201 340.094 381.445 338.971C378.966 337.385 377.341 334.945 376.767 332.078C376.398 330.238 376.686 328.848 377.685 327.285C379 326.358 380.429 326.33 381.975 326.19Z" fill="#F43F0E"/>
<path d="M381.953 366.073L382.001 366.374C382.65 370.798 381.146 375.346 385.249 378.672C386.843 379.964 388.499 380.012 390.477 379.752C393.227 379.389 395.658 376.962 398.083 376.815C394.301 385.014 388.714 394.366 382.301 400.698L381.777 401.222C381.197 401.935 380.602 402.37 379.966 403.021L379.636 403.363C378.008 403.366 377.135 403.288 375.951 402.021C375.296 401.321 374.98 400.51 374.96 399.565C374.72 388.403 377.761 376.377 381.953 366.073Z" fill="#D4460D"/>
<path d="M405.283 247.477C406.175 247.452 407.033 247.434 407.896 247.691C411.477 248.76 415.083 251.853 416.729 255.226L416.939 255.729L417.347 256.582C418.407 259.064 418.254 263.423 417.263 265.89L415.177 270.443L414.672 271.747C411.089 280.245 406.477 288.541 397.568 292.176C396.477 292.265 394.966 292.381 393.934 291.959C390.162 290.413 387.181 284.507 385.993 280.906C383.922 274.628 384.867 269.531 387.868 263.777C390.561 258.613 394.877 254.35 399.5 250.913C401.336 249.548 403.075 248.175 405.283 247.477Z" fill="#F43F0E"/>
<path d="M119.611 248.493C115.733 246.348 111.895 242.642 109.589 238.922C109.54 238.842 109.531 238.708 109.441 238.68C108.552 238.409 105.032 239.377 103.807 239.453C101.044 239.621 97.8947 238.847 95.357 237.748C90.7953 235.771 88.0776 231.441 86.3825 226.974C84.7582 222.695 85.4862 217.421 85.5543 212.912C85.6023 209.736 85.2983 204.957 86.6535 202.059L86.7971 201.779C86.0325 201.137 85.6702 201.54 84.7702 201.822C77.3766 204.138 72.1206 204.474 64.6006 202.293C59.8943 200.928 55.4362 197.664 52.7302 193.603C47.9979 186.503 47.6106 178.98 49.0918 170.811C49.477 168.685 50.4746 166.393 51.6495 164.58C55.9938 157.874 61.5783 154.56 69.3358 152.877C65.4974 149.626 62.4446 145.967 59.9406 141.577C53.5302 130.339 51.9186 115.825 55.3251 103.421C55.8489 101.515 56.9872 98.8484 58.2572 97.3315C60.7905 94.3062 63.8071 90.9815 67.5036 89.3875C76.5575 85.4835 83.8477 85.6449 92.9914 89.0253C91.1547 86.3607 88.919 83.9703 87.133 81.264C82.5786 74.363 79.4214 64.9547 78.0917 56.7858C75.8399 42.9518 79.1599 27.4156 87.3988 16.0424C92.8579 8.50666 100.975 4.17841 110.093 2.76279C128.914 -0.15926 148.895 6.71317 164.226 17.3401C166.122 18.6545 167.61 20.5634 169.503 21.9694C172.076 23.8794 174.029 26.4425 176.132 28.8237C184.926 38.7708 190.933 51.4129 193.674 64.4159C194.233 67.0738 194.358 69.9127 194.752 72.6139C196.941 70.365 198.973 68.2481 201.7 66.6362C204.133 65.1981 208.203 63.9848 210.952 63.2401C223.222 59.9163 235.962 60.2497 247.219 66.5839C255.87 72.3177 261.747 81.9435 263.749 92.0153C265.625 101.449 264.051 111.385 260.561 120.253C259.646 122.576 258.46 125.033 257.214 127.202C255.917 129.46 250.67 136.12 251.146 138.552L250.862 138.673C249.77 145.128 244.428 152.098 239.139 155.807C236.043 157.976 232.168 159.664 228.436 160.194L226.483 161.194L221.73 161.28C220.473 160.529 218.307 160.275 216.847 159.933L214.519 158.93C211.851 157.942 208.515 157.521 205.718 156.918L200.543 164.581C200.091 169.873 197.569 173.907 195.121 178.471L194.872 178.404L192.469 181.845L192.042 182.151C186.587 187.723 179.91 192.734 171.925 193.79L171.202 194.033C167.785 194.387 163.351 195.166 160.024 194.284C158.298 197.026 156.506 199.479 154.241 201.811L154.053 205.299C151.843 212.692 148.464 218.699 141.42 222.472C139.029 223.755 136.713 224.814 134.013 225.201L133.052 226.156C132.143 227.916 130.734 229.236 129.365 230.642C131.596 233.764 133.212 236.787 132.476 240.757C131.868 244.039 129.756 246.74 126.999 248.537C125.719 249.37 124.412 249.628 122.908 249.347C122.467 249.265 122.063 249.074 121.649 248.911C120.993 248.654 120.304 248.582 119.611 248.493ZM112.787 7.59593C111.411 7.89639 109.884 8.13713 108.624 8.78611C103.668 11.3395 98.8711 17.6095 95.8974 22.2516C91.8875 28.5113 86.2539 39.8715 88.1873 47.5014C88.5271 48.8431 89.0428 50.0312 90.3793 50.6099C90.7824 50.7845 91.3077 50.8043 91.7428 50.8303C94.471 50.7311 98.3942 48.0886 100.249 46.0688C107.989 37.6388 116.823 25.0256 116.202 13.0295C116.088 10.8356 115.501 9.6735 114.338 7.82801C113.82 7.71312 113.318 7.55003 112.787 7.59593ZM160.378 84.2092C155.378 85.3951 152.137 87.7155 149.408 92.0973C147.098 95.8072 145.544 100.989 146.52 105.369C147.109 108.014 148.521 110.249 150.836 111.682C152.432 112.669 154.171 113.246 156.065 112.891L156.322 112.821C161.519 110.991 166.359 108.263 168.832 103.07C170.829 98.8736 171.643 94.5401 170.125 90.0307C169.486 88.1337 167.82 86.029 165.957 85.2409C164.216 84.5048 162.264 84.1062 160.378 84.2092ZM75.2554 93.9762C69.7483 95.0849 66.1392 97.8798 63.1681 102.642C60.4677 106.97 58.7611 112.537 60.0978 117.58C60.3806 118.648 60.8375 119.637 61.3094 120.631C62.7967 121.188 64.286 121.835 65.852 122.122C71.3536 120.648 74.7318 117.926 77.5985 112.941C80.5268 107.849 81.9137 103.602 80.1703 97.7934C79.763 96.4365 78.5793 95.0302 77.3012 94.4105C76.6796 94.1091 75.9345 94.0459 75.2554 93.9762ZM224.439 67.6182C219.022 67.8528 211.862 68.8179 207.899 73.0531C207.268 73.7259 207.059 74.2887 206.906 75.1801C207.443 76.3453 207.616 76.8465 208.875 77.3888C211.387 78.4698 216.329 78.0197 219.112 77.91C223.716 77.9553 227.395 77.1437 231.652 75.4113C233.674 74.5882 235.949 73.0989 236.883 71.09C236.794 69.9284 236.824 69.446 235.882 68.6275C233.983 66.9764 227.367 67.1365 225.003 67.5167L224.439 67.6182ZM127.662 155.412C124.635 156.337 121.887 157.813 120.357 160.744C119.061 163.226 118.458 165.527 119.079 168.279L119.172 168.703C119.493 170.072 120.062 171.317 121.299 172.039C122.493 172.737 123.999 172.986 125.366 172.899C129.281 171.496 131.055 169.902 132.882 166.108C133.893 164.006 134.075 162.395 133.478 160.172C132.979 158.316 132.68 157.01 130.873 155.955C129.902 155.39 128.751 155.371 127.662 155.412ZM65.6828 159.904C62.9204 160.809 60.8042 162.263 58.5127 164.014C56.0083 165.928 52.3496 169.254 51.9277 172.506L51.9038 172.758C52.4296 173.237 52.4785 173.293 53.1757 173.393C58.1026 171.858 63.6938 167.774 66.2098 163.215C66.7355 162.263 67.1712 161.202 66.926 160.111C66.492 160 66.1336 159.871 65.6828 159.904ZM167.923 112.634C165.003 113.922 161.737 115.693 160.469 118.808C160.045 119.849 160.046 120.497 160.433 121.535C161.745 122.548 162.409 122.391 164.074 122.382C166.639 121.394 169.792 119.718 171.071 117.104C171.863 115.482 171.785 114.43 171.143 112.848C170.019 112.247 169.134 112.465 167.923 112.634Z" fill="#AAE3E8"/>
<path d="M247.219 66.584C255.871 72.3178 261.747 81.9436 263.749 92.0154C265.625 101.449 264.052 111.385 260.561 120.253C259.646 122.577 258.46 125.034 257.214 127.202C255.917 129.46 250.671 136.121 251.146 138.552L250.862 138.673C249.77 145.128 244.428 152.099 239.14 155.807C236.043 157.976 232.168 159.664 228.436 160.194L226.483 161.194L221.731 161.28C220.473 160.529 218.307 160.275 216.847 159.934L214.519 158.93C211.851 157.942 208.515 157.522 205.718 156.919L200.543 164.581C200.091 169.873 197.57 173.907 195.122 178.471L194.872 178.404L192.469 181.846L192.042 182.151C186.587 187.723 179.91 192.734 171.925 193.79L171.202 194.033C167.785 194.387 163.352 195.166 160.025 194.284C158.298 197.027 156.506 199.479 154.242 201.812L154.053 205.299C151.844 212.692 148.464 218.699 141.421 222.472C139.029 223.755 136.713 224.814 134.014 225.201L133.053 226.156C131.436 225.575 130.305 224.367 128.885 223.456C126.439 221.883 124.027 220.735 121.27 219.828C122.559 218.128 123.687 216.006 124.278 213.954L124.394 213.543C124.621 212.826 124.835 212.179 124.955 211.43C126.213 203.533 122.926 196.914 118.376 190.721L124.391 191.958C132.318 193.267 140.28 192.516 146.946 187.735C150.552 185.15 153.525 181.151 154.175 176.663C154.937 171.403 153.027 165.666 149.86 161.462C144.346 154.14 135.215 151.221 126.471 150.096C130.053 147.016 132.512 144.778 134.656 140.435C138.163 133.335 136.707 125.747 134.292 118.601C142.609 127.049 154.716 133.363 166.735 133.5C173.617 133.578 180.655 131.178 185.554 126.226C189.632 122.104 190.109 117.692 190.143 112.199C200.671 117.486 210.922 120.343 222.776 118.181L223.222 118.096C227.223 117.347 230.99 115.441 234.423 113.297C247.324 105.241 252.729 90.8428 249.461 76.2996C248.701 72.9181 246.409 70.073 247.219 66.584Z" fill="#72CCD4"/>
<path d="M161.848 190.213C163.101 184.935 163.241 180.528 162.765 175.141C165.639 175.989 168.757 176.613 171.754 176.721C183.311 177.137 192.374 172.271 200.543 164.582C200.091 169.873 197.569 173.907 195.121 178.471L194.872 178.404C191.445 177.614 187.941 177.394 184.46 177.936C176.394 179.191 169.662 183.075 164.116 189.06C163.446 189.784 162.787 189.967 161.848 190.213Z" fill="#A29C10"/>
<path d="M154.242 201.812L154.053 205.299C151.843 212.692 148.464 218.699 141.42 222.472C139.029 223.755 136.713 224.814 134.014 225.201C135.49 221.09 135.903 217.583 135.117 213.265C134.795 211.497 134.132 209.693 133.967 207.916C141.984 208.15 147.671 206.26 154.242 201.812Z" fill="#A29C10"/>
<path d="M161.848 190.212C162.787 189.966 163.446 189.784 164.116 189.059C169.662 183.075 176.394 179.19 184.46 177.936C187.941 177.394 191.445 177.613 194.872 178.403L192.469 181.845L192.042 182.151C186.587 187.723 179.909 192.734 171.925 193.79L171.202 194.033C167.785 194.387 163.351 195.166 160.024 194.284L161.848 190.212Z" fill="#96870D"/>
<path d="M171.925 193.79L172.243 192.625C178.436 186.411 183.065 182.861 192.043 182.151C186.587 187.723 179.91 192.734 171.925 193.79Z" fill="#87720B"/>
<path d="M205.718 156.919C208.496 151.112 209.828 145.38 211.05 139.109C212.426 138.811 214.122 139.107 215.521 139.213C222.048 139.708 228.694 142.441 235.25 142.287C240.946 142.152 245.134 138.324 250.862 138.673C249.77 145.128 244.428 152.099 239.139 155.807C236.043 157.976 232.168 159.664 228.436 160.194L226.483 161.194L221.731 161.28C220.473 160.529 218.307 160.275 216.847 159.934L214.519 158.93C211.851 157.942 208.515 157.522 205.718 156.919Z" fill="#A29C10"/>
<path d="M214.519 158.93C214.634 155.853 213.947 152.833 214.374 149.691C214.703 147.28 216.317 144.55 218.312 143.154C219.681 142.196 221.221 142.664 222.745 142.998C220.121 146.731 218.623 149.273 219.438 154.029C219.549 154.673 219.769 155.271 219.979 155.887C220.526 157.5 221.271 159.039 221.57 160.702L221.73 161.28C220.473 160.529 218.307 160.275 216.847 159.934L214.519 158.93Z" fill="#96870D"/>
<path d="M222.745 142.998C224.643 142.896 225.816 143.075 227.318 144.402C228.693 145.616 229.311 147.019 229.972 148.688C230.902 151.037 230.865 154.255 229.844 156.582L229.422 157.436C228.992 158.308 228.727 159.268 228.436 160.194L226.483 161.194L221.73 161.28L221.57 160.702C221.271 159.039 220.526 157.5 219.979 155.887C219.769 155.271 219.549 154.673 219.438 154.029C218.623 149.273 220.121 146.731 222.745 142.998Z" fill="#87720B"/>
<path d="M251.146 138.552L280.53 141.198L308.147 145.333L341.65 151.858C345.678 152.845 349.832 153.395 353.862 154.473L353.859 154.879C353.878 158.43 356.176 163.019 357.332 166.459L362.079 181.779L368.638 211.093C380.431 275.285 372.338 342.976 345.013 402.275C340.614 411.823 335.902 421.517 330.363 430.463L310.407 460.241L304.127 468.808C303.564 469.549 302.223 470.9 301.92 471.726C301.841 471.943 301.959 472.184 301.98 472.415L303.493 473.667L301.358 481.955C300.731 481.1 300.569 481.008 300.554 479.906C301.113 479.3 301.277 478.848 301.436 478.044C301.514 477.656 301.576 477.349 301.722 476.985C302.036 476.206 302.142 475.381 302.463 474.635L302.597 474.356C302.234 473.887 301.807 473.624 301.33 473.284L299.68 474.422L299.48 477.289C298.579 477.061 299.647 474.915 298.992 473.949L263.074 475.992L228.227 473.844L221.101 472.965C214.296 472.48 207.641 471.505 201.03 469.766C201.144 470.981 201.096 473.396 201.63 474.415C201.521 475.201 201.376 475.994 201.362 476.788L201.079 476.594C201.082 474.906 201.048 473.727 200.627 472.116L200.53 470.264C199.375 469.724 197.786 470.001 196.53 470.06C196.287 472.31 199.497 476.02 197.563 477.974C197.289 476.968 195.495 468.861 195.248 468.554C194.866 468.078 184.63 465.274 183.151 464.825C176.048 462.675 169.033 459.789 162.282 456.723C158.095 454.822 153.667 452.915 149.925 450.2C144.322 446.137 139.082 441.18 135.304 435.347C131.117 428.882 128.944 422.082 126.587 414.852C120.993 397.69 117.614 379.942 114.819 362.139C118.121 358.85 124.623 356.483 128.977 354.824C127.298 349.412 126.364 344.358 128.335 338.853C124.451 340.83 120.725 342.843 117.84 346.212C116.411 347.881 115.182 349.744 113.54 351.215C113.352 346.238 113.255 340.707 112.204 335.849C110.405 336.159 108.261 337.483 106.507 338.172C108.134 335.967 110.142 334.568 112.295 332.907L112.036 330.947C108.421 332.729 105.284 335.975 101.971 338.325C103.11 336.338 104.206 334.082 105.608 332.273C107.499 329.833 109.823 327.548 111.813 325.149L111.26 324.113C111.439 323.589 112.124 323.114 112.221 322.729C112.371 322.134 112.087 320.909 112.113 320.222L112.96 297.132C113.093 294.05 112.734 291.035 113.549 288.014L119.611 248.493C120.304 248.582 120.994 248.654 121.649 248.911C122.063 249.074 122.467 249.265 122.908 249.347C124.412 249.628 125.719 249.37 126.999 248.537C129.756 246.74 131.868 244.039 132.476 240.757C133.212 236.787 131.596 233.764 129.366 230.642C130.734 229.236 132.143 227.917 133.052 226.156L134.014 225.201C136.713 224.814 139.029 223.755 141.42 222.472C148.464 218.699 151.843 212.692 154.053 205.299L154.242 201.811C156.506 199.479 158.298 197.026 160.025 194.284C163.351 195.166 167.785 194.387 171.202 194.033L171.925 193.79C179.91 192.734 186.587 187.723 192.042 182.151L192.469 181.846L194.872 178.404L195.121 178.471C197.569 173.907 200.091 169.873 200.543 164.581L205.718 156.918C208.515 157.521 211.851 157.942 214.519 158.93L216.847 159.933C218.307 160.275 220.473 160.529 221.73 161.28L226.483 161.194L228.436 160.194C232.168 159.664 236.043 157.976 239.139 155.807C244.428 152.099 249.77 145.128 250.862 138.673L251.146 138.552Z" fill="url(#paint3_linear_315_14511)"/>
<path d="M216.847 159.934C218.307 160.275 220.473 160.529 221.73 161.28L226.483 161.194C226.04 161.898 225.54 162.81 224.858 163.302C224.052 163.883 222.639 164.139 221.676 163.943C219.178 163.436 218.043 161.958 216.847 159.934Z" fill="#F2990D"/>
<path d="M189.828 429.243C189.063 429.653 188.29 430.058 187.433 430.24C185.711 430.603 183.545 430.343 182.123 429.228C180.228 427.743 178.856 424.82 178.727 422.472C178.535 418.952 179.371 416.683 181.758 414.117C182.933 412.856 183.795 413.018 185.361 412.965C183.807 416.814 182.504 420.73 184.29 424.787C184.884 426.138 185.579 426.914 186.797 427.727C187.835 428.42 188.616 428.855 189.828 429.243Z" fill="#EC820B"/>
<path d="M223.005 343.764C223.452 343.747 223.898 343.828 224.342 343.878C222.57 344.568 220.465 345.219 219.465 346.954C216.267 352.497 218.213 359.367 219.778 365.106C217.987 364.545 215.341 364.19 213.49 364.543C211.915 364.844 211.29 365.531 210.427 366.747C210.216 368.179 210.221 369.621 211.066 370.871C213.093 373.874 217.651 374.391 220.914 374.927C220.356 375.583 219.591 375.672 218.742 375.714C216.055 375.845 212.47 375.407 210.427 373.468C208.709 371.84 208.332 369.788 208.298 367.524C208.273 365.872 208.276 364.523 209.556 363.311C211.292 361.667 214.02 361.919 216.239 362.01L216.724 362.033L215.916 356.619C215.571 352.783 215.711 348.273 218.519 345.26C219.722 343.967 221.363 343.895 223.005 343.764Z" fill="black"/>
<path d="M207.367 381.938C208.149 382.811 207.658 386.446 207.698 387.781C207.747 389.411 207.987 391.146 208.342 392.739C208.956 395.488 210.023 397.73 211.594 400.052C213.219 402.453 217.291 405.27 217.812 407.843C217.263 408.777 217.014 408.699 216.015 409.027C214.511 409.078 212.902 408.682 211.607 407.914C208.465 406.052 206.885 403.078 205.97 399.662C204.746 395.088 205.398 390.494 206.347 385.932C206.637 384.541 206.695 383.229 207.367 381.938Z" fill="#E76B0A"/>
<path d="M221.053 253.141C218.436 253.025 215.677 254.322 212.942 253.374C209.858 252.305 207.302 248.913 206.129 245.999L205.937 245.502C205.082 243.338 205.258 241.123 205.306 238.839C206.137 237.426 206.983 236.264 208.223 235.176C210.313 233.342 214.003 234.395 216.577 234.562C213.959 235.081 212.714 235.684 211.156 238.006C210.174 239.466 210.223 240.802 210.584 242.442C211.401 246.144 213.331 248.99 216.534 251.061C217.006 251.367 217.495 251.557 218.012 251.766C218.386 251.915 218.623 252.091 218.943 252.328C219.603 252.819 220.261 252.965 221.053 253.141Z" fill="#EC820B"/>
<path d="M246.477 258.456C247.351 258.174 248.411 258.14 249.323 258.228C256.319 258.916 263.603 268.244 267.872 273.258L267.632 273.676L266.203 272.647C263.423 270.712 260.698 268.976 257.463 267.894C253.39 266.529 245.708 267.186 242.761 264.104C242.677 263.592 242.454 262.95 242.63 262.46C243.359 260.418 244.593 259.364 246.477 258.456Z" fill="#361614"/>
<path d="M206.349 255.149C207.91 255.201 209.397 255.732 210.604 256.715C211.581 257.51 212.509 258.524 212.624 259.819C211.232 263.224 202.779 264.796 199.653 266.497C197.041 267.918 194.891 269.914 192.736 271.929L189.096 276.139C192.951 268.353 197.549 258.124 206.349 255.149Z" fill="#361614"/>
<path d="M185.36 412.966C186.915 412.453 188.354 412.037 189.932 412.763C191.718 413.584 193.353 415.513 194.018 417.366C194.895 419.803 194.571 423.182 193.359 425.431C192.527 426.978 191.127 428.098 189.828 429.243C188.615 428.855 187.835 428.421 186.797 427.727C185.578 426.914 184.883 426.138 184.29 424.787C182.504 420.73 183.807 416.814 185.36 412.966Z" fill="#E76B0A"/>
<path d="M221.053 253.141C220.261 252.965 219.604 252.819 218.943 252.328C218.623 252.091 218.387 251.915 218.013 251.765C217.495 251.557 217.006 251.367 216.534 251.061C213.332 248.99 211.401 246.144 210.584 242.442C210.223 240.802 210.174 239.465 211.156 238.006C212.714 235.684 213.959 235.081 216.577 234.562C220.216 236.84 223.198 239.648 224.171 244.009C224.802 246.843 224.232 249.268 223.072 251.878L221.053 253.141Z" fill="#EC740C"/>
<path d="M330.95 251.684C332.776 251.627 334.632 251.962 336.442 252.194C337.044 252.758 337.672 253.347 338.133 254.037C339.484 256.06 340.428 258.68 339.885 261.103L339.771 261.572C339.674 261.976 339.589 262.372 339.408 262.747C338.367 264.908 335.889 265.852 333.748 266.48C332.149 266.53 330.572 266.624 329.111 265.84C327.461 264.955 325.673 262.915 325.094 261.122C324.544 259.419 324.478 256.881 325.404 255.33C326.692 253.166 328.57 252.28 330.95 251.684Z" fill="#E76B0A"/>
<path d="M337.575 353.674C341.261 364.983 339.6 378.746 334.144 389.287C329.463 398.328 321.393 405.441 311.607 408.417C299.762 412.02 286.445 408.665 275.832 402.951C274.26 402.105 270.154 399.874 269.414 398.233L269.323 397.917C279.304 404.955 291.566 409.589 303.948 408.422C315.582 407.327 322.862 401.097 329.996 392.437C331.141 391.424 332.226 390.603 332.721 389.098C332.452 387.725 332.785 386.272 332.592 384.86C331.624 383.891 331.663 383.754 330.317 383.74C333.851 378.165 337.011 369.303 336.176 362.613L337.756 360.96C337.921 359.824 337.674 357.904 337.413 356.762C337.133 355.525 337.198 354.891 337.575 353.674Z" fill="#361614"/>
<path d="M337.756 360.959C338.166 367.708 337.348 374.395 335.253 380.838C334.435 383.353 333.081 385.768 332.897 388.425C332.866 388.88 332.91 388.688 332.721 389.098C332.452 387.725 332.785 386.271 332.592 384.86C331.624 383.891 331.663 383.753 330.317 383.739C333.851 378.164 337.011 369.303 336.176 362.613L337.756 360.959Z" fill="#FEF1DD"/>
<path d="M277.675 443.176C277.139 444.201 276.586 445.298 275.793 446.151C272.101 450.124 265.558 451.595 260.338 451.836C256.45 452.015 252.525 450.356 249.714 447.734C245.84 444.12 243.21 437.892 243.051 432.609C242.881 426.981 243.341 421.04 247.419 416.77C249.296 414.804 250.262 414.399 252.95 414.358L250.767 417.657C248.092 421.125 247.317 426.761 247.833 431.037C248.433 435.999 250.741 441.193 254.761 444.318C258.403 447.151 262.543 447.31 266.99 446.684C270.08 446.247 275.044 444.917 277.675 443.176Z" fill="#EC740C"/>
<path d="M262.987 302.808C262.93 301.454 262.913 300.091 262.679 298.754C262.118 295.561 263.692 292.112 265.495 289.577C268.937 284.739 274.921 281.061 280.805 280.184C285.975 279.411 291.776 280.078 296.055 283.258C298.714 285.234 301.003 288.505 301.55 291.827C302.067 294.972 301.467 298.363 299.535 300.94L298.645 302.032L298.578 301.18C298.369 300.429 298.192 300.019 298.148 299.211C297.956 295.672 296.562 292.757 293.891 290.432C290.393 287.389 285.411 287.116 281.006 287.471C275.771 287.892 270.084 291.501 266.892 295.535C265.94 296.739 265.367 298.241 264.373 299.376C263.372 300.516 263.235 301.353 262.987 302.808Z" fill="#EC820B"/>
<path d="M262.987 302.808C263.235 301.353 263.372 300.516 264.373 299.376C265.367 298.241 265.94 296.739 266.892 295.535C270.084 291.501 275.771 287.892 281.006 287.471C285.411 287.116 290.393 287.389 293.891 290.432C296.562 292.757 297.956 295.672 298.148 299.211C298.192 300.019 298.369 300.429 298.578 301.18L298.645 302.032C296.219 306.7 291.435 310.678 286.455 312.369C283.151 313.489 276.839 314.602 273.604 312.97C269.001 310.647 264.762 307.963 262.987 302.808Z" fill="#E76B0A"/>
<path d="M252.951 414.358C257.977 413.366 263.171 416.325 267.269 419.086C272.48 422.596 278.559 428.568 280 434.915C280.753 438.227 279.45 440.526 277.676 443.176C275.044 444.916 270.081 446.247 266.991 446.683C262.543 447.31 258.403 447.151 254.761 444.318C250.741 441.192 248.433 435.999 247.833 431.037C247.317 426.761 248.092 421.125 250.767 417.657L252.951 414.358Z" fill="#E76B0A"/>
<path d="M284.716 184.935C285.066 177.953 288.357 171.905 293.528 167.246C297.385 163.77 302.776 160.868 307.953 160.11C318.616 158.545 328.941 160.074 337.842 166.423C345.23 171.693 351.452 180.73 352.86 189.777C354.221 198.516 353.361 204.129 348.03 211.329C343.899 216.908 336.577 224.401 329.463 225.534C328.436 225.698 326.755 225.734 325.74 225.528C328.138 222.817 331.791 221.181 334.42 218.555C338.894 214.085 342.972 208.206 343.001 201.718C343.037 193.812 339.919 186.548 334.322 180.947C327.621 174.242 319.672 171.107 310.178 171.16C302.41 171.204 295.085 173.654 289.545 179.262C287.887 180.942 286.715 182.944 285.04 184.614L284.716 184.935Z" fill="#EC820B"/>
<path d="M180.436 333.463C186.102 330.492 191.422 329.325 197.705 331.316C201.912 332.65 205.143 335.402 207.139 339.32C209.85 344.641 210.185 351.248 208.298 356.909C204.141 369.388 193.92 378.842 183.821 386.736C180.513 389.322 176.849 392.269 173.088 394.165C171.378 395.027 168.883 395.298 167.054 394.65C164.784 393.846 162.368 391.597 160.481 390.119C150.237 382.094 140.749 372.788 133.173 362.192L128.977 354.824C131.99 353.638 135.091 352.761 138.29 352.262L138.582 352.208C139.366 354.548 140.643 356.631 141.802 358.799C148.29 367.781 157.1 377.174 166.538 383.135C167.842 383.959 169.048 384.315 170.582 383.941C172.679 383.43 174.719 381.809 176.474 380.605C184.047 375.407 192.017 368.618 196.55 360.506C199.293 355.6 200.857 350.573 199.259 345.022C198.386 341.991 196.594 338.625 193.703 337.083L192.109 336.179C191.975 335.821 191.86 335.511 191.629 335.201C191.098 334.484 190.228 333.518 189.297 333.385C186.481 332.983 184.871 334.208 182.758 335.783C182.029 334.802 181.53 334.306 180.382 333.859L180.436 333.463Z" fill="#C6C897"/>
<path d="M269.323 397.917C263.322 392.781 258.521 387.474 255.255 380.185C250.65 369.903 250.294 357.58 254.418 347.058C258.214 337.372 265.251 329.212 274.941 325.1C285.764 320.507 298.375 321.278 309.113 325.68L309.296 326.443C297.387 324.348 287.427 324.683 277.111 331.987C268.965 337.757 263.194 346.91 261.655 356.798C260.072 366.966 262.563 377.362 268.75 385.584C274.869 393.713 284.06 398.986 294.117 400.347C303.871 401.67 313.087 398.822 321.118 393.345C324.162 393.459 327.202 393.777 329.996 392.437C322.862 401.097 315.582 407.326 303.948 408.422C291.566 409.589 279.304 404.955 269.323 397.917Z" fill="#FEF1DD"/>
<path d="M192.109 336.179L193.703 337.082C196.594 338.625 198.386 341.991 199.259 345.021C200.857 350.573 199.293 355.599 196.55 360.506C192.017 368.618 184.047 375.406 176.474 380.604C174.719 381.809 172.679 383.429 170.582 383.94C169.048 384.314 167.842 383.959 166.538 383.135C157.1 377.173 148.29 367.781 141.802 358.798C140.643 356.631 139.366 354.548 138.582 352.207C146.817 351.018 155.258 350.937 163.423 352.726L173.75 355.514C174.985 355.872 177.13 356.735 178.362 356.632C180.083 356.489 182.52 354.691 183.494 353.401C183.843 352.938 183.744 352.422 183.766 351.857L185.672 350.294C189.549 346.802 191.844 341.328 192.109 336.179Z" fill="#AAE3E8"/>
<path d="M284.716 184.935L285.04 184.614C286.715 182.944 287.887 180.942 289.545 179.262C295.084 173.654 302.41 171.203 310.178 171.16C319.672 171.107 327.621 174.242 334.321 180.946C339.919 186.548 343.037 193.812 343.001 201.718C342.971 208.206 338.893 214.085 334.42 218.555C331.791 221.181 328.138 222.817 325.74 225.528C322.103 226.316 318.558 226.763 314.902 225.777C303.441 222.689 293.479 213.226 287.682 203.088C284.338 197.238 282.913 191.536 284.716 184.935Z" fill="#EC740C"/>
<path d="M111.813 325.149C114.999 322.555 118.136 319.954 121.74 317.943C129.201 313.778 137.356 312.776 145.743 313.628C156.335 314.706 171.14 321.779 177.892 330.09L180.436 333.463L180.382 333.859C181.53 334.306 182.029 334.802 182.758 335.783C184.871 334.208 186.481 332.983 189.297 333.385C190.228 333.518 191.098 334.484 191.629 335.201C191.86 335.511 191.975 335.821 192.109 336.179C191.844 341.329 189.549 346.803 185.672 350.294L183.766 351.857C183.744 352.423 183.843 352.938 183.494 353.401C182.52 354.691 180.083 356.489 178.362 356.633C177.13 356.736 174.985 355.872 173.75 355.514L163.423 352.727C155.258 350.938 146.817 351.019 138.582 352.208L138.29 352.262C135.091 352.761 131.99 353.638 128.977 354.824C127.298 349.412 126.364 344.358 128.335 338.853C124.451 340.83 120.725 342.843 117.84 346.212C116.411 347.881 115.182 349.744 113.54 351.215C113.352 346.238 113.255 340.707 112.204 335.849C110.405 336.159 108.261 337.483 106.507 338.172C108.134 335.967 110.142 334.568 112.295 332.907L112.036 330.947C108.421 332.729 105.284 335.975 101.971 338.325C103.11 336.338 104.206 334.082 105.608 332.273C107.499 329.833 109.823 327.549 111.813 325.149Z" fill="#361614"/>
<path d="M125.544 325.827C131.034 324.273 138.867 325.308 144.112 327.34C141.063 327.69 138.275 327.316 135.246 327.251C132.208 327.184 129.216 327.449 126.205 327.82C126.144 327.298 125.936 327.139 125.634 326.723L126.05 326.358L125.544 325.827Z" fill="#EC820B"/>
<path d="M112.037 330.947C114.496 327.96 121.853 326.498 125.544 325.827L126.049 326.358L125.633 326.723C125.935 327.139 126.144 327.298 126.205 327.82C123.253 328.385 120.381 329.099 117.639 330.358C116.052 331.087 113.962 332.534 112.295 332.907L112.037 330.947Z" fill="#F2990D"/>
<path d="M138.79 330.063C140.638 329.081 142.539 328.584 144.573 328.136C148.413 327.288 153.924 329.195 157.042 331.338C158.329 332.221 159.618 333.332 160.679 334.479C159.663 334.995 158.952 335.401 157.795 335.347C155.789 333.87 151.297 333.405 148.842 333.377C147.864 332.903 146.79 332.587 145.764 332.229C144.542 331.825 143.124 331.821 141.844 331.708C140.818 330.911 140.086 330.356 138.79 330.063Z" fill="#7F979A"/>
<path d="M112.204 335.848C112.328 335.489 112.435 335.46 112.748 335.235C114.151 334.222 116.243 333.634 117.88 333.087C123.409 331.243 131.317 329.554 137.175 330.518C133.851 332.779 131.281 334.909 128.952 338.254L128.336 338.853C124.451 340.83 120.725 342.843 117.84 346.212C116.411 347.88 115.182 349.744 113.54 351.215C113.352 346.238 113.255 340.707 112.204 335.848Z" fill="#F2990D"/>
<path d="M138.79 330.063C140.086 330.356 140.818 330.911 141.844 331.709C143.124 331.821 144.542 331.826 145.764 332.229C146.79 332.588 147.864 332.904 148.842 333.378L149.962 336.22C148.564 341.301 144.024 348.012 139.445 350.829C138.97 351.122 138.582 351.228 138.037 351.302L138.29 352.262C135.091 352.761 131.99 353.638 128.977 354.824C127.298 349.412 126.364 344.358 128.336 338.853L128.952 338.255C131.281 334.909 133.851 332.779 137.175 330.518L138.79 330.063Z" fill="#FEFEFD"/>
<path d="M138.79 330.063C140.086 330.356 140.818 330.911 141.844 331.709C143.125 331.821 144.542 331.826 145.765 332.229C142.419 332.161 138.989 332.281 136.429 334.713C135.628 335.475 135.022 336.235 134.634 337.278C134.132 337.159 133.819 336.955 133.341 337.175C131.917 337.825 130.485 338.022 128.952 338.255C131.281 334.909 133.851 332.779 137.175 330.518L138.79 330.063Z" fill="#C6C897"/>
<path d="M128.952 338.254C130.485 338.022 131.917 337.824 133.34 337.175C133.819 336.955 134.132 337.159 134.634 337.277C134.108 340.805 133.79 346.109 135.948 349.217C136.494 350.004 137.242 350.771 138.037 351.302L138.29 352.262C135.091 352.761 131.99 353.638 128.977 354.824C127.298 349.412 126.364 344.358 128.336 338.853L128.952 338.254Z" fill="#7F979A"/>
<path d="M182.758 335.783C184.871 334.208 186.481 332.983 189.297 333.385C190.229 333.518 191.098 334.484 191.63 335.2C191.86 335.511 191.975 335.821 192.109 336.179C191.845 341.329 189.549 346.802 185.672 350.294L183.766 351.857C183.745 352.423 183.843 352.938 183.494 353.401C182.52 354.691 180.083 356.489 178.362 356.633C177.13 356.735 174.986 355.872 173.75 355.514L163.423 352.726C155.258 350.938 146.817 351.019 138.582 352.208L138.29 352.262L138.038 351.302C138.582 351.227 138.971 351.121 139.445 350.829C144.024 348.011 148.564 341.301 149.962 336.219L148.842 333.377C151.297 333.405 155.789 333.87 157.795 335.347C158.953 335.401 159.663 334.995 160.679 334.479C163.587 337.658 166.239 340.892 168.198 344.764C168.751 345.858 168.946 347.05 169.483 348.149L170.046 348.055C171.342 342.245 175.913 337.482 180.382 333.859C181.53 334.306 182.029 334.802 182.758 335.783Z" fill="#72CCD4"/>
<path d="M148.842 333.377C151.297 333.405 155.789 333.87 157.795 335.347L159.071 336.752L158.717 337.531C155.55 338.094 152.964 335.931 149.962 336.219L148.842 333.377Z" fill="#AAE3E8"/>
<path d="M182.758 335.783C184.871 334.208 186.481 332.983 189.297 333.385C190.229 333.518 191.098 334.484 191.63 335.2C191.86 335.511 191.976 335.821 192.11 336.179C191.845 341.329 189.549 346.802 185.672 350.294L183.767 351.857C182.818 352.304 181.85 352.781 180.8 352.93C179.523 353.113 178.464 353.16 177.448 352.34C176.427 346.735 179.72 340.275 182.758 335.783Z" fill="#FEFEFD"/>
<path d="M195.121 178.471L195.435 178.609C198.191 179.801 201.719 180.045 203.692 182.639C211.134 186.899 216.322 193.208 218.537 201.584C219.527 205.325 219.871 209.845 218.701 213.579L218.537 214.126C216.884 219.484 212.995 224.143 208.033 226.759C205.238 228.231 202.269 229.137 199.279 230.109C191.461 232.655 181.793 235.089 173.602 233.21C170.094 233.514 167.264 232.611 164.18 230.963C157.377 227.323 154.202 220.268 154.258 212.787C154.275 210.558 154.951 207.931 154.232 205.796L154.053 205.299L154.241 201.812C156.506 199.479 158.298 197.027 160.025 194.284C163.351 195.166 167.785 194.387 171.202 194.033L171.925 193.79C179.91 192.734 186.587 187.723 192.042 182.151L192.469 181.846L194.872 178.404L195.121 178.471Z" fill="#EC820B"/>
<path d="M195.121 178.471L195.435 178.609C198.191 179.801 201.719 180.045 203.692 182.639C200.074 183.042 196.195 181.875 192.469 181.846L194.872 178.404L195.121 178.471Z" fill="#F2990D"/>
<path d="M160.025 194.284C163.351 195.166 167.785 194.387 171.202 194.033C166.321 201.846 162.536 211.399 164.698 220.79C165.852 225.81 169.388 230.328 173.602 233.209C170.094 233.513 167.264 232.611 164.18 230.963C157.377 227.323 154.202 220.268 154.258 212.787C154.275 210.557 154.951 207.93 154.232 205.796L154.053 205.299L154.241 201.811C156.506 199.479 158.298 197.026 160.025 194.284Z" fill="#F2990D"/>
<path d="M321.118 393.345C313.087 398.822 303.871 401.671 294.116 400.348C284.059 398.986 274.869 393.713 268.749 385.584C262.563 377.362 260.071 366.966 261.655 356.798C263.194 346.91 268.964 337.757 277.111 331.988C287.427 324.683 297.387 324.348 309.295 326.444C318.644 328.273 327.212 335.744 332.42 343.541L333.82 345.741C335.396 348.303 336.816 350.743 337.575 353.674C337.198 354.891 337.132 355.525 337.413 356.762C337.673 357.904 337.921 359.824 337.756 360.96L336.176 362.613C337.011 369.303 333.851 378.164 330.317 383.74C331.663 383.754 331.624 383.891 332.592 384.86C332.785 386.271 332.451 387.725 332.721 389.098C332.225 390.603 331.141 391.424 329.995 392.437C327.202 393.777 324.161 393.459 321.118 393.345Z" fill="#361614"/>
<path d="M333.82 345.741C335.397 348.303 336.816 350.743 337.575 353.674C337.198 354.891 337.132 355.525 337.413 356.762C337.673 357.904 337.921 359.824 337.756 360.96L336.176 362.613C335.886 359.395 335.434 356.162 334.672 353.015C334.3 351.474 333.369 350.028 333.224 348.424C333.137 347.454 333.461 346.631 333.82 345.741Z" fill="#643134"/>
<path d="M331.643 368.384C331.14 373.004 329.673 378.02 326.675 381.642C324.184 380.919 321.79 380.899 319.224 380.854C320.543 380.435 322.046 380.502 323.423 380.443C325 378.712 326.314 376.904 327.232 374.732C327.825 373.328 328.039 371.647 329.056 370.482L329.477 369.969L329.68 369.693L329.99 369.279L329.14 368.574L331.643 368.384Z" fill="#754A16"/>
<path d="M312.426 388.414C313.707 389.869 314.876 390.87 316.535 391.875C315.613 392.571 314.667 393.011 313.634 393.517C311.86 394.388 310.025 395.069 308.11 395.572C299.904 397.73 288.991 396.773 281.657 392.169C280.447 391.409 279.788 390.934 279.517 389.534L279.904 389.126C283.366 390.743 286.129 392.152 289.947 392.856C295.628 393.902 301.037 393.464 306.558 391.787C307.631 391.46 308.939 391.265 309.849 390.602L310.29 390.271C311.242 389.743 311.513 389.598 312.202 388.709L312.426 388.414Z" fill="url(#paint4_linear_315_14511)"/>
<path d="M319.223 380.854C321.79 380.899 324.183 380.919 326.675 381.642L330.317 383.74C331.663 383.754 331.624 383.891 332.592 384.86C332.785 386.272 332.452 387.725 332.721 389.098C332.226 390.603 331.141 391.424 329.996 392.437C327.202 393.777 324.162 393.459 321.118 393.346L316.535 391.875C314.876 390.87 313.707 389.869 312.426 388.414C312.295 388.109 312.288 388.113 312.189 387.733C311.892 386.58 311.762 385.323 312.432 384.276C313.885 382.002 316.752 381.298 319.223 380.854Z" fill="#FEFEFD"/>
<path d="M279.763 361.31C276.606 363.361 271.402 368.775 267.671 368.384C266.594 367.402 266.311 366.806 266.074 365.383C264.823 357.843 267.595 349.129 271.908 342.991C276.69 336.188 284.8 330.786 293.048 329.412C302.262 327.877 310.679 329.817 318.287 335.303C325.234 340.313 330.56 348.508 331.889 357.008C332.483 360.81 332.433 364.621 331.643 368.384L329.14 368.574C327.164 368.621 324.919 366.623 323.342 365.511C318.87 362.354 314.614 358.515 309.612 356.221C308.527 361.718 306.146 366.871 301.33 370.082C298.573 371.921 295.235 372.666 291.98 372.088C287.86 371.357 284.803 369.197 282.341 365.824C281.309 364.409 280.528 362.881 279.763 361.31Z" fill="#955423"/>
<path d="M279.763 361.31C278.793 357.613 277.982 354.551 278.16 350.676C278.414 345.157 280.915 339.71 285.026 336.025C287.726 333.605 291.055 332.192 294.724 332.424C298.78 332.679 302.163 334.711 304.805 337.739C309.411 343.019 310.081 349.534 309.612 356.221C308.527 361.718 306.146 366.871 301.33 370.082C298.573 371.921 295.235 372.666 291.98 372.088C287.86 371.357 284.803 369.197 282.341 365.824C281.309 364.409 280.528 362.881 279.763 361.31Z" fill="#FEFEFD"/>
<defs>
<linearGradient id="paint0_linear_315_14511" x1="220.06" y1="471.103" x2="213.958" y2="564.172" gradientUnits="userSpaceOnUse">
<stop stop-color="#C7510B"/>
<stop offset="1" stop-color="#FF8C12"/>
</linearGradient>
<linearGradient id="paint1_linear_315_14511" x1="273.534" y1="474.908" x2="288.414" y2="564.8" gradientUnits="userSpaceOnUse">
<stop stop-color="#CA530B"/>
<stop offset="1" stop-color="#FF8F12"/>
</linearGradient>
<linearGradient id="paint2_linear_315_14511" x1="297.44" y1="315.206" x2="426.65" y2="310.214" gradientUnits="userSpaceOnUse">
<stop stop-color="#F52B10"/>
<stop offset="1" stop-color="#F56C0F"/>
</linearGradient>
<linearGradient id="paint3_linear_315_14511" x1="360.702" y1="409.478" x2="152.918" y2="206.906" gradientUnits="userSpaceOnUse">
<stop stop-color="#F58412"/>
<stop offset="1" stop-color="#F5AE11"/>
</linearGradient>
<linearGradient id="paint4_linear_315_14511" x1="299.061" y1="397.206" x2="295.79" y2="385.528" gradientUnits="userSpaceOnUse">
<stop stop-color="#7D5114"/>
<stop offset="1" stop-color="#4D291F"/>
</linearGradient>
</defs>
</svg>
