<?xml version="1.0" encoding="utf-8" ?>
<svg xmlns="http://www.w3.org/2000/svg" xmlns:xlink="http://www.w3.org/1999/xlink" width="193" height="188">
	<path fill="#CFDFDF" d="M158.947 51.4127L159.722 50.875C159.856 49.8851 159.969 49.197 159.321 48.3547L157.976 46.875L158.125 46.5734C159.233 46.9208 160.11 47.5245 160.649 48.5783C161.232 49.7158 161.545 51.2154 161.445 52.4874C161.106 52.2679 160.615 51.8531 160.25 51.7144C159.726 51.5152 159.537 51.809 158.947 51.4127Z"/>
	<path fill="#CFDFDF" d="M125.217 23.8973C127.512 23.0617 129.52 23.1185 131.771 24.1923L132.702 24.7105L132.538 25.4708L132.028 25.7437C131.142 25.2073 129.94 24.7738 128.889 24.7974C127.87 24.8203 127.611 25.0202 126.955 25.7344L126.673 25.121L127.375 24.5L127.177 24.1749C126.67 24.3812 125.753 24.0299 125.217 23.8973Z"/>
	<path fill="#CFDFDF" d="M154.267 75.5442C156.24 75.2809 158.822 75.0711 160.488 76.3635C160.725 76.5477 160.87 76.7466 161.024 77L161.089 77.1034C161.71 78.1295 161.897 79.7085 162.084 80.8882L160.96 80.4434L160.959 79C160.444 78.0731 158.943 77.2744 158 76.769C157.2 76.3402 156.843 76.2588 155.989 76.5301C155.583 76.3626 155.391 75.9902 155.125 75.6463L154.267 75.5442Z"/>
	<path fill="#74CBD2" d="M161.307 83.5942C159.662 85.0216 157.881 85.993 155.625 85.9633C154.411 85.9472 153.175 85.3407 152.375 84.4324C151.038 82.9149 150.956 81.4521 151.042 79.5215C152.484 80.6386 154.38 81.9476 156.125 82.4878C157.721 82.9818 160.002 82.5509 161.307 83.5942Z"/>
	<path fill="#ABE4EB" d="M150.214 87.5019L150.403 87.5336C151.449 87.7163 152.666 88.0359 153.287 88.9824C154.043 90.1341 153.73 91.8631 153.479 93.125C152.843 93.8675 152.112 93.9736 151.204 94.1724C150.097 94.0099 149.423 93.6728 148.582 92.9313C147.838 91.3329 147.449 90.3318 148.02 88.625C148.723 88.0003 149.311 87.7461 150.214 87.5019Z"/>
	<path fill="#ABE4EB" d="M154.267 75.5442L155.125 75.6463C155.391 75.9902 155.583 76.3626 155.989 76.5301C156.843 76.2588 157.2 76.3402 158 76.769C158.943 77.2744 160.444 78.0731 160.959 79L160.96 80.4434L162.084 80.8882C161.875 81.8136 161.679 82.7165 161.307 83.5942C160.002 82.5509 157.721 82.9818 156.125 82.4878C154.38 81.9476 152.484 80.6386 151.042 79.5215L151.534 78.2207C152.083 76.9807 152.989 76.0261 154.267 75.5442ZM155.989 76.5301C155.608 77.2573 155.336 77.8951 155.584 78.7197C155.815 79.4886 156.277 80.0548 156.997 80.407C157.873 80.8353 159.686 80.9732 160.615 80.6092L160.96 80.4434L160.959 79C160.444 78.0731 158.943 77.2744 158 76.769C157.2 76.3402 156.843 76.2588 155.989 76.5301Z"/>
	<path fill="#F0660E" d="M107.762 145.226L115.655 143.594C116.641 143.269 118.086 143.337 119.16 143.187L113.42 166.853C114.676 167.563 116.088 168.229 116.999 169.375L117.207 170.125C116.702 170.73 116.322 170.921 115.5 170.988C114.511 171.068 113.226 170.79 112.212 170.736C110.444 170.642 108.306 170.968 106.64 170.375C105.676 169.024 106.629 164.89 106.903 163.256C107.934 157.111 109.467 151.454 107.762 145.226Z"/>
	<path fill="#EC790E" d="M155.252 123.122C157.909 123.883 160.863 123.848 163.325 122.467C165.641 121.168 167.603 119.084 168.314 116.5C168.793 114.757 168.924 112.524 168.003 110.897C166.72 108.629 162.314 106.135 163.041 103.245C163.304 102.201 163.878 101.627 164.771 101.125C166.246 101.126 167.481 102.494 168.462 103.477L171.142 106.3C172.159 105.234 173.512 103.656 174.998 103.255C176.204 104.127 178.236 105.476 178.475 107.021C178.746 108.771 179.167 111.218 178.328 112.819C177.213 113.853 175.767 114.563 174.415 115.241C174.289 119.698 173.297 123.342 169.964 126.499C166.582 129.703 162.035 130.687 157.502 130.536C153.457 130.4 150.212 128.919 146.473 127.624C146.383 127.447 146.298 127.281 146.258 127.085C146.074 126.199 145.512 126.028 145.632 125.056C146.178 123.812 146.961 123.32 147.624 122.124C148.355 121.732 148.452 121.846 149.249 122.076C150.637 123.191 152.586 124.396 154.375 124.623L154.622 124.25L154.155 123.842L155.252 123.122Z"/>
	<path fill="#F0660E" d="M171.259 107.625C171.603 107.504 172.034 107.689 172.375 107.781C173.39 108.747 173.711 110.082 174.135 111.375L173.44 111.875L173.002 112.045C172.465 112.222 171.88 112.439 171.344 112.169C171.368 110.762 170.92 108.903 171.259 107.625Z"/>
	<path fill="#F1410D" d="M65.6118 144.089L62.2432 146.604C61.7906 146.119 61.1972 145.38 60.6015 145.091C59.9553 144.777 59.2345 144.775 58.5684 144.539C57.5859 144.191 55.8386 143.142 55.1638 142.375C54.8486 141.554 55.0799 140.586 55.1866 139.735C52.7227 139.779 50.2458 139.772 47.8966 138.916C45.2005 137.933 42.4742 135.88 41.2535 133.221C40.0234 130.542 40.1444 127.584 41.1805 124.871C42.2211 122.145 44.3856 119.861 47.0603 118.673C52.6751 116.179 57.8157 117.372 63.307 119.475C64.6198 120.107 65.8019 120.815 66.9479 121.715C67.2021 123.075 67.3644 124.35 67.3679 125.735C66.3466 125.884 64.2837 125.653 63.4535 126.317L63.4807 132.303C63.441 132.759 63.3486 133.268 63.4253 133.721C63.9748 134.784 64.4534 134.803 65.261 135.548C66.5227 136.712 67.0263 138.538 67.5069 140.123C67.0373 141.584 66.4477 142.809 65.6118 144.089ZM63.4253 133.721C63.3486 133.268 63.441 132.759 63.4807 132.303L63.4535 126.317C61.6493 126.048 59.8628 125.462 58.1544 124.833C55.4578 123.84 52.9891 122.542 50.3632 124.535C48.854 125.681 48.1881 127.321 47.9903 129.161C47.9116 129.894 48.4617 130.602 48.9155 131.125C49.9496 132.317 51.5301 133.167 53.1126 133.268C56.4525 133.482 59.5751 133.639 62.875 134.295C63.0719 134.115 63.2831 133.948 63.4253 133.721Z"/>
	<path fill="#ABE4EB" d="M132.702 24.7105C133.252 19.9996 133.949 16.2052 137.907 13.0511C140.022 11.3658 142.468 11.036 145.099 11.3519C147.355 11.623 149.636 12.4243 151.103 14.2953C153.597 17.4776 154.74 21.8597 154.212 25.8695C153.958 27.7976 153.293 29.7524 152.695 31.598C154.98 32.1537 157.215 32.9292 158.488 35.0486C159.297 36.3953 160.564 38.8668 160.157 40.4576C159.736 42.1011 158.783 43.6213 157.994 45.1103C157.742 45.5851 157.613 46.1963 157.346 46.625C156.927 47.2967 156.396 47.6225 156.287 48.4731C156.24 48.8334 156.58 49.5445 156.766 49.875C157.314 50.8504 157.988 51.0108 158.947 51.4127C159.537 51.809 159.726 51.5152 160.25 51.7144C160.615 51.8531 161.106 52.2679 161.445 52.4874C160.82 54.4873 159.908 55.8433 158.643 57.4865C158.357 57.8576 157.504 58.7206 157.366 59.125C157.242 59.4892 157.7 59.8197 157.839 60.1785C158.744 62.5141 157.955 64.6788 155.728 65.8412C154.174 66.6529 153.037 65.8065 151.5 65.9606C150.203 66.0906 147.302 67.4894 146.293 68.3007L146.315 68.0625C146.674 66.7998 146.475 65.3773 146.845 64.0373C146.782 62.0831 146.767 60.3722 147.164 58.4444L144.485 56.9129C143.939 56.381 143.343 55.8131 142.934 55.1672C142.026 53.7322 141.883 51.6038 142.276 49.9865L142.304 49.875C141.83 49.288 141.009 49.295 140.279 49.1454L139.088 48.831C135.672 47.5115 133.644 44.5308 133.322 40.875C133.264 40.2141 133.544 39.1928 133.125 38.6704L131.299 38.5008L129.553 38.0611C127.313 38.0454 124.722 38.1577 122.684 37.0859C121.896 36.6717 121.45 36.3073 120.498 36.4005L120.994 36.225C121.586 35.3483 120.759 33.4485 120.575 32.3606C120.404 31.3457 120.376 30.1585 120.603 29.1511C121.164 26.665 123.199 25.1789 125.217 23.8973C125.753 24.0299 126.67 24.3812 127.177 24.1749L127.375 24.5L126.673 25.121L126.955 25.7344C127.611 25.0202 127.87 24.8203 128.889 24.7974C129.94 24.7738 131.142 25.2073 132.028 25.7437L132.538 25.4708L132.702 24.7105ZM143.209 12.625C142.937 13.4863 142.851 14.1317 143.312 14.9916C144.071 16.406 147.158 17.9208 148.67 18.3132C149.21 18.4534 149.617 18.443 150.121 18.164L150.375 17.9922C150.597 17.7266 150.918 17.4836 150.879 17.1267C150.764 16.0765 149.477 14.9219 148.668 14.3031C147.292 13.2498 145.303 12.2982 143.533 12.5437C143.414 12.5603 143.322 12.5868 143.209 12.625ZM126.955 25.7344C127.082 26.9553 127.518 27.5342 128.467 28.2942C129.232 28.9059 130.462 29.6282 131.487 29.4899C132.056 29.4131 132.495 29.0627 132.928 28.7126C133.119 27.6817 133.123 27.3115 132.503 26.4109L132.028 25.7437C131.142 25.2073 129.94 24.7738 128.889 24.7974C127.87 24.8203 127.611 25.0202 126.955 25.7344ZM154.181 33.125C153.886 33.9288 154.057 34.6167 154.401 35.375C154.893 36.4628 156.717 37.4203 157.816 37.8069C158.149 37.9239 158.397 37.9934 158.741 37.875C158.959 36.8913 158.593 36.454 158.05 35.625C157.486 34.763 155.772 33.232 154.708 33.0888C154.52 33.0636 154.362 33.0765 154.181 33.125Z"/>
	<path fill="#74CBD2" d="M129.553 38.0611C130.643 37.2983 131.862 36.7488 132.917 35.9765C136.503 33.3508 137.738 30.0436 139.214 26.0914C141.159 27.9397 142.909 29.1618 145.418 30.2053C146.129 30.5012 146.991 30.6303 147.258 31.375L147.198 31.4512C146.444 32.4306 146.68 33.3963 146.186 34.2034C146.162 34.2418 145.802 34.3179 145.745 34.3218C145.012 34.3716 144.124 34.0671 143.375 34.0044C141.655 33.8602 139.829 34.5348 138.625 35.7805C137.665 36.7733 137.007 38.3441 137.084 39.7361C137.175 41.3752 137.973 42.909 139.212 43.9766C141.478 45.9301 143.693 46.2216 146.548 46.5539C145.783 48.2985 145.142 49.8501 145.89 51.7326C146.447 53.1321 147.612 53.7469 148.897 54.3865C148.997 54.4362 149.796 54.7746 149.817 54.8177C149.899 54.98 149.826 55.7698 149.824 55.983C149.807 58.0989 149.306 60.0845 148.517 62.0481C148.201 62.8341 147.526 63.5392 146.845 64.0373C146.782 62.0831 146.767 60.3722 147.164 58.4444L144.485 56.9129C143.939 56.381 143.343 55.8131 142.934 55.1672C142.026 53.7322 141.883 51.6038 142.276 49.9865L142.304 49.875C141.83 49.288 141.009 49.295 140.279 49.1454L139.088 48.831C135.672 47.5115 133.644 44.5308 133.322 40.875C133.264 40.2141 133.544 39.1928 133.125 38.6704L131.299 38.5008L129.553 38.0611Z"/>
	<path fill="#F0660E" d="M63.307 119.475C63.3529 107.86 59.1527 96.2119 54.2694 85.8371C52.5278 82.1369 50.1643 78.5284 49.2487 74.5098C47.5574 67.0865 53.6201 62.9611 57.97 58.1524C59.7629 56.1703 61.2956 53.8836 62.7179 51.6242L63.8911 52.3125C64.3399 55.396 65.5955 58.2509 66.6594 61.1643L71.8556 74.6596C73.3891 78.3067 75.7113 82.9407 76.0365 86.8995C76.4334 91.7308 74.0702 97.2132 72.8908 101.891C72.4239 103.743 71.8647 106.185 72.127 108.081C72.3186 109.466 72.9882 110.707 73.625 111.933C74.3261 111.503 74.2795 110.523 75.1853 110.52C73.6568 114.206 73.4421 119.389 75.0061 123.121C76.2278 126.037 78.3466 128.877 81.3414 130.141C82.4602 130.613 83.7088 130.864 84.892 131.119C84.3464 131.471 84.0575 131.733 83.375 131.572C83.24 131.541 83.1233 131.48 82.9976 131.425C82.4792 131.196 81.8298 131.152 81.2715 131.076C81.0763 131.584 81.3182 131.981 81.3162 132.5C81.3135 133.209 81.0927 133.92 81.0908 134.638C81.0853 136.695 81.5018 138.75 82.3467 140.625C83.8339 143.924 86.9796 146.29 90.2937 147.552C90.9345 147.796 91.5932 147.885 92.2478 148.068C93.6939 148.472 95.5548 148.266 97.0599 148.259L91.5266 169.444L95.4856 173.236L92.5618 173.553C90.9396 173.628 86.1673 173.994 84.995 172.877C83.6997 171.641 86.1597 161.581 86.4012 159.809C86.6826 157.744 86.8401 155.583 86.7404 153.5C86.7043 152.746 86.7 149.335 86.3632 148.851C86.3288 148.801 86.0446 148.72 85.9855 148.708C84.6221 148.417 83.0399 148.431 81.633 148.279L74.2949 147.327C72.2945 147.08 70.349 146.892 68.4643 146.119C67.335 145.656 66.502 144.905 65.6118 144.089C66.4477 142.809 67.0373 141.584 67.5069 140.123C67.0263 138.538 66.5227 136.712 65.261 135.548C64.4534 134.803 63.9748 134.784 63.4253 133.721C63.3486 133.268 63.441 132.759 63.4807 132.303L63.4535 126.317C64.2837 125.653 66.3466 125.884 67.3679 125.735C67.3644 124.35 67.2021 123.075 66.9479 121.715C65.8019 120.815 64.6198 120.107 63.307 119.475Z"/>
	<path fill="#F1410D" d="M67.8015 99.875C68.3294 99.7585 68.6021 99.7481 69.125 99.9423C69.5064 100.744 69.3776 101 69.2097 101.875C68.5898 102.644 68.0747 103.105 67.2353 103.625C66.8983 103.731 66.4785 103.711 66.125 103.731L65.5885 103.196C65.516 102.523 65.3781 101.717 65.7462 101.106C66.2278 100.307 66.9367 100.071 67.8015 99.875Z"/>
	<path fill="#CE3710" d="M63.4535 126.317C64.2837 125.653 66.3466 125.884 67.3679 125.735C66.9814 127.654 66.6059 131.159 65.2857 132.65C65.0388 132.161 64.6702 131.626 64.8125 131.062C65.15 131.336 65.2644 131.519 65.3762 131.938L65.3775 131.375L65.4502 131.315C65.7567 131.048 65.9856 130.666 66.0154 130.252C66.0223 130.156 66.0115 130.102 66.0012 130.001L66.25 129.75L66.2344 129.656C66.1733 129.262 66.2675 128.957 66.2514 128.577C65.4315 128.286 64.9386 128.364 64.3728 127.662C64.3206 128.638 64.5077 130.827 64.1734 131.675C64.1195 131.812 63.6162 132.18 63.4807 132.303L63.4535 126.317Z"/>
	<path fill="#F1410D" d="M72.8411 129.051C73.1176 128.914 73.5635 129.03 73.875 129.059C74.8072 129.793 75.5921 130.524 75.9295 131.718C76.4482 133.553 76.7266 134.983 75.7677 136.688C74.9593 138.125 73.9089 138.656 72.375 139.089L71.6172 139.079C70.7755 138.997 69.8738 138.132 69.3787 137.503C68.0917 135.868 68.3483 133.346 68.5502 131.426C68.9729 130.882 69.6387 129.823 70.25 129.522C70.7973 129.253 72.2003 129.168 72.8411 129.051Z"/>
	<path fill="#F1410D" d="M62.6657 75.5326L63.625 75.5521C64.9008 76.5685 66.053 77.9407 66.9264 79.3119C67.9613 80.9369 68.4208 82.725 67.9725 84.6404C67.5836 86.3019 66.5907 88.1015 65.125 89.0088C64.7183 89.1833 64.139 89.3176 63.7227 89.1669C62.2686 88.6406 61.2856 86.3819 60.7236 85.0775C59.7698 82.8639 58.6985 79.424 59.7403 77.1002C60.1814 76.1162 61.7332 75.8649 62.6657 75.5326Z"/>
	<defs>
		<linearGradient id="gradient_0" gradientUnits="userSpaceOnUse" x1="68.113548" y1="124.06055" x2="146.02957" y2="57.09761">
			<stop offset="0" stop-color="#F68113"/>
			<stop offset="1" stop-color="#F5A711"/>
		</linearGradient>
	</defs>
	<path fill="url(#gradient_0)" d="M120.498 36.4005C121.45 36.3073 121.896 36.6717 122.684 37.0859C124.722 38.1577 127.313 38.0454 129.553 38.0611L131.299 38.5008L133.125 38.6704C133.544 39.1928 133.264 40.2141 133.322 40.875C133.644 44.5308 135.672 47.5115 139.088 48.831L140.279 49.1454C141.009 49.295 141.83 49.288 142.304 49.875L142.276 49.9865C141.883 51.6038 142.026 53.7322 142.934 55.1672C143.343 55.8131 143.939 56.381 144.485 56.9129L147.164 58.4444C146.767 60.3722 146.782 62.0831 146.845 64.0373C146.475 65.3773 146.674 66.7998 146.315 68.0625L146.293 68.3007C145.617 73.7231 144.865 79.4767 145.666 84.9288C146.292 89.1867 147.519 93.303 147.949 97.6211C148.187 100.011 147.316 102.585 148.409 104.686C150.62 109.25 150.937 112.702 149.28 117.5C149.074 118.098 148.566 118.992 148.573 119.605C149.765 120.114 150.781 120.719 151.847 121.456C152.966 122.158 153.997 122.705 155.252 123.122L154.155 123.842L154.622 124.25L154.375 124.623C152.586 124.396 150.637 123.191 149.249 122.076C148.452 121.846 148.355 121.732 147.624 122.124C146.961 123.32 146.178 123.812 145.632 125.056C145.512 126.028 146.074 126.199 146.258 127.085C146.298 127.281 146.383 127.447 146.473 127.624L146.428 127.749C146.071 128.79 146.736 130.32 146.97 131.374C147.638 134.392 146.741 137.631 143.845 139.128C141.817 140.176 138.716 140.134 136.474 140.356L125.319 141.878C123.316 142.194 121.008 142.341 119.16 143.187C118.086 143.337 116.641 143.269 115.655 143.594L107.762 145.226C104.607 145.435 99.7731 146.507 97.0599 148.259C95.5548 148.266 93.6939 148.472 92.2478 148.068C91.5932 147.885 90.9345 147.796 90.2937 147.552C86.9796 146.29 83.8339 143.924 82.3467 140.625C81.5018 138.75 81.0853 136.695 81.0908 134.638C81.0927 133.92 81.3135 133.209 81.3162 132.5C81.3182 131.981 81.0763 131.584 81.2715 131.076C81.8298 131.152 82.4792 131.196 82.9976 131.425C83.1233 131.48 83.24 131.541 83.375 131.572C84.0575 131.733 84.3464 131.471 84.892 131.119C83.7088 130.864 82.4602 130.613 81.3414 130.141C78.3466 128.877 76.2278 126.037 75.0061 123.121C73.4421 119.389 73.6568 114.206 75.1853 110.52C74.2795 110.523 74.3261 111.503 73.625 111.933C72.9882 110.707 72.3186 109.466 72.127 108.081C71.8647 106.185 72.4239 103.743 72.8908 101.891C74.0702 97.2132 76.4334 91.7308 76.0365 86.8995C75.7113 82.9407 73.3891 78.3067 71.8556 74.6596L66.6594 61.1643C65.5955 58.2509 64.3399 55.396 63.8911 52.3125L62.7179 51.6242L65.8494 46.5988C67.0874 44.8444 68.9467 43.377 71.0661 42.884C73.5559 42.3049 76.7139 42.6082 79.2825 42.579C83.775 42.5279 88.2314 42.4643 92.7007 41.9596C102.037 40.9054 111.226 38.0168 120.498 36.4005Z"/>
	<path fill="#EC790E" d="M118.277 120.125L118.618 120.129L118.689 120.522C118.913 122.355 118.312 125.307 117.124 126.708C116.316 127.661 115.892 127.826 114.625 127.929L114.133 127.758L114.052 127.375L114.954 126.858C117.208 125.275 117.823 122.659 118.277 120.125Z"/>
	<defs>
		<linearGradient id="gradient_1" gradientUnits="userSpaceOnUse" x1="103.35281" y1="84.560646" x2="101.78501" y2="82.341965">
			<stop offset="0" stop-color="#210000"/>
			<stop offset="1" stop-color="#090200"/>
		</linearGradient>
	</defs>
	<path fill="url(#gradient_1)" d="M102.739 82.01C103.353 81.9514 103.802 82.1506 104.36 82.375C104.78 82.8117 105.122 83.1545 105.253 83.7628C105.323 84.0901 105.17 84.1919 104.994 84.4596C103.352 84.9018 101.283 84.2741 99.5282 84.3472L96.1756 85.1169C97.928 83.6762 100.602 82.755 102.739 82.01Z"/>
	<path fill="#FDE5AF" d="M98.1493 105.824C99.4184 106.077 99.9826 106.553 100.681 107.625C102.459 110.351 103.156 114.625 102.727 117.825C102.331 117.873 101.803 117.678 101.409 117.589C101.626 115.773 101.65 113.727 101.277 111.934C100.88 109.521 99.7162 107.658 98.1493 105.824Z"/>
	<path fill="#43240E" d="M126.702 99.5306L127.395 98.9857C130.152 97.0895 133.25 96.1264 136.554 96.7291L134.619 96.9121L134.762 97.9947C134.177 98.2889 133.574 98.6376 132.947 98.8282C132.132 98.9005 131.54 99.0257 130.809 99.3993C129.277 99.3477 128.621 99.5528 127.37 100.5C127.198 100.156 126.929 99.8411 126.702 99.5306Z"/>
	<path fill="#F0660E" d="M125.17 130.875C125.788 130.79 125.932 130.72 126.489 131.052C126.735 131.322 126.894 131.592 126.943 131.96C127.103 133.154 127.114 134.8 126.375 135.771L125.427 135.875C124.943 135.811 124.593 135.52 124.261 135.179C123.494 134.389 123.44 133.535 123.47 132.5C123.829 131.648 124.416 131.327 125.17 130.875Z"/>
	<path fill="#F0660E" d="M84.0299 78.375C84.4181 78.3086 84.8566 78.2148 85.25 78.2348C85.916 78.2688 86.2441 78.6018 86.6817 79.0423C86.7631 79.6583 86.8479 80.1942 86.5876 80.7789C86.215 81.6157 85.8892 81.9851 85.125 82.5062C84.2561 82.5001 83.935 82.5618 83.2337 81.9966C82.5015 81.4065 82.3414 80.8664 82.2202 80C82.5797 79.1061 83.2311 78.8134 84.0299 78.375Z"/>
	<path fill="#391714" d="M117.742 80.0285C119.725 80.1207 120.979 80.575 122.678 81.5641L125.537 83.453C124.316 83.2836 123.168 82.8268 121.925 82.7066C120.163 82.5363 117.806 83.5965 116.299 82.4977L116.242 81.625C116.627 80.8081 116.936 80.4457 117.742 80.0285Z"/>
	<path fill="#EC790E" d="M119.914 47.375C120.278 47.2441 120.739 47.2695 121.125 47.2498C122.234 47.8499 122.631 48.9871 123.187 50.0619C122.667 51.247 122.235 52.1486 121.377 53.125L120.375 53.2764C119.839 53.057 119.461 52.7832 119.091 52.3308C118.407 51.4943 118.374 50.4622 118.491 49.4303C118.597 48.4976 119.213 47.9282 119.914 47.375Z"/>
	<path fill="#EC790E" d="M117.742 80.0285C118.505 78.3986 119.086 76.1628 121 75.4798C121.646 75.2493 121.989 75.4078 122.558 75.694C123.513 77.0628 123.223 79.1507 122.933 80.7205L122.678 81.5641C120.979 80.575 119.725 80.1207 117.742 80.0285Z"/>
	<path fill="#9E9810" d="M131.299 38.5008L133.125 38.6704C133.544 39.1928 133.264 40.2141 133.322 40.875C133.644 44.5308 135.672 47.5115 139.088 48.831C137.495 48.7048 135.449 48.3575 134.176 47.3195C132.254 45.7516 131.391 43.569 131.266 41.125C131.221 40.2395 131.391 39.4118 131.299 38.5008Z"/>
	<path fill="#391714" d="M79.6506 105.745C81.352 103.69 84.6641 102.373 87.2238 101.915C89.8869 101.439 93.1725 102.28 95.3932 103.82L95.4373 104.777C94.7995 104.856 94.3541 104.936 93.8107 105.294L93.7364 105.255C92.5591 104.642 91.5888 104.221 90.2769 103.968C89.7861 103.729 89.3267 103.491 88.875 103.181C85.3956 103.4 82.8804 104.218 80.5052 106.885C79.2124 108.337 78.6602 109.87 78.0019 111.655C77.2605 111.44 77.1866 111.353 76.7214 110.742C77.3313 108.892 78.5425 107.32 79.6506 105.745Z"/>
	<path fill="#391714" d="M115.873 110.125C116.07 110.593 115.477 111.714 115.361 112.254C115.164 113.17 115.466 114.223 115.513 115.152C115.586 116.61 115.648 118.106 114.625 119.231L114.139 119.165C111.93 118.727 110.493 115.959 109.329 114.233C108.391 112.779 107.724 111.211 107.029 109.632C108.696 110.974 110.413 112.858 112.5 113.453C113.959 112.903 114.938 111.317 115.873 110.125Z"/>
	<path fill="#9E9810" d="M140.279 49.1454C141.009 49.295 141.83 49.288 142.304 49.875L142.276 49.9865C141.883 51.6038 142.026 53.7322 142.934 55.1672C143.343 55.8131 143.939 56.381 144.485 56.9129L147.164 58.4444C146.767 60.3722 146.782 62.0831 146.845 64.0373C146.475 65.3773 146.674 66.7998 146.315 68.0625C145.36 67.4907 144.549 67.8167 143.803 66.875C143.766 66.1266 143.594 65.0835 143.826 64.3747C144.255 63.0617 144.006 61.4746 144.201 60.1078C144.319 59.2825 144.788 59.0576 144.612 58.125L142.636 57.1104C142.049 56.5906 141.449 56.0621 140.989 55.4225C139.632 53.5331 139.925 51.31 140.279 49.1454Z"/>
	<path fill="#935222" d="M78.0019 111.655C78.6602 109.87 79.2124 108.337 80.5052 106.885C82.8804 104.218 85.3956 103.4 88.875 103.181C89.3267 103.491 89.7861 103.729 90.2769 103.968C88.0768 104.88 86.8004 105.591 85.8621 107.894C85.1762 109.578 84.9722 110.864 85.2169 112.67L78.6587 117.106L77.881 117.265C77.8731 117.086 77.8867 117.143 77.8453 116.994C77.3146 115.085 77.4787 113.549 78.0019 111.655Z"/>
	<path fill="#F0660E" d="M97.6019 89.0781C98.7211 88.7591 100.567 88.9056 101.618 89.4171L101.75 89.4829C102.025 89.6168 102.262 89.7482 102.499 89.9443C103.718 90.9504 104.764 91.9948 104.889 93.6677C104.963 94.6442 104.903 96.015 104.227 96.7739L104.134 96.875C103.422 97.6647 102.644 97.9329 101.666 98.2524C100.077 98.2808 98.0031 98.422 96.6239 97.4875C95.2339 96.5457 94.1734 95.1216 93.8924 93.4609C93.7226 92.4576 93.8136 91.0092 94.4525 90.1782C95.2061 89.1979 96.4685 89.2087 97.6019 89.0781Z"/>
	<path fill="#EC790E" d="M82.6963 66.3178C81.5102 65.3162 80.7722 64.3886 79.9263 63.0921C79.8908 60.991 79.9968 59.0897 80.6551 57.0701C81.3978 54.7913 83.4396 52.4077 85.5959 51.3458C88.2666 50.0306 92.231 49.6626 95.0542 50.6644C97.0889 51.3864 98.2155 52.4547 99.1365 54.3971C94.5319 53.9339 90.3982 52.4813 86.3173 55.762C84.3352 57.3554 82.8627 60.2304 82.6081 62.7428C82.4847 63.9605 82.8156 65.0897 82.6963 66.3178Z"/>
	<path fill="#F0660E" d="M103.799 130.041C104.381 129.963 105.035 130.015 105.625 130.01C106.074 130.2 106.362 130.399 106.626 130.814C107.811 132.676 107.598 134.702 107.117 136.747C106.834 137.948 105.901 139.633 104.772 140.256C103.714 140.84 102.316 140.766 101.191 140.487C100.157 140.24 98.9535 139.885 98.0406 139.331C97.2726 138.865 96.8016 138.398 96.5927 137.522C96.3655 136.568 96.5272 135.635 97.0608 134.81C98.6794 132.309 100.919 130.636 103.799 130.041Z"/>
	<path fill="#935222" d="M136.554 96.7291C138.631 97.2359 141.214 98.063 142.658 99.7155C143.165 100.293 144.186 101.764 144.824 102.059C146.959 105.312 147.335 108.452 146.893 112.266C146.824 112.125 146.861 112.168 146.752 112.067C146.189 111.549 145.851 111.279 145.723 110.5L145.321 111.375L144.884 111.525C143.465 110.7 142.16 109.705 140.805 108.78C140.36 108.477 139.781 108.301 139.375 107.985C138.941 107.647 138.859 107.212 138.293 107.003C138.307 105.136 138.085 103.317 137.07 101.703C136.132 100.21 134.669 99.2202 132.947 98.8282C133.574 98.6376 134.177 98.2889 134.762 97.9947L134.619 96.9121L136.554 96.7291Z"/>
	<path fill="#391714" d="M136.554 96.7291C138.631 97.2359 141.214 98.063 142.658 99.7155L142.078 100.678C140.006 98.5218 137.585 98.266 134.762 97.9947L134.619 96.9121L136.554 96.7291Z"/>
	<path fill="#43240E" d="M142.658 99.7155C143.165 100.293 144.186 101.764 144.824 102.059C146.959 105.312 147.335 108.452 146.893 112.266C146.824 112.125 146.861 112.168 146.752 112.067C146.189 111.549 145.851 111.279 145.723 110.5C145.936 106.23 144.847 103.837 142.078 100.678L142.658 99.7155Z"/>
	<path fill="#FBF0DC" d="M75.1853 110.52C75.9281 109.142 76.8695 107.72 77.9257 106.563C78.4595 105.978 78.8629 105.779 79.6506 105.745C78.5425 107.32 77.3313 108.892 76.7214 110.742C77.1866 111.353 77.2605 111.44 78.0019 111.655C77.4787 113.549 77.3146 115.085 77.8453 116.994C77.8867 117.143 77.8731 117.086 77.881 117.265C77.7817 118.662 78.9551 119.743 79.7662 120.782L81.951 120.665C83.0847 120.965 83.6924 121.19 84.4631 122.125C84.5719 122.602 84.6324 122.923 84.491 123.411C85.5844 124.031 86.4344 124.238 87.5899 124.633C89.3206 125.223 91.969 124.282 93.625 125.141C93.9259 125.296 94.3891 125.852 94.653 126.098C98.3572 123.968 100.199 121.73 101.409 117.589C101.803 117.678 102.331 117.873 102.727 117.825C101.23 122.836 99.3541 126.323 94.5404 128.931C92.6443 129.958 90.602 130.604 88.4647 130.875C87.903 130.946 85.1221 130.936 84.892 131.119C83.7088 130.864 82.4602 130.613 81.3414 130.141C78.3466 128.877 76.2278 126.037 75.0061 123.121C73.4421 119.389 73.6568 114.206 75.1853 110.52Z"/>
	<path fill="#43240E" d="M79.7662 120.782C79.3627 121.021 79.0087 121.348 78.6481 121.647L78.125 121.483C75.8192 118.127 76.1195 114.602 76.7214 110.742C77.1866 111.353 77.2605 111.44 78.0019 111.655C77.4787 113.549 77.3146 115.085 77.8453 116.994C77.8867 117.143 77.8731 117.086 77.881 117.265C77.7817 118.662 78.9551 119.743 79.7662 120.782Z"/>
	<defs>
		<linearGradient id="gradient_2" gradientUnits="userSpaceOnUse" x1="89.413864" y1="127.83097" x2="87.081085" y2="122.90837">
			<stop offset="0" stop-color="#4F2E21"/>
			<stop offset="1" stop-color="#5E4431"/>
		</linearGradient>
	</defs>
	<path fill="url(#gradient_2)" d="M84.491 123.411C85.5844 124.031 86.4344 124.238 87.5899 124.633C89.3206 125.223 91.969 124.282 93.625 125.141C93.9259 125.296 94.3891 125.852 94.653 126.098L93.6232 126.583C88.7308 128.621 85.9184 127.294 81.2749 125.392C82.4017 124.867 83.5813 124.408 84.4353 123.473L84.491 123.411Z"/>
	<path fill="#FBF0DC" d="M138.165 125.816L136.016 125.764C131.56 125.6 127.6 123.598 124.594 120.329C121.673 117.153 120.553 113.55 120.749 109.251C120.876 106.461 121.427 103.585 123.557 101.625L124.392 101.737C122.427 105.121 120.98 108.502 122.082 112.532C122.871 115.418 124.931 118.689 127.586 120.185C127.85 120.334 128.968 120.945 129.199 120.891L130.08 120.755L130.146 120.804C130.627 121.143 131.414 121.169 132 121.5L132.671 121.367L132.677 121.347C134.025 121.206 135.891 121.226 137.147 120.788C137.759 120.574 138.123 119.999 138.838 119.806L138.971 119.774L138.5 119.706L138.272 119.358L138.997 118.515C138.756 117.768 138.706 117.368 138.977 116.625C139.788 115.931 140.697 115.737 141.704 115.468C142.924 115.625 143.901 115.733 144.933 116.454L145.232 116.301C146.336 115.599 146.657 113.439 146.893 112.266C147.335 108.452 146.959 105.312 144.824 102.059C145.855 102.207 146.235 102.23 146.892 103.125L147.683 104.521L148.409 104.686C150.62 109.25 150.937 112.702 149.28 117.5C149.074 118.098 148.566 118.992 148.573 119.605C149.765 120.114 150.781 120.719 151.847 121.456C152.966 122.158 153.997 122.705 155.252 123.122L154.155 123.842L154.622 124.25L154.375 124.623C152.586 124.396 150.637 123.191 149.249 122.076C148.452 121.846 148.355 121.732 147.624 122.124C146.961 123.32 146.178 123.812 145.632 125.056L145.251 124.249L144.625 124.122C143.876 124.746 143.047 125.353 142.108 125.655C141.573 125.827 141.056 125.714 140.582 126.066C140.417 126.189 140.196 126.194 139.999 126.227C139.433 126.324 138.951 126.395 138.373 126.375L138.125 126.589L138.054 126.542C137.402 126.154 136.64 126.637 136.127 126.125C136.712 125.737 137.468 125.841 138.165 125.816Z"/>
	<defs>
		<linearGradient id="gradient_3" gradientUnits="userSpaceOnUse" x1="135.89915" y1="122.24892" x2="136.74306" y2="119.54548">
			<stop offset="0" stop-color="#48261B"/>
			<stop offset="1" stop-color="#594324"/>
		</linearGradient>
	</defs>
	<path fill="url(#gradient_3)" d="M138.997 118.515C139.925 119.08 141.013 119.541 142.054 119.854C140.563 121.352 136.575 122.438 134.43 122.439C132.855 122.439 130.445 121.861 129.199 120.891L130.08 120.755L130.146 120.804C130.627 121.143 131.414 121.169 132 121.5L132.671 121.367L132.677 121.347C134.025 121.206 135.891 121.226 137.147 120.788C137.759 120.574 138.123 119.999 138.838 119.806L138.971 119.774L138.5 119.706L138.272 119.358L138.997 118.515Z"/>
	<path fill="#FEFEFE" d="M141.704 115.468C142.924 115.625 143.901 115.733 144.933 116.454C145.605 117.055 145.71 116.873 146.141 117.761C146.022 118.397 145.553 119.062 145.015 119.457C144.609 119.755 142.821 120.098 142.334 119.982C142.247 119.961 142.126 119.891 142.054 119.854C141.013 119.541 139.925 119.08 138.997 118.515C138.756 117.768 138.706 117.368 138.977 116.625C139.788 115.931 140.697 115.737 141.704 115.468Z"/>
	<path fill="#F0660E" d="M147.683 104.521L148.409 104.686C150.62 109.25 150.937 112.702 149.28 117.5C149.074 118.098 148.566 118.992 148.573 119.605C149.765 120.114 150.781 120.719 151.847 121.456C152.966 122.158 153.997 122.705 155.252 123.122L154.155 123.842L154.622 124.25L154.375 124.623C152.586 124.396 150.637 123.191 149.249 122.076C148.452 121.846 148.355 121.732 147.624 122.124C146.961 123.32 146.178 123.812 145.632 125.056L145.251 124.249L144.625 124.122C143.876 124.746 143.047 125.353 142.108 125.655C141.573 125.827 141.056 125.714 140.582 126.066C140.417 126.189 140.196 126.194 139.999 126.227C139.433 126.324 138.951 126.395 138.373 126.375L138.125 126.589L138.054 126.542C137.402 126.154 136.64 126.637 136.127 126.125C136.712 125.737 137.468 125.841 138.165 125.816C139.331 125.62 140.599 125.475 141.69 125.016C144.499 123.834 146.973 121.311 148.082 118.453C149.302 115.311 149.884 111.285 149.073 107.981C148.787 106.816 148.169 105.619 147.683 104.521Z"/>
	<path fill="#F0660E" d="M82.6963 66.3178C82.8156 65.0897 82.4847 63.9605 82.6081 62.7428C82.8627 60.2304 84.3352 57.3554 86.3173 55.762C90.3982 52.4813 94.5319 53.9339 99.1365 54.3971C100.366 56.494 101.585 58.8652 100.898 61.3435C100.003 64.567 96.8592 67.743 94.009 69.3081C92.189 70.3076 89.8091 70.8522 87.7802 70.2307C85.765 69.6135 84.1147 67.8003 82.6963 66.3178Z"/>
	<path fill="#EC790E" d="M127.126 59.5335C128.789 59.3609 131.591 59.2204 132.991 60.2785L133.114 60.375C133.823 60.3 134.704 60.6181 135.314 60.9701C137.918 62.473 139.226 65.6139 139.927 68.3804C140.042 68.835 140.348 69.6859 140.321 70.1348C140.256 71.2464 139.107 72.8795 138.534 73.8245C137.64 75.2972 135.557 75.6331 133.994 76.0068C130.59 76.1881 127.449 75.3981 124.403 73.8941C122.623 73.0156 121.509 72.0675 120.863 70.1852L120.73 69.7879C120.156 67.8739 120.602 65.7959 121.548 64.083C122.86 61.7049 124.493 60.2906 127.126 59.5335Z"/>
	<path fill="#391714" d="M95.3932 103.82L98.1493 105.824C99.7162 107.658 100.88 109.521 101.277 111.934C101.65 113.727 101.626 115.773 101.409 117.589C100.199 121.73 98.3572 123.968 94.653 126.098C94.3891 125.852 93.9259 125.296 93.625 125.141C91.969 124.282 89.3206 125.223 87.5899 124.633C86.4344 124.238 85.5844 124.031 84.491 123.411C84.6324 122.923 84.5719 122.602 84.4631 122.125C83.6924 121.19 83.0847 120.965 81.951 120.665L79.7662 120.782C78.9551 119.743 77.7817 118.662 77.881 117.265L78.6587 117.106L85.2169 112.67C84.9722 110.864 85.1762 109.578 85.8621 107.894C86.8004 105.591 88.0768 104.88 90.2769 103.968C91.5888 104.221 92.5591 104.642 93.7364 105.255L93.8107 105.294C94.3541 104.936 94.7995 104.856 95.4373 104.777L95.3932 103.82Z"/>
	<path fill="#563A1F" d="M77.881 117.265L78.6587 117.106C79.3344 117.799 80.727 119.282 80.7843 120.242L81.951 120.665L79.7662 120.782C78.9551 119.743 77.7817 118.662 77.881 117.265Z"/>
	<path fill="#935222" d="M95.3932 103.82L98.1493 105.824C99.7162 107.658 100.88 109.521 101.277 111.934C101.115 113.116 101.308 115.832 100.665 116.627L100.343 116.375L100.265 114.392L100.086 114.316C100.07 115.056 100.22 115.911 99.75 116.489C98.6941 116.484 97.1005 115.794 96.375 115.021L95.55 113.957L95.6928 113.255C96.2882 110.181 95.5269 107.843 93.8107 105.294C94.3541 104.936 94.7995 104.856 95.4373 104.777L95.3932 103.82Z"/>
	<path fill="#210B00" d="M95.3932 103.82L98.1493 105.824C99.7162 107.658 100.88 109.521 101.277 111.934C101.115 113.116 101.308 115.832 100.665 116.627L100.343 116.375L100.265 114.392L100.086 114.316C100.014 112.962 99.8861 111.691 99.5482 110.375C99.0501 108.435 96.8486 106.166 95.4373 104.777L95.3932 103.82Z"/>
	<path fill="#FEFEFE" d="M90.2769 103.968C91.5888 104.221 92.5591 104.642 93.7364 105.255L93.8107 105.294C95.5269 107.843 96.2882 110.181 95.6928 113.255L95.55 113.957C94.7873 115.281 93.9943 116.74 92.6252 117.529C91.7898 118.011 90.8236 118.33 89.8682 118.08L89.75 118.048C89.5043 117.984 89.2698 117.92 89.0372 117.816C86.7831 116.802 86.0176 114.851 85.2169 112.67C84.9722 110.864 85.1762 109.578 85.8621 107.894C86.8004 105.591 88.0768 104.88 90.2769 103.968Z"/>
	<path fill="#391714" d="M132.947 98.8282C134.669 99.2202 136.132 100.21 137.07 101.703C138.085 103.317 138.307 105.136 138.293 107.003C138.859 107.212 138.941 107.647 139.375 107.985C139.781 108.301 140.36 108.477 140.805 108.78C142.16 109.705 143.465 110.7 144.884 111.525L145.321 111.375L145.723 110.5C145.851 111.279 146.189 111.549 146.752 112.067C146.861 112.168 146.824 112.125 146.893 112.266C146.657 113.439 146.336 115.599 145.232 116.301L144.933 116.454C143.901 115.733 142.924 115.625 141.704 115.468C140.697 115.737 139.788 115.931 138.977 116.625C138.706 117.368 138.756 117.768 138.997 118.515L138.272 119.358L138.5 119.706L138.971 119.774L138.838 119.806C138.123 119.999 137.759 120.574 137.147 120.788C135.891 121.226 134.025 121.206 132.677 121.347L132.671 121.367L132 121.5C131.414 121.169 130.627 121.143 130.146 120.804L130.08 120.755L129.199 120.891C128.968 120.945 127.85 120.334 127.586 120.185C124.931 118.689 122.871 115.418 122.082 112.532C120.98 108.502 122.427 105.121 124.392 101.737L126.702 99.5306C126.929 99.8411 127.198 100.156 127.37 100.5C128.621 99.5528 129.277 99.3477 130.809 99.3993C131.54 99.0257 132.132 98.9005 132.947 98.8282Z"/>
	<path fill="#563A1F" d="M132.677 121.347C132.334 121.128 132.062 120.543 131.841 120.197L132.205 119.921C133.973 119.764 136.655 118.904 138.272 119.358L138.5 119.706L138.971 119.774L138.838 119.806C138.123 119.999 137.759 120.574 137.147 120.788C135.891 121.226 134.025 121.206 132.677 121.347Z"/>
	<path fill="#563A1F" d="M145.723 110.5C145.851 111.279 146.189 111.549 146.752 112.067C146.861 112.168 146.824 112.125 146.893 112.266C146.657 113.439 146.336 115.599 145.232 116.301L144.933 116.454C143.901 115.733 142.924 115.625 141.704 115.468C141.87 115.422 142.531 115.303 142.625 115.212C142.955 114.892 143.36 113.694 143.575 113.249C143.894 112.591 144.396 112.061 144.884 111.525L145.321 111.375L145.723 110.5Z"/>
	<path fill="#935222" d="M127.37 100.5C128.621 99.5528 129.277 99.3477 130.809 99.3993C129.228 100.905 127.594 102.946 127.514 105.25C127.479 106.273 127.562 107.433 127.811 108.427C126.829 109.213 126.219 110.514 124.91 110.935C124.365 111.11 124.105 111.005 123.625 110.746C123.364 110.033 123.452 109.115 123.505 108.365C123.724 105.255 125.024 102.527 127.37 100.5Z"/>
	<path fill="#FEFEFE" d="M132.947 98.8282C134.669 99.2202 136.132 100.21 137.07 101.703C138.085 103.317 138.307 105.136 138.293 107.003C137.644 109.067 136.45 111.455 134.463 112.546C133.732 112.948 132.694 113.061 131.898 112.825C130.251 112.338 128.71 109.804 127.811 108.427C127.562 107.433 127.479 106.273 127.514 105.25C127.594 102.946 129.228 100.905 130.809 99.3993C131.54 99.0257 132.132 98.9005 132.947 98.8282Z"/>
</svg>
