<?xml version="1.0" encoding="utf-8" ?>
<svg xmlns="http://www.w3.org/2000/svg" xmlns:xlink="http://www.w3.org/1999/xlink" width="517" height="496">
	<path fill="#D6F3F5" transform="translate(0 -449.395)" d="M178.675 833.905C180.63 832.453 184.899 831.997 187.339 831.335C188.099 832.208 187.728 831.949 188.76 832.471L189.493 832.817L194.875 834.206L195.283 836.051C193.567 837.681 192.192 837.871 189.851 837.863C185.809 837.849 181.908 836.254 178.675 833.905Z"/>
	<path fill="#D6F3F5" transform="translate(0 -449.395)" d="M487.702 477.308L483.626 473.923C482.684 471.749 482.601 468.986 483.291 466.705C483.91 464.656 485.388 463.106 487.2 462.061C489.303 462.253 489.633 462.357 491.316 463.624C491.668 466.562 490.791 467.91 489.683 470.616C489.025 472.807 488.6 475.221 487.702 477.308Z"/>
	<path fill="#AAE4EB" transform="translate(0 -449.395)" d="M419.117 685.282C420.599 684.96 421.717 684.798 423.185 685.302C425.576 686.122 428.727 688.706 429.755 691.115C430.442 692.726 429.968 695.937 429.172 697.403C428.039 699.489 427.406 699.511 425.281 700.244L424.597 700.239C421.255 700.16 417.823 698.803 415.719 696.051C414.239 694.116 414.425 691.824 414.951 689.59C415.431 687.553 417.499 686.368 419.117 685.282Z"/>
	<path fill="#70CDD5" transform="translate(0 -449.395)" d="M423.602 663.825C426.957 669.14 430.045 672.298 436.395 673.706C440.338 674.58 444.589 673.925 448.509 673.209C446.652 675.909 444.467 678.26 441.719 680.084C438.948 681.923 435.156 682.377 431.943 681.602C428.852 680.856 426.445 678.965 424.86 676.226C422.113 671.479 422.153 668.922 423.602 663.825Z"/>
	<path fill="#FAFDFC" fill-opacity="0.45882353" transform="translate(0 -449.395)" d="M508.347 468.984C507.613 473.589 507.85 477.288 508.591 481.868C507.323 482.87 505.452 484.814 503.967 485.294C501.146 482.133 499.083 480.061 495.328 478.03C492.784 477.444 490.746 476.698 488.238 477.794L487.828 478.716L487.702 477.308C488.6 475.221 489.025 472.807 489.683 470.616C491.666 470.212 494.146 469.605 496.143 470.034C497.845 470.399 499.452 471.366 501.163 471.599C504.318 472.03 505.944 470.719 508.347 468.984Z"/>
	<path fill="#AAE4EB" transform="translate(0 -449.395)" d="M143.634 700.007C142.821 699.489 142.167 698.784 141.476 698.115C135.163 692.002 133.953 687.314 133.954 678.647C133.955 670.775 138.822 666.83 143.959 661.739C144.622 669.144 144.425 677.275 143.3 684.629L139.607 684.736C138.348 686.135 138.378 686.03 138.413 687.91L137.248 687.483C137.288 690.274 138.979 693.056 140.981 694.974C142.21 696.151 143.096 697.164 144.808 697.448L143.634 700.007Z"/>
	<path fill="#D6F3F5" transform="translate(0 -449.395)" d="M186.112 589.244C186.833 586.145 187.677 584.11 189.795 581.703C198.262 572.082 208.87 568.764 221.463 567.96C232.93 567.227 239.406 570.948 247.609 578.229C243.832 579.936 236.844 581.079 232.716 580.756C233.921 579.364 234.876 578.241 235.544 576.513C233.833 574.091 228.326 572.884 225.504 572.154C221.333 571.158 217.463 571.609 213.325 572.647C206.966 573.514 202.491 574.583 197.32 578.559C195.451 580.084 195.514 581.121 194.968 583.333L195.425 584.92C197.056 585.613 198.7 586.429 200.45 586.741L200.577 587.296C199.776 587.553 194.134 589.149 193.883 589.561C192.271 590.162 189.707 590.999 188.006 590.925C187.246 590.892 186.604 589.801 186.112 589.244Z"/>
	<path fill="#AAE4EB" transform="translate(0 -449.395)" d="M423.602 663.825C426.042 660.153 428.413 657.397 432.927 656.375C436.171 655.64 442.009 656.105 444.885 657.933C447.205 659.408 448.731 662.727 449.083 665.364C449.415 667.853 448.896 670.752 448.509 673.209C444.589 673.925 440.338 674.58 436.395 673.706C430.045 672.298 426.957 669.14 423.602 663.825ZM435.119 658.718L432.61 659.436C432.519 662.054 431.963 663.443 433.859 665.497C436.033 667.851 439.872 669.87 443.065 669.9L445.378 669.79L447.282 668.769C447.534 666.456 447.356 665.147 445.824 663.241C444.201 661.222 442.432 659.353 439.995 658.371C438.392 658.435 436.685 658.387 435.119 658.718Z"/>
	<path fill="#E87F0E" transform="translate(0 -449.395)" d="M475.945 723.374C482.83 720.356 492.688 715.035 500.365 717.696C501.769 718.183 502.122 718.964 503.002 720.103C502.779 723.031 502.203 723.809 499.977 725.86C503.335 727.616 505.724 729.091 507.422 732.667L507.388 736.256C503.658 739.353 498.643 737.632 494.253 738.228L493.617 739.001C492.866 736.789 492.288 735.915 490.226 734.856C485.639 735.784 482.368 729.983 478.396 728.686C476.985 728.226 474.064 728.542 472.481 728.489C473.816 727.391 475.253 727.328 476.9 727.09C476.016 726.008 475.111 725.029 474.628 723.696L475.945 723.374Z"/>
	<path fill="#D2680A" transform="translate(0 -449.395)" d="M476.9 727.09C481.901 725.586 489.768 723.818 494.711 725.693C491.609 725.631 486.498 724.893 484.061 726.923C484.249 728.341 484.842 731.477 485.919 732.31C487.304 733.381 488.636 734.134 490.226 734.856C485.639 735.784 482.368 729.983 478.396 728.686C476.985 728.226 474.064 728.542 472.481 728.489C473.816 727.391 475.253 727.328 476.9 727.09Z"/>
	<path fill="#FAFDFC" fill-opacity="0.20392157" transform="translate(0 -449.395)" d="M213.325 572.647C217.463 571.609 221.333 571.158 225.504 572.154C228.326 572.884 233.833 574.091 235.544 576.513C234.876 578.241 233.921 579.364 232.716 580.756L224.533 584.212C216.69 586.913 208.803 587.4 200.577 587.296L200.45 586.741C198.7 586.429 197.056 585.613 195.425 584.92L194.968 583.333C195.514 581.121 195.451 580.084 197.32 578.559C202.491 574.583 206.966 573.514 213.325 572.647ZM225.504 572.154L221.69 572.275C222.355 573.386 222.993 574.025 222.975 575.348C222.941 577.818 223.026 579.612 224.128 581.897L223.712 583.55L224.533 584.212L232.716 580.756C233.921 579.364 234.876 578.241 235.544 576.513C233.833 574.091 228.326 572.884 225.504 572.154ZM200.45 586.741C200.815 586.34 201.051 586.031 201.203 585.487C201.747 583.552 202.235 580.307 201.335 578.553L197.32 578.559C195.451 580.084 195.514 581.121 194.968 583.333L195.425 584.92C197.056 585.613 198.7 586.429 200.45 586.741ZM213.325 572.647L213.724 573.642L212.461 573.993L213.53 574.718L214.255 574.725C214.905 575.215 215.648 575.845 216.402 576.154C218.003 576.812 219.052 575.848 220.36 575.081C220.582 574.35 220.867 573.74 221.237 573.077L221.69 572.275L225.504 572.154C221.333 571.158 217.463 571.609 213.325 572.647Z"/>
	<path fill="#FAFDFC" fill-opacity="0.21960784" transform="translate(0 -449.395)" d="M213.325 572.647C217.463 571.609 221.333 571.158 225.504 572.154L221.69 572.275L221.237 573.077C220.867 573.74 220.582 574.35 220.36 575.081C219.052 575.848 218.003 576.812 216.402 576.154C215.648 575.845 214.905 575.215 214.255 574.725L213.53 574.718L212.461 573.993L213.724 573.642L213.325 572.647Z"/>
	<path fill="#AAE4EB" transform="translate(0 -449.395)" d="M194.695 800.263L198.747 801.538C202.134 803.117 203.862 804.73 206.176 807.648C208.09 814.171 208.398 821.595 205.161 827.752C203.577 830.438 202.005 832.836 199.924 835.164C196.202 832.694 194.594 832.038 190.093 832.061L189.493 832.817L188.76 832.471C187.728 831.949 188.099 832.208 187.339 831.335C184.899 831.997 180.63 832.453 178.675 833.905C176.269 832.496 173.899 830.584 172.081 828.467C167.463 823.089 165.74 817.977 166.475 810.923C166.981 806.07 169.68 803.952 173.204 801.069C174.468 802.61 174.914 802.764 174.921 804.82L175.167 805.752C176.025 805.087 176.31 804.377 176.739 803.416L176.914 803.017L182.333 801.862C184.99 801.76 186.383 802.217 188.671 803.549C190.455 802.127 192.703 801.39 194.695 800.263ZM175.167 805.752C172.566 808.309 172.085 810.526 172.058 814.055C172.045 815.758 172.194 817.325 172.625 818.978L174.366 820.643L175.548 821.044C178.248 820.823 180.174 818.663 182.168 816.978L183.539 813.795L183.008 811.641C182.43 809.247 182.378 808.099 183.342 805.773C183.766 804.75 182.747 802.944 182.333 801.862L176.914 803.017L176.739 803.416C176.31 804.377 176.025 805.087 175.167 805.752Z"/>
	<path fill="#FAFDFC" transform="translate(0 -449.395)" d="M174.366 820.643L172.647 821.027L169.753 819.151C167.989 817.591 168.39 814.514 168.587 812.359C168.973 808.147 170.886 806.283 173.947 803.744L174.921 804.82L175.167 805.752C172.566 808.309 172.085 810.526 172.058 814.055C172.045 815.758 172.194 817.325 172.625 818.978L174.366 820.643Z"/>
	<path fill="#A4D5DB" transform="translate(0 -449.395)" d="M182.333 801.862C184.99 801.76 186.383 802.217 188.671 803.549C193.284 807.96 195.278 811.3 195.395 817.784C195.485 822.731 193.658 824.157 192.397 828.444C188.329 825.737 185.037 820.897 182.168 816.978L183.539 813.795L183.008 811.641C182.43 809.247 182.378 808.099 183.342 805.773C183.766 804.75 182.747 802.944 182.333 801.862Z"/>
	<path fill="#B09592" transform="translate(0 -449.395)" d="M194.695 800.263L198.747 801.538C202.134 803.117 203.862 804.73 206.176 807.648C208.09 814.171 208.398 821.595 205.161 827.752C203.577 830.438 202.005 832.836 199.924 835.164C196.202 832.694 194.594 832.038 190.093 832.061C191.053 831.479 192.347 831.332 193.44 831.073L193.893 830.308L192.397 828.444C193.658 824.157 195.485 822.731 195.395 817.784C195.278 811.3 193.284 807.96 188.671 803.549C190.455 802.127 192.703 801.39 194.695 800.263Z"/>
	<path fill="#C3A795" transform="translate(0 -449.395)" d="M192.397 828.444C196.623 829.374 199.124 829.052 203.273 827.933C203.927 827.756 204.488 827.726 205.161 827.752C203.577 830.438 202.005 832.836 199.924 835.164C196.202 832.694 194.594 832.038 190.093 832.061C191.053 831.479 192.347 831.332 193.44 831.073L193.893 830.308L192.397 828.444Z"/>
	<path fill="#EF680D" transform="translate(0 -449.395)" d="M341.243 839.015L365.56 829.024L389.704 857.073C392.484 860.344 396.029 865.756 399.496 868.126C402.908 866.697 406.495 864.861 410.208 864.532L412.402 865.487C412.439 866.085 412.606 866.69 412.513 867.282C412.242 869.016 401.326 883.618 399.745 885.304C398.506 886.625 397.244 887.076 395.493 887.267C391.809 885.941 388.903 882.7 386.219 879.974L370.902 864.051C365.072 858.33 358.774 853.073 352.513 847.834C348.921 844.828 345.294 841.372 341.243 839.015Z"/>
	<path fill="#E71" transform="translate(0 -449.395)" d="M229.085 845.664C234.343 846.171 240.024 847.133 245.281 846.957C252.238 848.34 259.23 848.269 266.246 849.064L247.395 863.73C242.143 868.874 236.972 874.117 232.387 879.874C226.628 887.104 221.604 900.118 213.538 904.552C211.737 904.542 210.645 903.857 209.247 902.774C206.027 900.28 193.683 889.314 193.243 885.984L193.992 885.491C197.318 883.51 202.911 885.59 206.447 886.451C208.745 883.794 210.403 879.927 212.102 876.837L223.217 856.513C224.848 853.546 226.682 849.09 229.529 847.216L229.085 845.664Z"/>
	<path fill="#D74208" transform="translate(0 -449.395)" d="M229.085 845.664C234.343 846.171 240.024 847.133 245.281 846.957C252.238 848.34 259.23 848.269 266.246 849.064L247.395 863.73C245.883 860.999 252.987 858.453 253.74 855.795C251.008 854.146 247.952 853.081 245.341 851.267C243.254 849.817 240.645 848.117 238.093 847.643C236.245 847.299 233.759 848.033 232.134 847.064L231.486 846.641L230.623 847.381L229.529 847.216L229.085 845.664Z"/>
	<path fill="#AAE4EB" transform="translate(0 -449.395)" d="M487.828 478.716L488.238 477.794C490.746 476.698 492.784 477.444 495.328 478.03C499.083 480.061 501.146 482.133 503.967 485.294C505.452 484.814 507.323 482.87 508.591 481.868C510.21 487.043 512.729 492.663 517.945 495.158C519.371 495.84 521.034 496.048 522.594 496.175C522.461 502.531 523.196 507.42 524.156 513.627C524.733 514.655 525.517 515.751 525.798 516.894C524.251 517.449 523.54 518.323 522.735 519.795C521.615 521.844 521.364 523.52 522.18 525.622C524.693 527.241 525.125 526.853 527.922 526.3C527.359 528.001 525.393 529.137 525.419 530.33L533.297 532.359C533.303 534.08 533.171 535.219 532.527 536.822C523.008 538.292 510.95 539.092 501.47 537.277C493.719 535.794 485.069 532.803 480.536 525.902C475.278 517.899 476.812 506.327 478.73 497.354C479.28 494.78 479.631 491.437 480.933 489.13C481.922 487.376 483.852 486.668 485.259 485.354C486.803 483.912 487.244 481.509 487.662 479.525L487.828 478.716ZM495.328 478.03C494.454 480.588 493.782 483.214 492.034 485.323C490.432 485.996 488.775 486.618 487.27 487.487L487.299 487.898C487.454 490.451 487.721 493.609 486.159 495.744C487.068 498.492 489.203 506.791 491.675 508.248C492.54 506.556 492.772 506.322 492.543 504.359L491.548 503.641C492.247 503.028 492.737 502.631 493.576 502.205C495.095 495.558 497.794 489.503 503.611 485.514L503.967 485.294C501.146 482.133 499.083 480.061 495.328 478.03ZM525.419 530.33C525.393 529.137 527.359 528.001 527.922 526.3C525.125 526.853 524.693 527.241 522.18 525.622C521.364 523.52 521.615 521.844 522.735 519.795C523.54 518.323 524.251 517.449 525.798 516.894C525.517 515.751 524.733 514.655 524.156 513.627C521.844 511.145 520.373 507.847 521.361 504.359C520.726 503.29 520.078 502.423 519.274 501.487C514.473 506.851 512.616 514.408 512.445 521.443C516.736 526.803 518.601 528.66 525.419 530.33Z"/>
	<path fill="#FBF4E0" fill-opacity="0.3882353" transform="translate(0 -449.395)" d="M525.419 530.33C518.601 528.66 516.736 526.803 512.445 521.443C512.616 514.408 514.473 506.851 519.274 501.487C520.078 502.423 520.726 503.29 521.361 504.359C520.373 507.847 521.844 511.145 524.156 513.627C524.733 514.655 525.517 515.751 525.798 516.894C524.251 517.449 523.54 518.323 522.735 519.795C521.615 521.844 521.364 523.52 522.18 525.622C524.693 527.241 525.125 526.853 527.922 526.3C527.359 528.001 525.393 529.137 525.419 530.33Z"/>
	<path fill="#EF680D" transform="translate(0 -449.395)" d="M397.654 724.001C402.14 730.795 402.846 736.915 404.127 744.704C423.317 734.651 441.599 729.483 463.011 727.01L465.236 717.638C466.092 714.952 467.778 712.333 470.5 711.229C472.35 710.48 473.411 710.916 475.166 711.507C477.391 714.774 476.578 719.564 475.945 723.374L474.628 723.696C475.111 725.029 476.016 726.008 476.9 727.09C475.253 727.328 473.816 727.391 472.481 728.489C474.064 728.542 476.985 728.226 478.396 728.686C482.368 729.983 485.639 735.784 490.226 734.856C492.288 735.915 492.866 736.789 493.617 739.001L494.253 738.228C496.401 740.159 497.103 741.867 498.079 744.513C497.778 746.952 497.64 747.168 495.991 748.999C493.133 749.867 490.981 749.538 488.31 748.208C485.195 746.656 482.452 744.081 479.473 742.25C471.156 737.14 460.761 740.355 452.09 742.906C442.957 745.592 433.948 748.536 425.663 753.358C412.734 760.882 401.226 772.745 390.817 783.408L392.247 771.916C393.168 770.916 393.943 770.252 394.062 768.821L393.888 768.774L390.469 771.626L389.632 771.436C390.765 767.758 391.377 766.934 394.417 764.519C394.792 760.35 392.204 760.598 391.545 757.583C391.061 755.362 393.17 754.376 391.545 751.78C389.74 750.808 388.608 750.532 386.558 750.626L384.248 751.461L380.631 752.056C381.618 749.678 382.838 747.601 384.191 745.42C385.098 743.25 384.871 740.735 384.519 738.446C383.687 733.026 380.019 729.104 375.771 726.033L377.414 725.542L378.347 725.172C381.537 723.555 383.401 722.355 385.055 719.097C385.621 717.982 386.167 717.933 387.239 717.377L389.016 718.718L389.792 717.478L396.521 724.528L397.654 724.001ZM389.792 717.478L389.016 718.718L387.239 717.377C386.167 717.933 385.621 717.982 385.055 719.097C383.401 722.355 381.537 723.555 378.347 725.172L377.414 725.542L375.771 726.033C380.019 729.104 383.687 733.026 384.519 738.446C384.871 740.735 385.098 743.25 384.191 745.42C382.838 747.601 381.618 749.678 380.631 752.056L384.248 751.461L386.558 750.626C388.608 750.532 389.74 750.808 391.545 751.78C393.17 754.376 391.061 755.362 391.545 757.583C392.204 760.598 394.792 760.35 394.417 764.519C391.377 766.934 390.765 767.758 389.632 771.436L390.469 771.626L393.888 768.774L394.062 768.821C398.972 761.554 401.673 755.037 402.08 746.18C401.917 737.783 401 731.837 396.521 724.528L389.792 717.478Z"/>
	<path fill="#FBF4E0" fill-opacity="0.65490198" transform="translate(0 -449.395)" d="M389.792 717.478L396.521 724.528C401 731.837 401.917 737.783 402.08 746.18C401.673 755.037 398.972 761.554 394.062 768.821L393.888 768.774L390.469 771.626L389.632 771.436C390.765 767.758 391.377 766.934 394.417 764.519C394.792 760.35 392.204 760.598 391.545 757.583C391.061 755.362 393.17 754.376 391.545 751.78C389.74 750.808 388.608 750.532 386.558 750.626L384.248 751.461L380.631 752.056C381.618 749.678 382.838 747.601 384.191 745.42C385.098 743.25 384.871 740.735 384.519 738.446C383.687 733.026 380.019 729.104 375.771 726.033L377.414 725.542L378.347 725.172C381.537 723.555 383.401 722.355 385.055 719.097C385.621 717.982 386.167 717.933 387.239 717.377L389.016 718.718L389.792 717.478ZM378.347 725.172L381.17 727.407L381.758 727.7C385.171 729.509 386.103 733.206 389.751 733.653C391.368 732.395 391.913 731.572 392.435 729.59L389.016 718.718L387.239 717.377C386.167 717.933 385.621 717.982 385.055 719.097C383.401 722.355 381.537 723.555 378.347 725.172Z"/>
	<path fill="#55301E" transform="translate(0 -449.395)" d="M377.414 725.542L378.347 725.172L381.17 727.407C387.064 735.639 388.073 740.683 386.558 750.626L384.248 751.461L380.631 752.056C381.618 749.678 382.838 747.601 384.191 745.42C385.098 743.25 384.871 740.735 384.519 738.446C383.687 733.026 380.019 729.104 375.771 726.033L377.414 725.542Z"/>
	<defs>
		<linearGradient id="gradient_0" gradientUnits="userSpaceOnUse" x1="384.88901" y1="723.72211" x2="390.27939" y2="727.77948">
			<stop offset="0" stop-color="#FBF3DE" stop-opacity="0.27843139"/>
			<stop offset="1" stop-color="#FAF5DB" stop-opacity="0.33725491"/>
		</linearGradient>
	</defs>
	<path fill="url(#gradient_0)" transform="translate(0 -449.395)" d="M378.347 725.172C381.537 723.555 383.401 722.355 385.055 719.097C385.621 717.982 386.167 717.933 387.239 717.377L389.016 718.718L392.435 729.59C391.913 731.572 391.368 732.395 389.751 733.653C386.103 733.206 385.171 729.509 381.758 727.7L381.17 727.407L378.347 725.172Z"/>
	<path fill="#FEECD2" transform="translate(0 -449.395)" d="M389.792 717.478L396.521 724.528C401 731.837 401.917 737.783 402.08 746.18L399.441 745.6C397.914 744.108 396.813 742.929 395.998 740.922C395.324 739.261 394.63 738.15 393.538 736.758L393.134 736.256C393.361 733.962 392.855 731.834 392.435 729.59L389.016 718.718L389.792 717.478Z"/>
	<path fill="#F3430E" transform="translate(0 -449.395)" d="M163.868 779.972C161.931 777.598 158.537 776.19 155.812 774.879C147.686 770.971 139.709 768.428 130.819 766.986C120.34 765.288 100.936 762.195 91.7358 768.608C87.8584 771.31 85.392 775.689 81.4999 778.444C79.0049 780.21 77.2646 780.826 74.1774 780.289C73.3148 780.139 73.6121 780.299 73.0221 779.405C71.0128 776.359 72.8504 772.606 73.5844 769.445C69.8247 770.329 65.5308 771.704 61.7215 770.553C60.3674 768.928 60.5433 768.117 60.3429 766.051C61.3149 762.745 63.6793 760.736 66.0441 758.371L66.628 757.795C64.3228 756.369 63.5917 756.018 62.3733 753.487C62.7105 751.569 62.5634 750.96 64.2477 749.788C70.2487 745.616 82.6089 749.117 89.1186 750.486L86.9591 741.641C86.7648 739.835 87.4887 739.105 88.645 737.872C90.8579 737.092 92.2776 737.349 94.4051 738.332C99.1786 740.535 100.723 746.582 102.517 751.123C110.136 751.277 117.761 750.142 125.465 750.387C135.509 750.705 144.897 752.778 154.771 754.125C163.055 756.667 171.362 759.56 179.119 763.451C182.333 765.063 189.266 771.027 192.363 770.928L193.951 769.415C194.019 772.377 193.866 775.124 194.883 777.897L195.254 779.689C195.857 782.925 196.512 785.396 198.158 788.249C199.31 790.245 199.391 791.46 199.182 793.73L196.654 797.641C197.204 799.052 197.948 800.256 198.747 801.538L194.695 800.263C192.703 801.39 190.455 802.127 188.671 803.549C186.383 802.217 184.99 801.76 182.333 801.862L176.914 803.017L176.739 803.416C176.31 804.377 176.025 805.087 175.167 805.752L174.921 804.82C174.914 802.764 174.468 802.61 173.204 801.069L172.964 799.868L163.868 779.972Z"/>
	<path fill="#EF680D" transform="translate(0 -449.395)" d="M163.868 779.972C169.721 782.113 175.032 786.094 180.148 789.597C183.892 792.161 187.758 794.186 189.753 798.412L194.695 800.263C192.703 801.39 190.455 802.127 188.671 803.549C186.383 802.217 184.99 801.76 182.333 801.862L176.914 803.017L176.739 803.416C176.31 804.377 176.025 805.087 175.167 805.752L174.921 804.82C174.914 802.764 174.468 802.61 173.204 801.069L172.964 799.868L163.868 779.972Z"/>
	<path fill="#C7B396" transform="translate(0 -449.395)" d="M172.964 799.868C179.313 797.946 183.045 797.149 189.753 798.412L194.695 800.263C192.703 801.39 190.455 802.127 188.671 803.549C186.383 802.217 184.99 801.76 182.333 801.862L176.914 803.017L176.739 803.416C176.31 804.377 176.025 805.087 175.167 805.752L174.921 804.82C174.914 802.764 174.468 802.61 173.204 801.069L172.964 799.868Z"/>
	<path fill="#EF680D" transform="translate(0 -449.395)" d="M184.209 592.642C185.887 591.342 185.814 591.356 186.112 589.244C186.604 589.801 187.246 590.892 188.006 590.925C189.707 590.999 192.271 590.162 193.883 589.561C193.796 596.115 194.127 601.112 195.728 607.446C195.92 608.205 195.867 607.891 195.927 608.567C194.646 612.961 193.632 617.817 191.634 621.934L191.863 622.756L191.815 623.342C190.957 632.657 188.365 641.843 187.374 651.217C184.687 676.627 185.475 702.567 190.074 727.713C191.654 736.357 193.339 745.333 196.687 753.487C197.393 754.01 198.067 754.494 198.711 755.09L198.735 756.002L197.074 758.705C195.768 760.731 194.952 762.194 194.557 764.619L193.951 769.415L192.363 770.928C189.266 771.027 182.333 765.063 179.119 763.451C171.362 759.56 163.055 756.667 154.771 754.125C153.811 749.382 152.149 744.761 151.011 740.05C148.27 728.699 145.777 716.786 144.906 705.14L143.634 700.007L144.808 697.448C143.096 697.164 142.21 696.151 140.981 694.974C138.979 693.056 137.288 690.274 137.248 687.483L138.413 687.91C138.378 686.03 138.348 686.135 139.607 684.736L143.3 684.629C144.425 677.275 144.622 669.144 143.959 661.739L144.791 659.767C145.482 648.752 147.608 635.897 151.748 625.612C157.671 610.894 169.646 598.845 184.209 592.642ZM175.725 728.359C173.06 730.558 173.053 730.879 172.506 734.103L173.342 736.534C175.619 737.303 176.081 737.535 178.381 736.974C180.111 735.699 181.668 734.827 181.897 732.462C182.023 731.163 181.629 730.302 181.011 729.198C179.013 728.262 177.938 727.841 175.725 728.359Z"/>
	<path fill="#C3A795" transform="translate(0 -449.395)" d="M184.209 592.642C185.887 591.342 185.814 591.356 186.112 589.244C186.604 589.801 187.246 590.892 188.006 590.925C189.707 590.999 192.271 590.162 193.883 589.561C193.796 596.115 194.127 601.112 195.728 607.446C195.92 608.205 195.867 607.891 195.927 608.567C194.646 612.961 193.632 617.817 191.634 621.934L190.827 621.034C183.85 612.688 183.505 602.891 184.209 592.642Z"/>
	<path fill="#C7B396" transform="translate(0 -449.395)" d="M144.808 697.448C143.096 697.164 142.21 696.151 140.981 694.974C138.979 693.056 137.288 690.274 137.248 687.483L138.413 687.91C141.222 689.281 143.586 690.709 144.959 693.618C145.978 693.296 146.594 693.178 147.209 692.252L147.502 691.751C148.741 693.121 149.792 693.933 151.45 694.747L152.878 694.185C153.078 691.926 154.203 691.163 155.792 689.722C159.137 693.822 161.72 697.399 166.882 699.274C168.971 699.237 170.631 698.482 172.072 696.946L176.838 690.722C176.527 697.412 174.529 704.065 169.432 708.714C166.565 711.33 163.457 712.419 159.559 712.232C153.028 711.919 150.335 706.48 144.906 705.14L143.634 700.007L144.808 697.448Z"/>
	<path fill="#FAFDFC" transform="translate(0 -449.395)" d="M144.808 697.448C143.096 697.164 142.21 696.151 140.981 694.974C138.979 693.056 137.288 690.274 137.248 687.483L138.413 687.91C141.222 689.281 143.586 690.709 144.959 693.618C145.776 694.875 145.922 695.505 147.502 695.898L152.886 696.332L153.486 697.487L151.809 699.104C149.276 698.826 147.145 698.577 144.808 697.448Z"/>
	<path fill="#B09592" transform="translate(0 -449.395)" d="M154.863 660.467C162.808 663.008 170.343 667.769 174.185 675.42C176.719 680.468 177.551 685.035 176.884 690.651L176.838 690.722L172.072 696.946C170.631 698.482 168.971 699.237 166.882 699.274C161.72 697.399 159.137 693.822 155.792 689.722C158.979 684.729 162.537 678.069 161.959 671.945C161.685 669.04 160.979 666.558 158.64 664.65C157.225 663.495 156.336 662.487 155.268 661.029L154.863 660.467Z"/>
	<path fill="#A4D5DB" transform="translate(0 -449.395)" d="M144.791 659.767C148.077 659.916 151.648 659.812 154.863 660.467L155.268 661.029C156.336 662.487 157.225 663.495 158.64 664.65C160.979 666.558 161.685 669.04 161.959 671.945C162.537 678.069 158.979 684.729 155.792 689.722C154.203 691.163 153.078 691.926 152.878 694.185L151.45 694.747C149.792 693.933 148.741 693.121 147.502 691.751L147.209 692.252C146.594 693.178 145.978 693.296 144.959 693.618C143.586 690.709 141.222 689.281 138.413 687.91C138.378 686.03 138.348 686.135 139.607 684.736L143.3 684.629C144.425 677.275 144.622 669.144 143.959 661.739L144.791 659.767Z"/>
	<path fill="#AAE4EB" transform="translate(0 -449.395)" d="M548.03 432.974C549.354 431.251 550.841 429.814 552.413 428.324C564.714 416.67 580.938 401.295 599.062 402.078C603.112 402.253 604.999 404.364 607.552 407.203C609.005 408.383 611.334 411.077 613.337 410.594C615.086 410.173 616.081 409.074 618.004 409.43C621.434 409.514 625.306 409.636 627.87 412.277C630.606 415.096 630.483 419.185 630.171 422.804C629.883 426.149 629.044 429.497 628.288 432.763C631.465 434.129 635.851 435.343 637.075 438.893C637.996 441.565 637.328 446.686 636.673 449.437L634.626 454.446L632.5 466.628C627.506 473.563 620.334 478.524 613.356 483.299L609.696 484.751C606.617 485.94 603.42 487.423 600.155 487.933L597.354 488.08L591.647 486.778L562.535 489.809C557.161 490.181 551.32 490.033 546.034 490.974C540.753 491.914 536.948 496.606 531.267 497.652C528.509 496.629 525.502 496.495 522.594 496.175C521.034 496.048 519.371 495.84 517.945 495.158C512.729 492.663 510.21 487.043 508.591 481.868C507.85 477.288 507.613 473.589 508.347 468.984C508.852 465.085 511.124 461.073 513.149 457.769C516.283 454.119 521.05 450.008 525.601 448.32L526.128 448.13C530.298 446.601 535.317 447.18 539.703 447.298L540.222 446.183C542.179 441.13 544.608 437.201 548.03 432.974ZM579.517 410.308C572.292 414.435 559.86 425.858 557.628 434.028L557.235 435.627C559.014 435.755 560.522 436 562.181 435.245C571.901 428.502 578.396 421.019 585.569 411.744L585.588 410.684C583.507 409.851 581.692 410.128 579.517 410.308ZM604.717 425.397L605.955 425.712C607.636 425.766 607.747 425.603 609.031 426.813C609.295 426.425 609.718 425.691 610.107 425.385L611.543 424.494C614.46 422.38 617.162 418.527 617.698 414.978L616.208 413.261C615.062 413.459 613.7 413.646 612.62 414.112C610.123 415.189 606.775 418.472 605.632 420.99L605.442 421.436C604.818 422.803 604.776 423.921 604.717 425.397ZM524.135 459.846C522.441 460.047 520.597 460.1 519.08 460.923C518.582 463.95 518.048 468.818 520.015 471.428C520.585 472.184 521.305 472.605 522.18 472.937L526.872 469.897L526.959 468.103C525.283 466.559 524.119 465.911 524.176 463.436C524.196 462.524 524.506 461.533 524.741 460.654L524.135 459.846Z"/>
	<path fill="#70CDD5" transform="translate(0 -449.395)" d="M513.149 457.769C514.391 465.861 514.967 476.076 522.237 481.391L523.975 482.503L524.443 482.792C529.204 485.691 535.346 485.515 540.627 484.256C547.418 482.638 553.472 477.889 558.836 473.678C568.713 465.922 576.359 458.785 584.093 448.864C585.807 451.396 587.16 453.813 590.01 455.155L590.566 455.441C593.074 456.627 596.737 455.85 599.218 454.897C604.081 453.028 608.606 449.8 612.376 446.24C614.323 450.79 616.007 455.581 620.951 457.607C624.429 459.032 628.747 458.372 632.394 458.036L634.626 454.446L632.5 466.628C627.506 473.563 620.334 478.524 613.356 483.299L609.696 484.751C606.617 485.94 603.42 487.423 600.155 487.933L597.354 488.08L591.647 486.778L562.535 489.809C557.161 490.181 551.32 490.033 546.034 490.974C540.753 491.914 536.948 496.606 531.267 497.652C528.509 496.629 525.502 496.495 522.594 496.175C521.034 496.048 519.371 495.84 517.945 495.158C512.729 492.663 510.21 487.043 508.591 481.868C507.85 477.288 507.613 473.589 508.347 468.984C508.852 465.085 511.124 461.073 513.149 457.769Z"/>
	<path fill="#AAE4EB" transform="translate(0 -449.395)" d="M288.175 517.571C296.113 512.753 306.259 511.766 315.255 513.83C320.794 515.101 326.669 518.848 330.984 522.467C332.075 517.155 332.819 511.503 334.606 506.389C338.513 495.209 347.521 483.179 357.416 476.656C369.668 468.579 387.324 462.528 402.126 465.819C408.363 467.205 415.224 472.252 418.57 477.671C425.384 488.707 426.681 502.492 423.606 514.967C422.171 520.787 419.452 526.475 416.667 531.763C420.401 533.798 423.684 533.546 427.793 533.974C436.377 534.868 441.484 540.342 443.859 548.342C446.194 556.205 444.471 569.135 440.403 576.277L432.788 587.277C438.038 588.752 442.612 589.902 445.381 594.982C448.576 600.846 449.797 608.875 447.805 615.316C446.57 619.306 442.521 623.403 438.918 625.342C432.835 628.617 425.489 627.521 418.876 627.045C419.097 635.495 421.131 645.855 414.788 652.438L412.554 654.646C410.437 656.688 402.303 656.988 399.28 657.202C396.934 659.541 394.189 662.985 391.204 664.363C389.804 664.544 387.915 664.96 386.521 664.776C384.487 664.507 382.537 661.789 381.676 659.998C380.415 657.376 382.014 652.434 382.872 649.887L383.044 649.385L380.352 646.209L379.615 645.679L373.031 642.662L372.666 642.615L370.335 641.642C367.873 643.683 364.842 643.919 361.742 644.15C364.168 637.993 363.144 633.676 362.146 627.351L358.145 618.499L356.88 615.839L350.791 612.261L346.45 607.942C343.122 607.528 341.236 606.402 338.5 604.539C335.752 603.755 333.28 602.254 330.771 600.912L330.015 600.503C328.374 598.409 326.968 596.186 324.483 595.065L325.132 593.726C326.849 589.727 326.173 584.703 324.627 580.752L323.937 580.683C322.637 579.914 320.974 579.782 319.491 579.505C317.459 576.276 315.63 576.138 312.146 575.337L304.972 576.476L302.979 577.114C300.373 577.45 297.527 577.934 294.931 577.367C292.633 576.865 287.8 575.726 286.521 573.736L284.937 572.047C277.203 562.647 274.193 550.631 275.331 538.652C276.193 529.572 281.337 523.167 288.175 517.571ZM286.521 573.736C287.8 575.726 292.633 576.865 294.931 577.367C297.527 577.934 300.373 577.45 302.979 577.114L304.972 576.476L312.146 575.337C315.63 576.138 317.459 576.276 319.491 579.505C320.974 579.782 322.637 579.914 323.937 580.683L324.627 580.752C326.173 584.703 326.849 589.727 325.132 593.726L324.483 595.065C326.968 596.186 328.374 598.409 330.015 600.503L330.771 600.912C333.28 602.254 335.752 603.755 338.5 604.539C341.236 606.402 343.122 607.528 346.45 607.942L350.791 612.261L356.88 615.839C359.454 615.995 361.3 615.912 363.801 615.065C364.536 614.325 365.802 613.451 365.948 612.42C366.608 607.781 364.304 605.416 361.705 601.878C363.626 600.536 364.266 598.981 365.251 596.941L366.07 595.251C370.147 588.257 377.962 586.432 385.213 584.802L381.534 580.434C376.48 573.992 377.765 567.875 378.657 560.272C372.24 565.514 365.331 570.116 356.89 571.123C351.086 571.815 344.194 570.632 339.584 566.804C335.538 563.445 334.755 559.718 334.174 554.806C331.608 555.147 328.969 556.729 326.525 557.621C321.625 559.41 316.127 559.827 310.964 559.091C303.332 558.004 295.501 553.272 290.94 547.078C283.239 536.617 286.49 529.029 288.175 517.571C281.337 523.167 276.193 529.572 275.331 538.652C274.193 550.631 277.203 562.647 284.937 572.047L286.521 573.736ZM356.383 531.353C353.854 532.95 351.247 532.909 350.316 536.36C349.241 540.349 350.087 544.46 352.225 547.936C354.446 551.547 357.179 553.747 361.399 554.506L362.117 554.608L366.613 553.897C368.317 550.677 368.126 545.532 367.386 542.051C366.959 540.044 366.775 535.23 365.325 534.054L361.856 532.048C359.972 530.925 358.473 531.127 356.383 531.353ZM425.487 540.256C423.781 541.821 423.843 541.793 423.702 544.111L424.635 544.564C424.909 546.084 425.081 546.553 424.563 548.047L423.807 548.154C424.729 553.144 426.054 556.713 430.391 559.695C432.486 561.135 434.197 561.559 436.765 561.308C437.149 560.025 438.397 557.261 438.337 556.051C438.256 554.418 436.934 552.546 437.755 551.065C438.183 550.293 438.376 549.718 438.568 548.872C436.347 543.665 434.242 542.512 429.229 540.012L425.487 540.256ZM396.845 485.049C398.883 489.311 401.383 492.893 404.22 496.649C408.271 495.001 412.555 495.19 416.552 493.183C415.371 490.322 414.433 486.876 412.496 484.455L411.94 484.082C410.441 483.056 409.495 482.35 408.578 480.778C405.337 480.369 403.543 482.382 400.424 482.787C398.59 483.025 397.96 483.71 396.845 485.049ZM299.461 518C298.072 519.183 297.528 520.142 296.799 521.803C299.556 524.724 306.619 526.796 310.63 526.96C313.106 527.061 315.892 527.129 318.333 526.66L320.969 525.897L320.591 522.91C314.698 519.887 306.19 516.002 299.461 518ZM396.845 485.049C397.96 483.71 398.59 483.025 400.424 482.787C403.543 482.382 405.337 480.369 408.578 480.778C409.495 482.35 410.441 483.056 411.94 484.082L412.496 484.455C408.688 477.167 405.496 473.201 398.005 469.582C395.906 469.968 395.554 470.604 394.045 472.051C393.607 475.74 396.309 480.998 396.845 485.049ZM404.22 496.649C406.106 498.765 408.109 501.207 410.619 502.605C412.738 503.785 414.687 504.231 417.038 503.641C417.557 500.038 417.061 496.761 416.552 493.183C412.555 495.19 408.271 495.001 404.22 496.649ZM433.835 593.385C434.621 596.893 438.486 600.12 441.391 602.032C442.86 602.999 444.357 603.772 446.139 603.436C446.093 600.795 445.586 599.838 443.668 597.96C441.599 595.934 439.033 594.363 436.406 593.181L433.835 593.385Z"/>
	<path fill="#FAFDFC" transform="translate(0 -449.395)" d="M349.666 554.615C351.924 554.395 353.125 554.066 355.25 555.2C357.279 556.284 358.17 558.039 358.717 560.189C358.931 561.027 358.241 561.707 357.81 562.431C356.802 562.419 355.722 562.42 354.747 562.14C352.182 561.405 350.139 559.021 348.914 556.769L349.666 554.615Z"/>
	<path fill="#FAFDFC" fill-opacity="0.98823529" transform="translate(0 -449.395)" d="M433.835 593.385L436.406 593.181C439.033 594.363 441.599 595.934 443.668 597.96C445.586 599.838 446.093 600.795 446.139 603.436C444.357 603.772 442.86 602.999 441.391 602.032C438.486 600.12 434.621 596.893 433.835 593.385Z"/>
	<path fill="#B1CFC3" transform="translate(0 -449.395)" d="M362.146 627.351C367.819 630.308 372.87 630.622 379.199 630.437L379.355 631.024C375.809 632.516 372.084 636.833 370.572 640.519C370.362 641.029 370.379 641.16 370.335 641.642C367.873 643.683 364.842 643.919 361.742 644.15C364.168 637.993 363.144 633.676 362.146 627.351Z"/>
	<path fill="#FAFDFC" fill-opacity="0.27450982" transform="translate(0 -449.395)" d="M396.845 485.049C397.96 483.71 398.59 483.025 400.424 482.787C403.543 482.382 405.337 480.369 408.578 480.778C409.495 482.35 410.441 483.056 411.94 484.082L412.496 484.455C414.433 486.876 415.371 490.322 416.552 493.183C412.555 495.19 408.271 495.001 404.22 496.649C401.383 492.893 398.883 489.311 396.845 485.049Z"/>
	<path fill="#70CDD5" transform="translate(0 -449.395)" d="M379.199 630.437C379.778 626.54 380.05 623.063 379.719 619.132L391.727 618.098C389.574 622.27 388.476 625.757 387.034 630.144C386.042 633.166 388.63 638.198 389.557 641.259L380.352 646.209L379.615 645.679L373.031 642.662L372.666 642.615L370.335 641.642C370.379 641.16 370.362 641.029 370.572 640.519C372.084 636.833 375.809 632.516 379.355 631.024L379.199 630.437Z"/>
	<path fill="#A9C593" transform="translate(0 -449.395)" d="M379.355 631.024C379.736 632.633 380.007 632.945 379.304 634.496C378.95 638.303 378.394 641.97 379.615 645.679L373.031 642.662L372.666 642.615L370.335 641.642C370.379 641.16 370.362 641.029 370.572 640.519C372.084 636.833 375.809 632.516 379.355 631.024Z"/>
	<path fill="#A2990C" transform="translate(0 -449.395)" d="M373.031 642.662C375.256 639.795 376.912 636.801 378.59 633.59L379.304 634.496C378.95 638.303 378.394 641.97 379.615 645.679L373.031 642.662Z"/>
	<defs>
		<linearGradient id="gradient_1" gradientUnits="userSpaceOnUse" x1="364.29086" y1="545.18756" x2="353.73413" y2="543.64935">
			<stop offset="0" stop-color="white" stop-opacity="0.78823531"/>
			<stop offset="1" stop-color="#FDFEFD" stop-opacity="0.87450981"/>
		</linearGradient>
	</defs>
	<path fill="url(#gradient_1)" transform="translate(0 -449.395)" d="M356.383 531.353C358.473 531.127 359.972 530.925 361.856 532.048L365.325 534.054C366.775 535.23 366.959 540.044 367.386 542.051C368.126 545.532 368.317 550.677 366.613 553.897L362.117 554.608L361.399 554.506C357.179 553.747 354.446 551.547 352.225 547.936C350.087 544.46 349.241 540.349 350.316 536.36C351.247 532.909 353.854 532.95 356.383 531.353Z"/>
	<path fill="#70CDD5" transform="translate(0 -449.395)" d="M286.521 573.736L284.937 572.047C277.203 562.647 274.193 550.631 275.331 538.652C276.193 529.572 281.337 523.167 288.175 517.571C286.49 529.029 283.239 536.617 290.94 547.078C295.501 553.272 303.332 558.004 310.964 559.091C316.127 559.827 321.625 559.41 326.525 557.621C328.969 556.729 331.608 555.147 334.174 554.806C334.755 559.718 335.538 563.445 339.584 566.804C344.194 570.632 351.086 571.815 356.89 571.123C365.331 570.116 372.24 565.514 378.657 560.272C377.765 567.875 376.48 573.992 381.534 580.434L385.213 584.802C377.962 586.432 370.147 588.257 366.07 595.251L365.251 596.941C364.266 598.981 363.626 600.536 361.705 601.878C364.304 605.416 366.608 607.781 365.948 612.42C365.802 613.451 364.536 614.325 363.801 615.065C361.3 615.912 359.454 615.995 356.88 615.839L350.791 612.261L346.45 607.942C343.122 607.528 341.236 606.402 338.5 604.539C335.752 603.755 333.28 602.254 330.771 600.912L330.015 600.503C328.374 598.409 326.968 596.186 324.483 595.065L325.132 593.726C326.849 589.727 326.173 584.703 324.627 580.752L323.937 580.683C322.637 579.914 320.974 579.782 319.491 579.505C317.459 576.276 315.63 576.138 312.146 575.337L304.972 576.476L302.979 577.114C300.373 577.45 297.527 577.934 294.931 577.367C292.633 576.865 287.8 575.726 286.521 573.736ZM347.858 594.972C341.215 595.969 336.575 597.455 330.771 600.912C333.28 602.254 335.752 603.755 338.5 604.539C341.236 606.402 343.122 607.528 346.45 607.942L350.791 612.261L356.88 615.839C359.454 615.995 361.3 615.912 363.801 615.065C364.536 614.325 365.802 613.451 365.948 612.42C366.608 607.781 364.304 605.416 361.705 601.878C363.626 600.536 364.266 598.981 365.251 596.941C359.304 595.591 353.96 594.926 347.858 594.972Z"/>
	<path fill="#A4D5DB" transform="translate(0 -449.395)" d="M304.972 576.476C308.57 573.859 311.201 571.979 315.889 572.642L316.667 572.742C319.374 573.157 321.735 575.032 323.205 577.313C323.878 578.356 324.257 579.577 324.627 580.752L323.937 580.683C322.637 579.914 320.974 579.782 319.491 579.505C317.459 576.276 315.63 576.138 312.146 575.337L304.972 576.476Z"/>
	<path fill="#A4D5DB" transform="translate(0 -449.395)" d="M347.858 594.972C353.96 594.926 359.304 595.591 365.251 596.941C364.266 598.981 363.626 600.536 361.705 601.878C364.304 605.416 366.608 607.781 365.948 612.42C365.802 613.451 364.536 614.325 363.801 615.065C361.3 615.912 359.454 615.995 356.88 615.839L350.791 612.261L346.45 607.942C343.122 607.528 341.236 606.402 338.5 604.539C335.752 603.755 333.28 602.254 330.771 600.912C336.575 597.455 341.215 595.969 347.858 594.972ZM349.56 604.266L349.163 605.787L345.242 605.101L346.45 607.942L350.791 612.261L356.88 615.839C359.454 615.995 361.3 615.912 363.801 615.065C364.536 614.325 365.802 613.451 365.948 612.42C366.608 607.781 364.304 605.416 361.705 601.878L361.004 601.254L358.528 602.711L357.744 602.105L356.524 602.903C354.528 601.321 354.559 601.043 352.068 601.3C350.942 602.188 350.319 603.081 349.56 604.266ZM347.201 597.594C345.595 599.744 344.777 600.962 344.925 603.754C344.958 604.374 345.06 604.577 345.242 605.101L349.163 605.787L349.56 604.266C350.319 603.081 350.942 602.188 352.068 601.3C354.559 601.043 354.528 601.321 356.524 602.903L357.744 602.105L358.528 602.711L361.004 601.254C356.365 597.662 353.022 596.98 347.201 597.594Z"/>
	<path fill="#FAFDFC" fill-opacity="0.84313726" transform="translate(0 -449.395)" d="M347.201 597.594C353.022 596.98 356.365 597.662 361.004 601.254L358.528 602.711L357.744 602.105L356.524 602.903C354.528 601.321 354.559 601.043 352.068 601.3C350.942 602.188 350.319 603.081 349.56 604.266L349.163 605.787L345.242 605.101C345.06 604.577 344.958 604.374 344.925 603.754C344.777 600.962 345.595 599.744 347.201 597.594Z"/>
	<path fill="#FAFDFC" fill-opacity="0.88627452" transform="translate(0 -449.395)" d="M349.56 604.266C350.319 603.081 350.942 602.188 352.068 601.3C354.559 601.043 354.528 601.321 356.524 602.903L357.744 602.105L358.528 602.711L361.004 601.254L361.705 601.878C364.304 605.416 366.608 607.781 365.948 612.42C365.802 613.451 364.536 614.325 363.801 615.065C361.3 615.912 359.454 615.995 356.88 615.839L350.791 612.261L346.45 607.942L345.242 605.101L349.163 605.787L349.56 604.266ZM349.56 604.266L349.163 605.787L345.242 605.101L346.45 607.942L350.791 612.261C351.925 609.731 353.766 608.181 353.715 605.231L352.068 603.794L349.56 604.266Z"/>
	<path fill="#FAFDFC" fill-opacity="0.97254902" transform="translate(0 -449.395)" d="M349.56 604.266L352.068 603.794L353.715 605.231C353.766 608.181 351.925 609.731 350.791 612.261L346.45 607.942L345.242 605.101L349.163 605.787L349.56 604.266Z"/>
	<defs>
		<linearGradient id="gradient_2" gradientUnits="userSpaceOnUse" x1="202.19492" y1="799.6972" x2="371.00607" y2="638.54456">
			<stop offset="0" stop-color="#F58511"/>
			<stop offset="1" stop-color="#F6AD11"/>
		</linearGradient>
	</defs>
	<path fill="url(#gradient_2)" transform="translate(0 -449.395)" d="M286.521 573.736C287.8 575.726 292.633 576.865 294.931 577.367C297.527 577.934 300.373 577.45 302.979 577.114L304.972 576.476L312.146 575.337C315.63 576.138 317.459 576.276 319.491 579.505C320.974 579.782 322.637 579.914 323.937 580.683L324.627 580.752C326.173 584.703 326.849 589.727 325.132 593.726L324.483 595.065C326.968 596.186 328.374 598.409 330.015 600.503L330.771 600.912C333.28 602.254 335.752 603.755 338.5 604.539C341.236 606.402 343.122 607.528 346.45 607.942L350.791 612.261L356.88 615.839L358.145 618.499L362.146 627.351C363.144 633.676 364.168 637.993 361.742 644.15C364.842 643.919 367.873 643.683 370.335 641.642L372.666 642.615L373.031 642.662L379.615 645.679L380.352 646.209L383.044 649.385L382.872 649.887C382.014 652.434 380.415 657.376 381.676 659.998C382.537 661.789 384.487 664.507 386.521 664.776C387.915 664.96 389.804 664.544 391.204 664.363C393.156 669.073 393.692 674.421 394.491 679.433C396.782 693.799 398.319 709.453 397.654 724.001L396.521 724.528L389.792 717.478L389.016 718.718L387.239 717.377C386.167 717.933 385.621 717.982 385.055 719.097C383.401 722.355 381.537 723.555 378.347 725.172L377.414 725.542L375.771 726.033C380.019 729.104 383.687 733.026 384.519 738.446C384.871 740.735 385.098 743.25 384.191 745.42C382.838 747.601 381.618 749.678 380.631 752.056L384.248 751.461L386.558 750.626C388.608 750.532 389.74 750.808 391.545 751.78C393.17 754.376 391.061 755.362 391.545 757.583C392.204 760.598 394.792 760.35 394.417 764.519C391.377 766.934 390.765 767.758 389.632 771.436L390.469 771.626L393.888 768.774L394.062 768.821C393.943 770.252 393.168 770.916 392.247 771.916L390.817 783.408C387.39 792.24 385.826 802.099 381.685 810.589C377.934 818.281 372.26 823.871 365.56 829.024L341.243 839.015C322.111 844.805 303.543 847.808 283.585 848.904C277.794 849.222 272.031 848.633 266.246 849.064C259.23 848.269 252.238 848.34 245.281 846.957C240.024 847.133 234.343 846.171 229.085 845.664C218.491 842.571 209.549 841.087 199.924 835.164C202.005 832.836 203.577 830.438 205.161 827.752C208.398 821.595 208.09 814.171 206.176 807.648C203.862 804.73 202.134 803.117 198.747 801.538C197.948 800.256 197.204 799.052 196.654 797.641L199.182 793.73C199.391 791.46 199.31 790.245 198.158 788.249C196.512 785.396 195.857 782.925 195.254 779.689L194.883 777.897C193.866 775.124 194.019 772.377 193.951 769.415L194.557 764.619C194.952 762.194 195.768 760.731 197.074 758.705L198.735 756.002L198.711 755.09C198.067 754.494 197.393 754.01 196.687 753.487C193.339 745.333 191.654 736.357 190.074 727.713C185.475 702.567 184.687 676.627 187.374 651.217C188.365 641.843 190.957 632.657 191.815 623.342L191.863 622.756L191.634 621.934C193.632 617.817 194.646 612.961 195.927 608.567C195.867 607.891 195.92 608.205 195.728 607.446C194.127 601.112 193.796 596.115 193.883 589.561C194.134 589.149 199.776 587.553 200.577 587.296C208.803 587.4 216.69 586.913 224.533 584.212L232.716 580.756C236.844 581.079 243.832 579.936 247.609 578.229L248.147 578.583L285.436 575.031L286.521 573.736ZM338.569 720.687C336.345 723.84 333.935 728.426 333.104 732.242L332.927 733.143L331.504 734.035C333.203 736.224 334.077 737.252 333.886 740.205C333.772 741.975 332.89 742.689 331.683 743.747C332.943 745.22 332.952 745.224 333.014 747.159C333.743 750.125 334.426 753.008 335.849 755.736L335.894 756.409C338.11 760.322 340.616 764.531 344.408 767.123C347.21 769.487 349.916 771.54 353.104 773.356C360.631 775.574 367.768 778.44 375.866 778.05C382.97 777.708 386.519 775.829 392.247 771.916C393.168 770.916 393.943 770.252 394.062 768.821L393.888 768.774L390.469 771.626L389.632 771.436C390.765 767.758 391.377 766.934 394.417 764.519C394.792 760.35 392.204 760.598 391.545 757.583C391.061 755.362 393.17 754.376 391.545 751.78C389.74 750.808 388.608 750.532 386.558 750.626L384.248 751.461L380.631 752.056C381.618 749.678 382.838 747.601 384.191 745.42C385.098 743.25 384.871 740.735 384.519 738.446C383.687 733.026 380.019 729.104 375.771 726.033L377.414 725.542L374.904 723.206C369.55 721.576 365.184 721.58 359.663 722.464C355.792 721.71 351.698 724.369 347.969 725.366L347.497 725.487C346.381 726.714 345.801 727.743 345.237 729.308L345.067 729.795C344.34 730.218 343.549 730.691 342.737 730.925C340.57 731.548 339.617 731.448 337.712 730.52C336.023 726.694 339.35 725.207 338.673 721.181L338.569 720.687ZM221.171 749.35C217.257 750.978 215.274 753.59 212.214 756.359L211.114 760.383L210.282 762.317L209.431 766.441C208.737 769.163 209.438 771.779 209.982 774.47L210.252 773.12C211.67 775.502 211.913 778.497 213.125 781.057C216.582 780.876 219.244 780.701 222.066 783.061C224.286 784.612 226.452 786.021 229.128 786.634C231.141 787.095 236.805 786.677 238.152 787.678C239.489 788.672 240.193 788.917 241.846 789.037C245.665 787.082 249.068 783.264 251.002 779.46C252.007 777.482 252.329 775.315 253.8 773.604L254.124 772.38C253.997 768.511 253.651 764.557 252.535 760.828C250.836 755.151 243.723 750.47 238.914 747.744L239.571 745.59C237.566 743.525 234.591 743.257 231.841 742.49C230.569 743.711 228.983 744.31 227.767 745.59C225.83 747.629 224.706 748.229 222.053 749.075L221.171 749.35ZM198.735 756.002L197.074 758.705C195.768 760.731 194.952 762.194 194.557 764.619L193.951 769.415C194.019 772.377 193.866 775.124 194.883 777.897L195.254 779.689C195.857 782.925 196.512 785.396 198.158 788.249C199.31 790.245 199.391 791.46 199.182 793.73L196.654 797.641C197.204 799.052 197.948 800.256 198.747 801.538C202.134 803.117 203.862 804.73 206.176 807.648C206.466 805.287 205.531 802.776 206.862 800.707C208.877 800.863 209.329 801.143 211.025 802.295C212.158 803.064 213.268 803.879 214.598 804.253C215.621 804.542 216.48 804.989 217.422 805.471C223.709 806.447 229.975 807.252 235.632 803.796C243.571 799.878 250.963 797.782 256.252 789.867C253.363 789.865 250.636 790.814 248.117 792.202L247.273 792.685C244.186 792.405 243.559 792.028 241.185 790.245L241.846 789.037C240.193 788.917 239.489 788.672 238.152 787.678C236.805 786.677 231.141 787.095 229.128 786.634C226.452 786.021 224.286 784.612 222.066 783.061C219.244 780.701 216.582 780.876 213.125 781.057C211.913 778.497 211.67 775.502 210.252 773.12L209.982 774.47C209.438 771.779 208.737 769.163 209.431 766.441L210.282 762.317C210.674 758.447 208.267 754.931 207.26 751.15L205.642 750.462C204.478 751.556 204.202 752.728 203.664 754.18C202.709 756.755 201.776 757.371 199.291 758.513L198.735 756.002ZM225.355 734.7C224.525 736.388 224.305 737.755 222.406 738.415C221.408 738.763 220.349 738.854 219.304 738.968C219.09 740.324 218.068 744.425 218.946 745.416C219.809 746.388 220.965 746.643 222.158 747.026L221.171 749.35L222.053 749.075C224.706 748.229 225.83 747.629 227.767 745.59C228.983 744.31 230.569 743.711 231.841 742.49C234.591 743.257 237.566 743.525 239.571 745.59L238.914 747.744C243.723 750.47 250.836 755.151 252.535 760.828C253.651 764.557 253.997 768.511 254.124 772.38L253.8 773.604C252.329 775.315 252.007 777.482 251.002 779.46C249.068 783.264 245.665 787.082 241.846 789.037L241.185 790.245C243.559 792.028 244.186 792.405 247.273 792.685L248.117 792.202C250.636 790.814 253.363 789.865 256.252 789.867C257.118 787.94 257.654 785.826 258.267 783.806L260.193 783.589C261.969 781.315 262.77 778.597 263.752 775.915C266.187 770.028 264.932 761.595 263.149 755.616C260.966 748.297 255.049 740.83 248.291 737.234C241.464 733.601 232.797 732.517 225.355 734.7ZM248.155 710.547C247.491 709 246.201 707.703 245.12 706.42C245.316 705.031 247.016 704.701 248.246 704.096C253.523 701.498 256.247 699.397 259.535 694.416C259.951 692.643 260.892 690.87 261.61 689.197L262.265 686.536C262.683 683.539 262.176 678.435 260.369 676.023C259.177 674.432 258.226 672.844 257.242 671.121C249.05 671.234 241.88 672.28 235.723 678.465C233.933 680.263 233.092 682.871 232.54 685.282L232.349 686.094C231.452 690.414 233.151 695.912 235.625 699.488C238.793 704.068 243.404 707.733 248.155 710.547ZM339.98 718.628L338.569 720.687L338.673 721.181C339.35 725.207 336.023 726.694 337.712 730.52C339.617 731.448 340.57 731.548 342.737 730.925C343.549 730.691 344.34 730.218 345.067 729.795L345.237 729.308C345.801 727.743 346.381 726.714 347.497 725.487L347.969 725.366C351.698 724.369 355.792 721.71 359.663 722.464C365.184 721.58 369.55 721.576 374.904 723.206L377.414 725.542L378.347 725.172C381.537 723.555 383.401 722.355 385.055 719.097C385.621 717.982 386.167 717.933 387.239 717.377L389.016 718.718L389.792 717.478C386.8 714.962 384.199 713.171 380.568 711.702L378.375 710.78C368.193 707.765 358.12 706.707 348.437 712.039C345.326 713.752 342.391 716.021 339.98 718.628ZM313.287 755.165C315.262 755.065 316.356 754.102 318.172 753.64C320.856 752.959 323.79 752.964 326.387 751.947C328.806 750.999 331.035 748.813 333.014 747.159C332.952 745.224 332.943 745.22 331.683 743.747C332.89 742.689 333.772 741.975 333.886 740.205C334.077 737.252 333.203 736.224 331.504 734.035L332.927 733.143L333.104 732.242C330.693 731.257 326.962 729.114 324.477 728.768C323.294 728.603 319.24 730.224 318.053 730.755C314.122 732.515 311.099 736.806 308.768 740.296L309.464 740.869C311.64 742.682 313.442 744.326 313.653 747.325C313.833 749.885 313.739 752.639 313.287 755.165ZM304.972 576.476L302.979 577.114L302.709 580.661C301.337 584.678 302.185 588.449 302.859 592.512L308.036 594.667C308.523 596.11 308.375 596.452 309.783 597.152C310.944 597.728 312.089 598.174 313.318 598.574C316.263 598.72 318.345 598.784 321.117 597.605L324.483 595.065L325.132 593.726C326.849 589.727 326.173 584.703 324.627 580.752L323.937 580.683C322.637 579.914 320.974 579.782 319.491 579.505C317.459 576.276 315.63 576.138 312.146 575.337L304.972 576.476ZM216.84 737.405C208.883 742.067 203.475 747.107 198.711 755.09L198.735 756.002L199.291 758.513C201.776 757.371 202.709 756.755 203.664 754.18C204.202 752.728 204.478 751.556 205.642 750.462L207.26 751.15C208.267 754.931 210.674 758.447 210.282 762.317L211.114 760.383L212.214 756.359C215.274 753.59 217.257 750.978 221.171 749.35L222.158 747.026C220.965 746.643 219.809 746.388 218.946 745.416C218.068 744.425 219.09 740.324 219.304 738.968C220.349 738.854 221.408 738.763 222.406 738.415C224.305 737.755 224.525 736.388 225.355 734.7L216.84 737.405ZM316.184 667.079C318.347 665.355 319.382 663.873 320.668 661.479C322.12 659.653 322.046 659.536 321.993 657.184C320.727 655.164 319.86 653.662 317.615 652.592C313.744 652.577 311.979 653.171 309.182 655.961C307.722 657.417 307.258 658.52 307.254 660.668C307.25 662.859 307.514 664.666 308.563 666.615C310.17 667.965 311.235 668.237 313.308 668.406C314.227 668.037 315.44 667.725 316.184 667.079ZM218.898 667.139C216.378 667.56 216.172 667.787 214.335 669.594L213.898 671.921L213.622 672.717C213.375 674.826 214.443 676.285 215.691 677.74C218.451 677.887 220.553 677.82 222.763 675.878C223.899 674.88 224.619 673.968 224.564 672.359C224.478 669.858 223.671 668.834 222.151 667.043L218.898 667.139Z"/>
	<path fill="#C3A795" transform="translate(0 -449.395)" d="M340.958 798.995C342.733 800.662 343.55 801.473 343.652 804.103C343.731 806.104 342.49 806.885 341.183 808.099C340.948 807 340.431 806.162 339.906 805.179C339.845 802.819 339.916 801.175 340.958 798.995Z"/>
	<path fill="#C4C696" transform="translate(0 -449.395)" d="M315.965 616.644C318.424 611.098 322.864 606.811 327.588 603.167L329.865 607.27C328.705 608.426 327.269 609.05 325.826 609.783C322.101 611.204 318.909 614.021 315.965 616.644Z"/>
	<path fill="#3A1512" transform="translate(0 -449.395)" d="M276.34 683.503C278.284 682.04 279.87 680.552 282.444 680.608C284.004 681.415 285.085 681.841 285.838 683.487C284.682 685.926 281.637 687.588 279.176 688.726C277.443 687.316 276.68 685.664 276.34 683.503Z"/>
	<path fill="#E87F0E" transform="translate(0 -449.395)" d="M321.96 765.612C322.776 770.958 323.824 777.679 320.859 782.565C319.369 785.019 317.45 785.898 314.744 786.506C313.918 786.038 313.693 785.795 313.12 785.077C315.268 782.571 318.235 779.904 319.668 776.936C321.218 773.725 321.449 769.111 321.96 765.612Z"/>
	<path fill="#C7B396" transform="translate(0 -449.395)" d="M261.75 821.163C264.247 824.326 266.688 826.776 269.918 829.19C270.457 831.251 270.924 834.286 272.18 836.003C273.626 837.979 275.549 839.133 276.793 841.374C274.859 840.525 273.001 839.4 271.322 838.118C265.624 833.768 262.8 828.108 261.75 821.163Z"/>
	<path fill="#C4C696" transform="translate(0 -449.395)" d="M284.153 798.278C288.098 797.627 291.552 798.102 295.428 799.003C301.069 800.548 304.294 802.793 307.258 807.883L307.553 808.403C303.047 808.293 300.705 805.744 297.152 803.15C294.177 802.663 291.358 801.573 288.512 800.601L284.153 798.278Z"/>
	<path fill="#3A1512" transform="translate(0 -449.395)" d="M301.81 676.667C302.515 676.521 302.591 676.445 303.191 676.475C309.016 676.77 314.065 683.233 317.615 687.271L316.179 687.024C313.545 685.611 310.997 684.556 308.076 683.905C304.613 683.132 301.366 683.26 298.597 680.974C299.326 678.593 299.873 678.3 301.81 676.667Z"/>
	<path fill="#B09592" transform="translate(0 -449.395)" d="M218.898 667.139L222.151 667.043C223.671 668.834 224.478 669.858 224.564 672.359C224.619 673.968 223.899 674.88 222.763 675.878C220.553 677.82 218.451 677.887 215.691 677.74C214.443 676.285 213.375 674.826 213.622 672.717L213.898 671.921L214.335 669.594C216.172 667.787 216.378 667.56 218.898 667.139ZM213.898 671.921C215.967 673.097 216.13 673.396 218.434 672.996C220.225 671.461 220.686 671.127 221.433 668.925L218.898 667.139C216.378 667.56 216.172 667.787 214.335 669.594L213.898 671.921Z"/>
	<path fill="#B09592" transform="translate(0 -449.395)" d="M341.183 808.099C340.349 808.384 338.772 810.248 338.071 810.923C336.881 810.685 337.451 810.739 336.198 810.74L335.2 810.74C333.822 810.647 333.588 810.02 332.688 809.056C331.852 805.665 331.529 802.924 331.764 799.436C333.405 797.802 334.766 797.399 336.995 796.896C338.6 797.193 339.433 797.561 340.637 798.685L340.958 798.995C339.916 801.175 339.845 802.819 339.906 805.179C340.431 806.162 340.948 807 341.183 808.099Z"/>
	<path fill="#C4C696" transform="translate(0 -449.395)" d="M370.335 641.642L372.666 642.615C365.996 648.534 359.409 652.77 350.194 652.631L346.091 652.556C346.993 652.404 347.928 652.161 348.653 651.571C350.631 649.958 353.596 647.012 353.884 644.412C356.351 644.438 358.758 644.492 361.211 644.164L361.742 644.15C364.842 643.919 367.873 643.683 370.335 641.642Z"/>
	<path fill="#C7B396" transform="translate(0 -449.395)" d="M353.884 644.412C356.351 644.438 358.758 644.492 361.211 644.164C359.234 647.935 356.962 649.479 353.145 651.252L350.194 652.631L346.091 652.556C346.993 652.404 347.928 652.161 348.653 651.571C350.631 649.958 353.596 647.012 353.884 644.412Z"/>
	<path fill="#C4C696" transform="translate(0 -449.395)" d="M278.873 689.153C280.366 694.49 281.83 701.084 278.928 706.181C277.622 708.477 275.775 710.47 273.788 712.186L275.901 707.048L270.587 698.923L271.08 696.701L271.957 694.96C273.629 692.638 276.128 690.029 278.873 689.153Z"/>
	<path fill="#C3A795" transform="translate(0 -449.395)" d="M271.957 694.96C274.732 698.728 276.689 701.528 276.013 706.352L275.901 707.048L270.587 698.923L271.08 696.701L271.957 694.96Z"/>
	<path fill="#C4C696" transform="translate(0 -449.395)" d="M313.287 755.165C315.262 755.065 316.356 754.102 318.172 753.64C320.856 752.959 323.79 752.964 326.387 751.947C328.806 750.999 331.035 748.813 333.014 747.159C333.743 750.125 334.426 753.008 335.849 755.736L335.894 756.409C334.739 757.865 333.625 759.268 332.027 760.261C329.015 762.133 323.977 762.927 320.486 762.171C320.196 760.664 319.985 758.72 319.089 757.448C317.791 755.606 315.36 755.626 313.287 755.165Z"/>
	<path fill="#A2990C" transform="translate(0 -449.395)" d="M286.521 573.736C287.8 575.726 292.633 576.865 294.931 577.367C297.527 577.934 300.373 577.45 302.979 577.114L302.709 580.661C301.337 584.678 302.185 588.449 302.859 592.512C299.988 591.395 297.05 590.178 294.515 588.402C290.26 585.421 286.364 580.206 285.436 575.031L286.521 573.736Z"/>
	<path fill="#B09592" transform="translate(0 -449.395)" d="M316.184 667.079C315.44 667.725 314.227 668.037 313.308 668.406C311.235 668.237 310.17 667.965 308.563 666.615C307.514 664.666 307.25 662.859 307.254 660.668C307.258 658.52 307.722 657.417 309.182 655.961C311.979 653.171 313.744 652.577 317.615 652.592C319.86 653.662 320.727 655.164 321.993 657.184C322.046 659.536 322.12 659.653 320.668 661.479C319.382 663.873 318.347 665.355 316.184 667.079ZM316.184 667.079C318.347 665.355 319.382 663.873 320.668 661.479C318.339 660.405 318.081 660.449 315.547 660.931C314.312 662.332 313.912 662.555 313.666 664.462L316.184 667.079Z"/>
	<path fill="#C4C696" transform="translate(0 -449.395)" d="M195.927 608.567C197.649 611.947 199.591 615.785 202.564 618.246C202.217 626.021 204.603 632.232 209.804 638.036L211.695 639.846C212.467 640.585 212.777 641.371 213.181 642.341C204.518 638.907 197.485 629.898 191.863 622.756L191.634 621.934C193.632 617.817 194.646 612.961 195.927 608.567Z"/>
	<path fill="#B09592" transform="translate(0 -449.395)" d="M261.75 821.163C261.831 818.083 261.614 814.839 263.354 812.169C268.311 804.561 275.411 800.181 284.153 798.278L288.512 800.601C280.602 802.829 276.402 804.593 272.247 811.916C269.338 817.044 269.476 823.429 269.918 829.19C266.688 826.776 264.247 824.326 261.75 821.163Z"/>
	<path fill="#C4C696" transform="translate(0 -449.395)" d="M257.242 671.121C266.014 672.259 270.374 676.837 275.79 683.464L276.34 683.503C276.68 685.664 277.443 687.316 279.176 688.726L278.873 689.153C276.128 690.029 273.629 692.638 271.957 694.96L271.08 696.701L270.343 694.934L270.54 694.152C267.398 692.206 265.159 690.387 261.61 689.197L262.265 686.536C262.683 683.539 262.176 678.435 260.369 676.023C259.177 674.432 258.226 672.844 257.242 671.121Z"/>
	<path fill="#7F958F" transform="translate(0 -449.395)" d="M275.79 683.464L276.34 683.503C276.68 685.664 277.443 687.316 279.176 688.726L278.873 689.153C276.128 690.029 273.629 692.638 271.957 694.96L271.08 696.701L270.343 694.934L270.54 694.152C272.584 690.839 274.152 687.005 275.79 683.464Z"/>
	<path fill="#FBF4E0" fill-opacity="0.73333335" transform="translate(0 -449.395)" d="M216.84 737.405L225.355 734.7C224.525 736.388 224.305 737.755 222.406 738.415C221.408 738.763 220.349 738.854 219.304 738.968C219.09 740.324 218.068 744.425 218.946 745.416C219.809 746.388 220.965 746.643 222.158 747.026L221.171 749.35C217.257 750.978 215.274 753.59 212.214 756.359L211.114 760.383L210.282 762.317C210.674 758.447 208.267 754.931 207.26 751.15L205.642 750.462C204.478 751.556 204.202 752.728 203.664 754.18C202.709 756.755 201.776 757.371 199.291 758.513L198.735 756.002L198.711 755.09C203.475 747.107 208.883 742.067 216.84 737.405ZM216.84 737.405L217.981 742C216.514 744.368 215.268 745.981 213.061 747.744C213.089 749.173 213.286 750.007 213.821 751.333C212.907 752.818 211.934 753.922 210.667 755.116C210.501 757.031 210.707 758.51 211.114 760.383L212.214 756.359C215.274 753.59 217.257 750.978 221.171 749.35L222.158 747.026C220.965 746.643 219.809 746.388 218.946 745.416C218.068 744.425 219.09 740.324 219.304 738.968C220.349 738.854 221.408 738.763 222.406 738.415C224.305 737.755 224.525 736.388 225.355 734.7L216.84 737.405Z"/>
	<path fill="#FBF4E0" fill-opacity="0.80784315" transform="translate(0 -449.395)" d="M216.84 737.405L225.355 734.7C224.525 736.388 224.305 737.755 222.406 738.415C221.408 738.763 220.349 738.854 219.304 738.968C219.09 740.324 218.068 744.425 218.946 745.416C219.809 746.388 220.965 746.643 222.158 747.026L221.171 749.35C217.257 750.978 215.274 753.59 212.214 756.359L211.114 760.383C210.707 758.51 210.501 757.031 210.667 755.116C211.934 753.922 212.907 752.818 213.821 751.333C213.286 750.007 213.089 749.173 213.061 747.744C215.268 745.981 216.514 744.368 217.981 742L216.84 737.405Z"/>
	<path fill="#B1CFC3" transform="translate(0 -449.395)" d="M304.972 576.476L312.146 575.337C315.63 576.138 317.459 576.276 319.491 579.505C320.974 579.782 322.637 579.914 323.937 580.683L324.627 580.752C326.173 584.703 326.849 589.727 325.132 593.726L324.483 595.065L321.117 597.605C318.345 598.784 316.263 598.72 313.318 598.574C312.089 598.174 310.944 597.728 309.783 597.152C308.375 596.452 308.523 596.11 308.036 594.667L302.859 592.512C302.185 588.449 301.337 584.678 302.709 580.661L302.979 577.114L304.972 576.476ZM319.491 579.505C318.159 581.659 316.995 583.526 316.418 586.035C316.725 591.154 316.814 593.165 320.48 596.939L321.117 597.605L324.483 595.065L325.132 593.726C326.849 589.727 326.173 584.703 324.627 580.752L323.937 580.683C322.637 579.914 320.974 579.782 319.491 579.505Z"/>
	<path fill="#7F958F" transform="translate(0 -449.395)" d="M302.709 580.661C305.949 578.163 305.975 577.914 310.098 578.308C310.497 579.29 310.723 579.469 310.542 580.547C309.677 585.703 311.108 588.466 312.11 593.385C310.705 594.035 309.586 594.522 308.036 594.667L302.859 592.512C302.185 588.449 301.337 584.678 302.709 580.661Z"/>
	<path fill="#FBF4E0" fill-opacity="0.98823529" transform="translate(0 -449.395)" d="M319.491 579.505C320.974 579.782 322.637 579.914 323.937 580.683L324.627 580.752C326.173 584.703 326.849 589.727 325.132 593.726L324.483 595.065L321.117 597.605L320.48 596.939C316.814 593.165 316.725 591.154 316.418 586.035C316.995 583.526 318.159 581.659 319.491 579.505ZM319.491 579.505C318.159 581.659 316.995 583.526 316.418 586.035C317.71 587.191 318.916 588.207 320.409 589.094L322.156 587.971C323.339 585.556 323.616 583.307 323.937 580.683C322.637 579.914 320.974 579.782 319.491 579.505Z"/>
	<path fill="#FAFDFC" fill-opacity="0.84705883" transform="translate(0 -449.395)" d="M319.491 579.505C320.974 579.782 322.637 579.914 323.937 580.683C323.616 583.307 323.339 585.556 322.156 587.971L320.409 589.094C318.916 588.207 317.71 587.191 316.418 586.035C316.995 583.526 318.159 581.659 319.491 579.505Z"/>
	<path fill="#B1CFC3" transform="translate(0 -449.395)" d="M313.287 755.165C313.739 752.639 313.833 749.885 313.653 747.325C313.442 744.326 311.64 742.682 309.464 740.869L308.768 740.296C311.099 736.806 314.122 732.515 318.053 730.755C319.24 730.224 323.294 728.603 324.477 728.768C326.962 729.114 330.693 731.257 333.104 732.242L332.927 733.143L331.504 734.035C333.203 736.224 334.077 737.252 333.886 740.205C333.772 741.975 332.89 742.689 331.683 743.747C332.943 745.22 332.952 745.224 333.014 747.159C331.035 748.813 328.806 750.999 326.387 751.947C323.79 752.964 320.856 752.959 318.172 753.64C316.356 754.102 315.262 755.065 313.287 755.165ZM321.595 733.028C319.513 734.104 319.539 734.03 318.82 736.256C319.318 738.821 320.48 740.814 322.639 742.328C324.913 743.923 327.866 744.66 330.593 744.042L331.683 743.747C332.89 742.689 333.772 741.975 333.886 740.205C334.077 737.252 333.203 736.224 331.504 734.035L328.074 732.714L327.873 732.63C325.628 732.162 323.728 732.08 321.595 733.028Z"/>
	<path fill="#FAFDFC" transform="translate(0 -449.395)" d="M321.595 733.028C323.728 732.08 325.628 732.162 327.873 732.63L328.074 732.714L331.504 734.035C333.203 736.224 334.077 737.252 333.886 740.205C333.772 741.975 332.89 742.689 331.683 743.747L330.593 744.042C327.866 744.66 324.913 743.923 322.639 742.328C320.48 740.814 319.318 738.821 318.82 736.256C319.539 734.03 319.513 734.104 321.595 733.028ZM321.595 733.028L321.778 733.426C323.169 736.663 321.852 738.982 324.691 741.332C326.665 741.018 326.559 741.066 327.788 739.487L327.846 733.715C327.825 733.053 327.778 733.343 328.074 732.714L327.873 732.63C325.628 732.162 323.728 732.08 321.595 733.028Z"/>
	<path fill="#FAFDFC" fill-opacity="0.90980393" transform="translate(0 -449.395)" d="M321.595 733.028C323.728 732.08 325.628 732.162 327.873 732.63L328.074 732.714C327.778 733.343 327.825 733.053 327.846 733.715L327.788 739.487C326.559 741.066 326.665 741.018 324.691 741.332C321.852 738.982 323.169 736.663 321.778 733.426L321.595 733.028Z"/>
	<path fill="#B09592" transform="translate(0 -449.395)" d="M261.61 689.197C265.159 690.387 267.398 692.206 270.54 694.152L270.343 694.934L271.08 696.701L270.587 698.923L275.901 707.048L273.788 712.186C270.988 714.116 268.42 715.715 265.004 716.25C258.463 717.274 253.214 714.217 248.155 710.547C247.491 709 246.201 707.703 245.12 706.42C245.316 705.031 247.016 704.701 248.246 704.096C253.523 701.498 256.247 699.397 259.535 694.416C259.951 692.643 260.892 690.87 261.61 689.197Z"/>
	<path fill="#C3A795" transform="translate(0 -449.395)" d="M261.61 689.197C265.159 690.387 267.398 692.206 270.54 694.152L270.343 694.934C269.683 695.998 269.125 697.105 268.088 697.848C265.597 696.179 262.373 695.38 259.535 694.416C259.951 692.643 260.892 690.87 261.61 689.197Z"/>
	<path fill="#FBF4E0" fill-opacity="0.81960785" transform="translate(0 -449.395)" d="M339.98 718.628C342.391 716.021 345.326 713.752 348.437 712.039C358.12 706.707 368.193 707.765 378.375 710.78L380.568 711.702C384.199 713.171 386.8 714.962 389.792 717.478L389.016 718.718L387.239 717.377C386.167 717.933 385.621 717.982 385.055 719.097C383.401 722.355 381.537 723.555 378.347 725.172L377.414 725.542L374.904 723.206C369.55 721.576 365.184 721.58 359.663 722.464C355.792 721.71 351.698 724.369 347.969 725.366L347.497 725.487C346.381 726.714 345.801 727.743 345.237 729.308L345.067 729.795C344.34 730.218 343.549 730.691 342.737 730.925C340.57 731.548 339.617 731.448 337.712 730.52C336.023 726.694 339.35 725.207 338.673 721.181L338.569 720.687L339.98 718.628ZM339.98 718.628L338.569 720.687L338.673 721.181C339.35 725.207 336.023 726.694 337.712 730.52C339.617 731.448 340.57 731.548 342.737 730.925C343.549 730.691 344.34 730.218 345.067 729.795L345.237 729.308C345.801 727.743 346.381 726.714 347.497 725.487L347.969 725.366C351.698 724.369 355.792 721.71 359.663 722.464C365.184 721.58 369.55 721.576 374.904 723.206L371.924 721.282C371.157 720.908 370.642 720.339 370.012 719.763C368.811 719.811 368.178 719.904 367.068 719.401C365.511 718.696 363.453 718.876 361.761 718.846C361.327 719.284 361.116 719.544 360.634 719.886C357.512 722.101 352.194 722.995 348.486 722.38C347 722.133 344.106 723.747 342.378 724.131C340.361 722.282 340.466 721.233 339.98 718.628ZM380.568 711.702L378.384 713.039L378.618 716.154C378.081 716.692 377.094 717.989 376.472 718.301C374.41 719.332 372.7 717.47 371.924 721.282L374.904 723.206L377.414 725.542L378.347 725.172C381.537 723.555 383.401 722.355 385.055 719.097C385.621 717.982 386.167 717.933 387.239 717.377L389.016 718.718L389.792 717.478C386.8 714.962 384.199 713.171 380.568 711.702ZM378.375 710.78C375.242 711.464 372.116 712.038 368.907 712.21C364.833 712.43 360.734 711.214 357.543 714.359C358.829 716.109 360.829 716.551 362.802 717.399L363.456 717.27C365.391 716.905 366.42 716.767 368.313 717.395C370.475 718.113 373.99 717.821 376.048 716.756C377.443 716.035 377.786 714.396 378.384 713.039L380.568 711.702L378.375 710.78Z"/>
	<path fill="#FBF4E0" fill-opacity="0.93725491" transform="translate(0 -449.395)" d="M378.375 710.78L380.568 711.702L378.384 713.039C377.786 714.396 377.443 716.035 376.048 716.756C373.99 717.821 370.475 718.113 368.313 717.395C366.42 716.767 365.391 716.905 363.456 717.27L362.802 717.399C360.829 716.551 358.829 716.109 357.543 714.359C360.734 711.214 364.833 712.43 368.907 712.21C372.116 712.038 375.242 711.464 378.375 710.78Z"/>
	<path fill="#FBF4E0" fill-opacity="0.80392158" transform="translate(0 -449.395)" d="M380.568 711.702C384.199 713.171 386.8 714.962 389.792 717.478L389.016 718.718L387.239 717.377C386.167 717.933 385.621 717.982 385.055 719.097C383.401 722.355 381.537 723.555 378.347 725.172L377.414 725.542L374.904 723.206L371.924 721.282C372.7 717.47 374.41 719.332 376.472 718.301C377.094 717.989 378.081 716.692 378.618 716.154L378.384 713.039L380.568 711.702Z"/>
	<path fill="#FBF4E0" fill-opacity="0.90588236" transform="translate(0 -449.395)" d="M339.98 718.628C340.466 721.233 340.361 722.282 342.378 724.131C344.106 723.747 347 722.133 348.486 722.38C352.194 722.995 357.512 722.101 360.634 719.886C361.116 719.544 361.327 719.284 361.761 718.846C363.453 718.876 365.511 718.696 367.068 719.401C368.178 719.904 368.811 719.811 370.012 719.763C370.642 720.339 371.157 720.908 371.924 721.282L374.904 723.206C369.55 721.576 365.184 721.58 359.663 722.464C355.792 721.71 351.698 724.369 347.969 725.366L347.497 725.487C346.381 726.714 345.801 727.743 345.237 729.308L345.067 729.795C344.34 730.218 343.549 730.691 342.737 730.925C340.57 731.548 339.617 731.448 337.712 730.52C336.023 726.694 339.35 725.207 338.673 721.181L338.569 720.687L339.98 718.628Z"/>
	<path fill="#B1CFC3" transform="translate(0 -449.395)" d="M248.155 710.547C243.404 707.733 238.793 704.068 235.625 699.488C233.151 695.912 231.452 690.414 232.349 686.094L232.54 685.282C233.092 682.871 233.933 680.263 235.723 678.465C241.88 672.28 249.05 671.234 257.242 671.121C258.226 672.844 259.177 674.432 260.369 676.023C262.176 678.435 262.683 683.539 262.265 686.536L261.61 689.197C260.892 690.87 259.951 692.643 259.535 694.416C256.247 699.397 253.523 701.498 248.246 704.096C247.016 704.701 245.316 705.031 245.12 706.42C246.201 707.703 247.491 709 248.155 710.547ZM238.534 680.256C236.314 682.149 235.016 684.295 234.751 687.21C234.49 690.083 234.967 692.325 236.021 694.974C237.965 696.85 238.112 696.844 240.813 697.102C243.092 694.454 244.056 691.899 243.778 688.369C243.578 685.833 242.843 683.746 241.531 681.589C240.412 680.856 239.911 680.269 238.534 680.256Z"/>
	<path fill="#FAFDFC" fill-opacity="0.98823529" transform="translate(0 -449.395)" d="M238.534 680.256C239.911 680.269 240.412 680.856 241.531 681.589C242.843 683.746 243.578 685.833 243.778 688.369C244.056 691.899 243.092 694.454 240.813 697.102C238.112 696.844 237.965 696.85 236.021 694.974C234.967 692.325 234.49 690.083 234.751 687.21C235.016 684.295 236.314 682.149 238.534 680.256Z"/>
	<path fill="#FBF4E0" fill-opacity="0.83529413" transform="translate(0 -449.395)" d="M225.355 734.7C232.797 732.517 241.464 733.601 248.291 737.234C255.049 740.83 260.966 748.297 263.149 755.616C264.932 761.595 266.187 770.028 263.752 775.915C262.77 778.597 261.969 781.315 260.193 783.589L258.267 783.806C257.654 785.826 257.118 787.94 256.252 789.867C253.363 789.865 250.636 790.814 248.117 792.202L247.273 792.685C244.186 792.405 243.559 792.028 241.185 790.245L241.846 789.037C245.665 787.082 249.068 783.264 251.002 779.46C252.007 777.482 252.329 775.315 253.8 773.604L254.124 772.38C253.997 768.511 253.651 764.557 252.535 760.828C250.836 755.151 243.723 750.47 238.914 747.744L239.571 745.59C237.566 743.525 234.591 743.257 231.841 742.49C230.569 743.711 228.983 744.31 227.767 745.59C225.83 747.629 224.706 748.229 222.053 749.075L221.171 749.35L222.158 747.026C220.965 746.643 219.809 746.388 218.946 745.416C218.068 744.425 219.09 740.324 219.304 738.968C220.349 738.854 221.408 738.763 222.406 738.415C224.305 737.755 224.525 736.388 225.355 734.7ZM254.124 772.38L253.8 773.604C252.329 775.315 252.007 777.482 251.002 779.46C249.068 783.264 245.665 787.082 241.846 789.037L241.185 790.245C243.559 792.028 244.186 792.405 247.273 792.685L248.117 792.202C250.636 790.814 253.363 789.865 256.252 789.867C257.118 787.94 257.654 785.826 258.267 783.806L260.193 783.589C261.969 781.315 262.77 778.597 263.752 775.915C261.871 771.641 264.191 764.97 260.911 761.561C259.849 761.928 258.517 762.334 257.602 763.019C254.632 765.24 254.771 769.029 254.124 772.38Z"/>
	<path fill="#F3430E" transform="translate(0 -449.395)" d="M206.176 807.648C206.466 805.287 205.531 802.776 206.862 800.707C208.877 800.863 209.329 801.143 211.025 802.295C212.158 803.064 213.268 803.879 214.598 804.253C215.621 804.542 216.48 804.989 217.422 805.471L245.281 846.957C240.024 847.133 234.343 846.171 229.085 845.664C218.491 842.571 209.549 841.087 199.924 835.164C202.005 832.836 203.577 830.438 205.161 827.752C208.398 821.595 208.09 814.171 206.176 807.648Z"/>
	<path fill="#B09592" transform="translate(0 -449.395)" d="M210.354 623.403C218.146 625.334 225.415 625.708 233.175 623.49C243.989 620.398 250.299 614.06 255.656 604.572L256.418 605.077C256.808 606.161 257.157 607.064 257.823 608.012L258.366 608.768C258.496 612.549 259.088 617.221 258.275 620.903C256.973 626.791 252.349 632.098 248.346 636.405C242.768 642.406 235.196 646 226.882 646.298L224.951 646.288C220.831 645.486 216.841 644.448 213.181 642.341C212.777 641.371 212.467 640.585 211.695 639.846L209.804 638.036C204.603 632.232 202.217 626.021 202.564 618.246L210.354 623.403Z"/>
	<path fill="#C3A795" transform="translate(0 -449.395)" d="M202.564 618.246L210.354 623.403C210.596 625.776 210.649 629.033 211.613 631.209C214.286 637.239 220.315 641.81 224.951 646.288C220.831 645.486 216.841 644.448 213.181 642.341C212.777 641.371 212.467 640.585 211.695 639.846L209.804 638.036C204.603 632.232 202.217 626.021 202.564 618.246Z"/>
	<path fill="#B1CFC3" transform="translate(0 -449.395)" d="M288.512 800.601C291.358 801.573 294.177 802.663 297.152 803.15C300.705 805.744 303.047 808.293 307.553 808.403C309.887 815.171 310.68 824.82 307.502 831.576C305.535 835.756 299.717 841.119 295.149 842.357C289.226 843.963 282.389 844.211 276.793 841.374C275.549 839.133 273.626 837.979 272.18 836.003C270.924 834.286 270.457 831.251 269.918 829.19C269.476 823.429 269.338 817.044 272.247 811.916C276.402 804.593 280.602 802.829 288.512 800.601Z"/>
	<path fill="#FAFDFC" transform="translate(0 -449.395)" d="M300.897 826L302.264 826.135C301.18 828.411 296.439 829.866 294.414 832.106L294.693 833.897L297.045 835.15L296.91 836.051L293.21 837.41C291.261 837.58 290.888 837.731 289.107 836.769L289.449 834.369C292.398 830.092 296.214 828.02 300.897 826Z"/>
	<path fill="#FBF4E0" fill-opacity="0.55686277" transform="translate(0 -449.395)" d="M198.735 756.002L199.291 758.513C201.776 757.371 202.709 756.755 203.664 754.18C204.202 752.728 204.478 751.556 205.642 750.462L207.26 751.15C208.267 754.931 210.674 758.447 210.282 762.317L209.431 766.441C208.737 769.163 209.438 771.779 209.982 774.47L210.252 773.12C211.67 775.502 211.913 778.497 213.125 781.057C216.582 780.876 219.244 780.701 222.066 783.061C224.286 784.612 226.452 786.021 229.128 786.634C231.141 787.095 236.805 786.677 238.152 787.678C239.489 788.672 240.193 788.917 241.846 789.037L241.185 790.245C243.559 792.028 244.186 792.405 247.273 792.685L248.117 792.202C250.636 790.814 253.363 789.865 256.252 789.867C250.963 797.782 243.571 799.878 235.632 803.796C229.975 807.252 223.709 806.447 217.422 805.471C216.48 804.989 215.621 804.542 214.598 804.253C213.268 803.879 212.158 803.064 211.025 802.295C209.329 801.143 208.877 800.863 206.862 800.707C205.531 802.776 206.466 805.287 206.176 807.648C203.862 804.73 202.134 803.117 198.747 801.538C197.948 800.256 197.204 799.052 196.654 797.641L199.182 793.73C199.391 791.46 199.31 790.245 198.158 788.249C196.512 785.396 195.857 782.925 195.254 779.689L194.883 777.897C193.866 775.124 194.019 772.377 193.951 769.415L194.557 764.619C194.952 762.194 195.768 760.731 197.074 758.705L198.735 756.002ZM213.125 781.057L211.872 780.862L208.329 784.359C208.867 786.727 210.697 788.788 211.785 790.954L213.821 791.825L211.75 792.615L212.102 794.524L214.591 796.18C217.286 796.424 218.537 796.265 220.708 798L221.426 800.154L218.453 804.112C224.338 805.182 229.79 805.087 235.632 803.796C243.571 799.878 250.963 797.782 256.252 789.867C253.363 789.865 250.636 790.814 248.117 792.202L247.273 792.685C244.186 792.405 243.559 792.028 241.185 790.245L241.846 789.037C240.193 788.917 239.489 788.672 238.152 787.678C236.805 786.677 231.141 787.095 229.128 786.634C226.452 786.021 224.286 784.612 222.066 783.061C219.244 780.701 216.582 780.876 213.125 781.057ZM209.618 762.344C208.806 764.514 208.313 766.048 206.295 767.38C203.919 768.948 202.163 771.386 201.56 774.2C201.154 776.097 200.9 777.923 201.625 779.76L202.771 781.876C203.873 781.974 204.825 782.186 205.884 781.808L208.872 779.629C210.333 779.719 210.679 780.068 211.872 780.862L213.125 781.057C211.913 778.497 211.67 775.502 210.252 773.12L209.982 774.47C209.438 771.779 208.737 769.163 209.431 766.441L210.282 762.317L209.618 762.344ZM198.735 756.002L197.074 758.705C195.594 765.471 195.257 771.572 196.406 778.409C198.773 775.334 197.721 766.112 197.747 761.92L199.541 760.406C200.343 760.631 201.215 760.878 202.053 760.871C203.907 760.854 205.144 759.701 206.307 758.408L206.681 757.976L208.233 757.938L209.645 759.59L209.618 762.344L210.282 762.317C210.674 758.447 208.267 754.931 207.26 751.15L205.642 750.462C204.478 751.556 204.202 752.728 203.664 754.18C202.709 756.755 201.776 757.371 199.291 758.513L198.735 756.002Z"/>
	<path fill="#FBF4E0" fill-opacity="0.63529414" transform="translate(0 -449.395)" d="M198.735 756.002L199.291 758.513C201.776 757.371 202.709 756.755 203.664 754.18C204.202 752.728 204.478 751.556 205.642 750.462L207.26 751.15C208.267 754.931 210.674 758.447 210.282 762.317L209.618 762.344L209.645 759.59L208.233 757.938L206.681 757.976L206.307 758.408C205.144 759.701 203.907 760.854 202.053 760.871C201.215 760.878 200.343 760.631 199.541 760.406L197.747 761.92C197.721 766.112 198.773 775.334 196.406 778.409C195.257 771.572 195.594 765.471 197.074 758.705L198.735 756.002Z"/>
	<path fill="#FBF4E0" fill-opacity="0.75294119" transform="translate(0 -449.395)" d="M209.618 762.344L210.282 762.317L209.431 766.441C208.737 769.163 209.438 771.779 209.982 774.47L210.252 773.12C211.67 775.502 211.913 778.497 213.125 781.057L211.872 780.862C210.679 780.068 210.333 779.719 208.872 779.629L205.884 781.808C204.825 782.186 203.873 781.974 202.771 781.876L201.625 779.76C200.9 777.923 201.154 776.097 201.56 774.2C202.163 771.386 203.919 768.948 206.295 767.38C208.313 766.048 208.806 764.514 209.618 762.344ZM201.625 779.76L202.771 781.876C203.873 781.974 204.825 782.186 205.884 781.808C206.03 779.947 206.547 777.118 205.612 775.449C204.964 774.293 205.166 774.171 205.283 772.872C204.346 773.898 203.617 775.014 202.764 776.103C201.845 777.275 201.813 778.318 201.625 779.76Z"/>
	<path fill="#FBF4E0" fill-opacity="0.78431374" transform="translate(0 -449.395)" d="M201.625 779.76C201.813 778.318 201.845 777.275 202.764 776.103C203.617 775.014 204.346 773.898 205.283 772.872C205.166 774.171 204.964 774.293 205.612 775.449C206.547 777.118 206.03 779.947 205.884 781.808C204.825 782.186 203.873 781.974 202.771 781.876L201.625 779.76Z"/>
	<path fill="#D74208" transform="translate(0 -449.395)" d="M193.951 769.415L194.557 764.619C194.952 762.194 195.768 760.731 197.074 758.705C195.594 765.471 195.257 771.572 196.406 778.409C198.479 786.095 202.759 795.537 209.932 799.757L210.674 800.154C213.298 801.701 215.611 802.949 218.453 804.112C224.338 805.182 229.79 805.087 235.632 803.796C229.975 807.252 223.709 806.447 217.422 805.471C216.48 804.989 215.621 804.542 214.598 804.253C213.268 803.879 212.158 803.064 211.025 802.295C209.329 801.143 208.877 800.863 206.862 800.707C205.531 802.776 206.466 805.287 206.176 807.648C203.862 804.73 202.134 803.117 198.747 801.538C197.948 800.256 197.204 799.052 196.654 797.641L199.182 793.73C199.391 791.46 199.31 790.245 198.158 788.249C196.512 785.396 195.857 782.925 195.254 779.689L194.883 777.897C193.866 775.124 194.019 772.377 193.951 769.415Z"/>
	<path fill="#FBF4E0" fill-opacity="0.74901962" transform="translate(0 -449.395)" d="M213.125 781.057C216.582 780.876 219.244 780.701 222.066 783.061C224.286 784.612 226.452 786.021 229.128 786.634C231.141 787.095 236.805 786.677 238.152 787.678C239.489 788.672 240.193 788.917 241.846 789.037L241.185 790.245C243.559 792.028 244.186 792.405 247.273 792.685L248.117 792.202C250.636 790.814 253.363 789.865 256.252 789.867C250.963 797.782 243.571 799.878 235.632 803.796C229.79 805.087 224.338 805.182 218.453 804.112L221.426 800.154L220.708 798C218.537 796.265 217.286 796.424 214.591 796.18L212.102 794.524L211.75 792.615L213.821 791.825L211.785 790.954C210.697 788.788 208.867 786.727 208.329 784.359L211.872 780.862L213.125 781.057ZM213.125 781.057L211.872 780.862L208.329 784.359C208.867 786.727 210.697 788.788 211.785 790.954L213.821 791.825C215.618 791.94 217.23 791.621 218.993 791.294C220.41 788.374 219.147 788.652 219.188 785.683L222.066 783.061C219.244 780.701 216.582 780.876 213.125 781.057ZM218.993 791.294C217.23 791.621 215.618 791.94 213.821 791.825L211.75 792.615L212.102 794.524L214.591 796.18C218.352 796.159 220.85 795.184 224.41 794.444C229.054 793.478 233.217 794.404 237.04 791.053C231.583 791.731 227.216 791.545 222.145 789.273L221.433 788.95L219.616 790.763L218.993 791.294Z"/>
	<path fill="#FBF4E0" fill-opacity="0.94117647" transform="translate(0 -449.395)" d="M218.993 791.294L219.616 790.763L221.433 788.95L222.145 789.273C227.216 791.545 231.583 791.731 237.04 791.053C233.217 794.404 229.054 793.478 224.41 794.444C220.85 795.184 218.352 796.159 214.591 796.18L212.102 794.524L211.75 792.615L213.821 791.825C215.618 791.94 217.23 791.621 218.993 791.294Z"/>
	<path fill="#55301E" transform="translate(0 -449.395)" d="M222.066 783.061C224.286 784.612 226.452 786.021 229.128 786.634C231.141 787.095 236.805 786.677 238.152 787.678C239.489 788.672 240.193 788.917 241.846 789.037L241.185 790.245C239.485 790.162 238.587 790.33 237.04 791.053C231.583 791.731 227.216 791.545 222.145 789.273L221.433 788.95L219.616 790.763L218.993 791.294C220.41 788.374 219.147 788.652 219.188 785.683L222.066 783.061Z"/>
	<path fill="#391A17" transform="translate(0 -449.395)" d="M221.171 749.35L222.053 749.075C224.706 748.229 225.83 747.629 227.767 745.59C228.983 744.31 230.569 743.711 231.841 742.49C234.591 743.257 237.566 743.525 239.571 745.59L238.914 747.744C243.723 750.47 250.836 755.151 252.535 760.828C253.651 764.557 253.997 768.511 254.124 772.38L253.8 773.604C252.329 775.315 252.007 777.482 251.002 779.46C249.068 783.264 245.665 787.082 241.846 789.037C240.193 788.917 239.489 788.672 238.152 787.678C236.805 786.677 231.141 787.095 229.128 786.634C226.452 786.021 224.286 784.612 222.066 783.061C219.244 780.701 216.582 780.876 213.125 781.057C211.913 778.497 211.67 775.502 210.252 773.12L209.982 774.47C209.438 771.779 208.737 769.163 209.431 766.441L210.282 762.317L211.114 760.383L212.214 756.359C215.274 753.59 217.257 750.978 221.171 749.35ZM221.967 769.201C225.768 772.647 229.62 775.006 234.07 777.483C236.776 774.251 239.025 771.049 241.123 767.392C243.257 769.032 246.849 772.233 249.586 771.436C250.819 767.32 249.175 763.283 247.262 759.688C245.397 756.184 242.863 752.871 238.894 751.611C233.592 749.928 226.436 750.235 221.587 753.004C217.164 755.531 214.659 759.53 213.393 764.377C212.567 767.537 211.69 771.613 213.408 774.598C213.978 775.588 213.636 775.311 214.628 775.596L221.967 769.201ZM221.171 749.35C217.257 750.978 215.274 753.59 212.214 756.359L211.114 760.383L210.282 762.317L209.431 766.441C208.737 769.163 209.438 771.779 209.982 774.47L210.252 773.12C210.499 766.545 211.701 759.206 216.715 754.394C221.082 750.202 227.106 748.165 233.109 748.478C238.365 748.752 243.831 751.505 247.319 755.413C249.954 758.365 251.618 762.827 252.405 766.673C252.842 768.812 252.367 772.089 253.8 773.604L254.124 772.38C253.997 768.511 253.651 764.557 252.535 760.828C250.836 755.151 243.723 750.47 238.914 747.744L239.571 745.59C237.566 743.525 234.591 743.257 231.841 742.49C230.569 743.711 228.983 744.31 227.767 745.59C225.83 747.629 224.706 748.229 222.053 749.075L221.171 749.35Z"/>
	<path fill="#FBF4E0" fill-opacity="0.97647059" transform="translate(0 -449.395)" d="M221.171 749.35L222.053 749.075C224.706 748.229 225.83 747.629 227.767 745.59C228.983 744.31 230.569 743.711 231.841 742.49C234.591 743.257 237.566 743.525 239.571 745.59L238.914 747.744C243.723 750.47 250.836 755.151 252.535 760.828C253.651 764.557 253.997 768.511 254.124 772.38L253.8 773.604C252.367 772.089 252.842 768.812 252.405 766.673C251.618 762.827 249.954 758.365 247.319 755.413C243.831 751.505 238.365 748.752 233.109 748.478C227.106 748.165 221.082 750.202 216.715 754.394C211.701 759.206 210.499 766.545 210.252 773.12L209.982 774.47C209.438 771.779 208.737 769.163 209.431 766.441L210.282 762.317L211.114 760.383L212.214 756.359C215.274 753.59 217.257 750.978 221.171 749.35Z"/>
	<path fill="#955322" transform="translate(0 -449.395)" d="M221.967 769.201L214.628 775.596C213.636 775.311 213.978 775.588 213.408 774.598C211.69 771.613 212.567 767.537 213.393 764.377C214.659 759.53 217.164 755.531 221.587 753.004C226.436 750.235 233.592 749.928 238.894 751.611C242.863 752.871 245.397 756.184 247.262 759.688C249.175 763.283 250.819 767.32 249.586 771.436C246.849 772.233 243.257 769.032 241.123 767.392C239.025 771.049 236.776 774.251 234.07 777.483C229.62 775.006 225.768 772.647 221.967 769.201ZM221.967 769.201C225.768 772.647 229.62 775.006 234.07 777.483C236.776 774.251 239.025 771.049 241.123 767.392C241.815 764.896 242.383 762.751 241.034 760.311C240.462 759.275 239.466 758.296 238.66 757.451C237.372 757.287 236.157 756.785 235.058 757.558C233.502 758.654 232.439 760.943 231.482 762.56C230.689 762.107 230.213 761.665 229.653 760.969C228.313 759.308 227.493 758.047 225.381 757.344C223.033 757.851 221.57 759.96 219.998 761.662C219.529 763.297 219.345 764.821 220.127 766.41L221.967 769.201Z"/>
	<path fill="#FBF4E0" fill-opacity="0.61176473" transform="translate(0 -449.395)" d="M221.967 769.201L220.127 766.41C219.345 764.821 219.529 763.297 219.998 761.662C221.57 759.96 223.033 757.851 225.381 757.344C227.493 758.047 228.313 759.308 229.653 760.969C230.213 761.665 230.689 762.107 231.482 762.56C232.439 760.943 233.502 758.654 235.058 757.558C236.157 756.785 237.372 757.287 238.66 757.451C239.466 758.296 240.462 759.275 241.034 760.311C242.383 762.751 241.815 764.896 241.123 767.392C239.025 771.049 236.776 774.251 234.07 777.483C229.62 775.006 225.768 772.647 221.967 769.201Z"/>
	<path fill="#B09592" transform="translate(0 -449.395)" d="M330.015 600.503L330.771 600.912C333.28 602.254 335.752 603.755 338.5 604.539C341.236 606.402 343.122 607.528 346.45 607.942L350.791 612.261L356.88 615.839L358.145 618.499L362.146 627.351C363.144 633.676 364.168 637.993 361.742 644.15L361.211 644.164C358.758 644.492 356.351 644.438 353.884 644.412C353.596 647.012 350.631 649.958 348.653 651.571C347.928 652.161 346.993 652.404 346.091 652.556C336.757 652.362 327.3 650.941 319.05 646.189C315.518 644.154 312.607 640.289 311.641 636.329C309.86 629.018 312.331 622.803 315.965 616.644C318.909 614.021 322.101 611.204 325.826 609.783C327.269 609.05 328.705 608.426 329.865 607.27L327.588 603.167L330.015 600.503Z"/>
	<path fill="#A9C593" transform="translate(0 -449.395)" d="M330.015 600.503L330.771 600.912C333.28 602.254 335.752 603.755 338.5 604.539L336.327 607.509C334.777 607.657 332.474 607.545 331.26 608.462L332.094 609.538C330.36 610.333 327.72 609.869 325.826 609.783C327.269 609.05 328.705 608.426 329.865 607.27L327.588 603.167L330.015 600.503Z"/>
	<path fill="#A4D5DB" transform="translate(0 -449.395)" d="M338.5 604.539C341.236 606.402 343.122 607.528 346.45 607.942L350.791 612.261L356.88 615.839L358.145 618.499L362.146 627.351C363.144 633.676 364.168 637.993 361.742 644.15L361.211 644.164C358.758 644.492 356.351 644.438 353.884 644.412L347.949 643.202C342.06 641.538 337.189 638.329 334.21 632.881C330.782 626.612 332.03 619.76 334.013 613.292L336.327 607.509L338.5 604.539Z"/>
	<path fill="#B1CFC3" transform="translate(0 -449.395)" d="M338.5 604.539C341.236 606.402 343.122 607.528 346.45 607.942L350.791 612.261L356.88 615.839L358.145 618.499L355.869 620.667C353.37 620.241 350.91 620.797 348.479 620.357C343.721 619.497 338.12 615.816 334.013 613.292L336.327 607.509L338.5 604.539Z"/>
	<defs>
		<linearGradient id="gradient_3" gradientUnits="userSpaceOnUse" x1="231.66071" y1="622.30981" x2="220.44127" y2="582.52631">
			<stop offset="0" stop-color="#ABBBC0"/>
			<stop offset="1" stop-color="#B9DCC6"/>
		</linearGradient>
	</defs>
	<path fill="url(#gradient_3)" transform="translate(0 -449.395)" d="M247.609 578.229L248.147 578.583C254.774 588.695 257.32 596.717 258.366 608.768L257.823 608.012C257.157 607.064 256.808 606.161 256.418 605.077L255.656 604.572C250.299 614.06 243.989 620.398 233.175 623.49C225.415 625.708 218.146 625.334 210.354 623.403L202.564 618.246C199.591 615.785 197.649 611.947 195.927 608.567C195.867 607.891 195.92 608.205 195.728 607.446C194.127 601.112 193.796 596.115 193.883 589.561C194.134 589.149 199.776 587.553 200.577 587.296C208.803 587.4 216.69 586.913 224.533 584.212L232.716 580.756C236.844 581.079 243.832 579.936 247.609 578.229Z"/>
	<path fill="#391A17" transform="translate(0 -449.395)" d="M338.569 720.687L338.673 721.181C339.35 725.207 336.023 726.694 337.712 730.52C339.617 731.448 340.57 731.548 342.737 730.925C343.549 730.691 344.34 730.218 345.067 729.795L345.237 729.308C345.801 727.743 346.381 726.714 347.497 725.487L347.969 725.366C351.698 724.369 355.792 721.71 359.663 722.464C365.184 721.58 369.55 721.576 374.904 723.206L377.414 725.542L375.771 726.033C380.019 729.104 383.687 733.026 384.519 738.446C384.871 740.735 385.098 743.25 384.191 745.42C382.838 747.601 381.618 749.678 380.631 752.056L384.248 751.461L386.558 750.626C388.608 750.532 389.74 750.808 391.545 751.78C393.17 754.376 391.061 755.362 391.545 757.583C392.204 760.598 394.792 760.35 394.417 764.519C391.377 766.934 390.765 767.758 389.632 771.436L390.469 771.626L393.888 768.774L394.062 768.821C393.943 770.252 393.168 770.916 392.247 771.916C386.519 775.829 382.97 777.708 375.866 778.05C367.768 778.44 360.631 775.574 353.104 773.356C349.916 771.54 347.21 769.487 344.408 767.123C340.616 764.531 338.11 760.322 335.894 756.409L335.849 755.736C334.426 753.008 333.743 750.125 333.014 747.159C332.952 745.224 332.943 745.22 331.683 743.747C332.89 742.689 333.772 741.975 333.886 740.205C334.077 737.252 333.203 736.224 331.504 734.035L332.927 733.143L333.104 732.242C333.935 728.426 336.345 723.84 338.569 720.687ZM386.558 750.626L384.248 751.461L380.631 752.056L377.392 754.986C371.87 759.834 368.967 761.407 361.578 761.477C360.431 761.488 359.581 761.444 359.216 762.74C359.029 763.406 359.134 763.153 358.762 763.721C357.228 763.093 355.711 762.466 354.314 761.563L353.762 761.196C351.216 759.522 349.638 757.113 347.877 754.683C347.069 754.927 346.307 755.194 345.471 755.314C343.422 755.606 342.075 757.269 340.657 758.653C340.401 760.805 341.218 761.535 342.283 763.297L344.062 764.29L344.408 767.123C347.21 769.487 349.916 771.54 353.104 773.356C360.631 775.574 367.768 778.44 375.866 778.05C382.97 777.708 386.519 775.829 392.247 771.916C393.168 770.916 393.943 770.252 394.062 768.821L393.888 768.774L390.469 771.626L389.632 771.436C390.765 767.758 391.377 766.934 394.417 764.519C394.792 760.35 392.204 760.598 391.545 757.583C391.061 755.362 393.17 754.376 391.545 751.78C389.74 750.808 388.608 750.532 386.558 750.626ZM357.531 741.698C360.753 744.996 364.478 747.172 368.392 749.527C370.604 746.962 372.764 744.67 373.128 741.277C377.946 740.867 379.774 744.115 384.191 745.42C385.098 743.25 384.871 740.735 384.519 738.446C383.687 733.026 380.019 729.104 375.771 726.033C370.693 723.809 365.114 722.736 359.721 724.72C354.754 726.547 350.49 730.331 348.481 735.283C347.072 738.756 346.644 743.872 348.037 747.388L349.297 747.827C351.962 745.898 354.67 743.203 357.531 741.698Z"/>
	<path fill="#FBF4E0" transform="translate(0 -449.395)" d="M338.569 720.687L338.673 721.181C339.35 725.207 336.023 726.694 337.712 730.52C339.617 731.448 340.57 731.548 342.737 730.925C343.549 730.691 344.34 730.218 345.067 729.795L345.237 729.308C345.801 727.743 346.381 726.714 347.497 725.487L347.969 725.366C351.698 724.369 355.792 721.71 359.663 722.464C353.74 725.242 348.661 728.625 346.34 735.06C344.011 741.516 344.287 747.298 347.267 753.456L347.877 754.683C347.069 754.927 346.307 755.194 345.471 755.314C343.422 755.606 342.075 757.269 340.657 758.653C340.401 760.805 341.218 761.535 342.283 763.297L344.062 764.29L344.408 767.123C340.616 764.531 338.11 760.322 335.894 756.409L335.849 755.736C334.426 753.008 333.743 750.125 333.014 747.159C332.952 745.224 332.943 745.22 331.683 743.747C332.89 742.689 333.772 741.975 333.886 740.205C334.077 737.252 333.203 736.224 331.504 734.035L332.927 733.143L333.104 732.242C333.935 728.426 336.345 723.84 338.569 720.687Z"/>
	<path fill="#D6F3F5" transform="translate(0 -449.395)" d="M332.927 733.143C336.528 736.86 337.766 740.263 339.192 745.185C338.285 748.566 336.426 752.411 335.849 755.736C334.426 753.008 333.743 750.125 333.014 747.159C332.952 745.224 332.943 745.22 331.683 743.747C332.89 742.689 333.772 741.975 333.886 740.205C334.077 737.252 333.203 736.224 331.504 734.035L332.927 733.143Z"/>
	<path fill="#955322" transform="translate(0 -449.395)" d="M357.531 741.698C354.67 743.203 351.962 745.898 349.297 747.827L348.037 747.388C346.644 743.872 347.072 738.756 348.481 735.283C350.49 730.331 354.754 726.547 359.721 724.72C365.114 722.736 370.693 723.809 375.771 726.033C380.019 729.104 383.687 733.026 384.519 738.446C384.871 740.735 385.098 743.25 384.191 745.42C379.774 744.115 377.946 740.867 373.128 741.277C372.764 744.67 370.604 746.962 368.392 749.527C364.478 747.172 360.753 744.996 357.531 741.698ZM357.531 741.698C360.753 744.996 364.478 747.172 368.392 749.527C370.604 746.962 372.764 744.67 373.128 741.277C372.541 739.993 372.033 738.875 371.087 737.811C370.253 736.875 370.285 736.324 370.012 735.118C369.758 733.995 369.486 733.287 368.497 732.667L364.988 738.521C364.213 738.11 364.201 738.274 363.852 737.409C362.745 734.666 361.695 733.273 358.91 732.111L358.502 731.949L356.363 733.385C355.925 735.728 356.047 739.102 357.21 741.233L357.531 741.698Z"/>
	<path fill="#FBF4E0" fill-opacity="0.43921569" transform="translate(0 -449.395)" d="M386.558 750.626C388.608 750.532 389.74 750.808 391.545 751.78C393.17 754.376 391.061 755.362 391.545 757.583C392.204 760.598 394.792 760.35 394.417 764.519C391.377 766.934 390.765 767.758 389.632 771.436L390.469 771.626L393.888 768.774L394.062 768.821C393.943 770.252 393.168 770.916 392.247 771.916C386.519 775.829 382.97 777.708 375.866 778.05C367.768 778.44 360.631 775.574 353.104 773.356C349.916 771.54 347.21 769.487 344.408 767.123L344.062 764.29L342.283 763.297C341.218 761.535 340.401 760.805 340.657 758.653C342.075 757.269 343.422 755.606 345.471 755.314C346.307 755.194 347.069 754.927 347.877 754.683C349.638 757.113 351.216 759.522 353.762 761.196L354.314 761.563C355.711 762.466 357.228 763.093 358.762 763.721C359.134 763.153 359.029 763.406 359.216 762.74C359.581 761.444 360.431 761.488 361.578 761.477C368.967 761.407 371.87 759.834 377.392 754.986L380.631 752.056L384.248 751.461L386.558 750.626ZM347.877 754.683C347.069 754.927 346.307 755.194 345.471 755.314C343.422 755.606 342.075 757.269 340.657 758.653C340.401 760.805 341.218 761.535 342.283 763.297L344.062 764.29L344.408 767.123C347.21 769.487 349.916 771.54 353.104 773.356C355.08 772.961 357.582 772.207 359.581 772.34C361.277 772.453 362.982 774.464 364.27 774.496C365.485 774.526 367.342 773.95 368.577 773.73C369 772.495 368.625 772.257 368.18 771.077C366.338 770.157 365.112 769.178 363.687 767.685L363.234 767.2L359.567 764.453L358.762 763.721C357.228 763.093 355.711 762.466 354.314 761.563L353.762 761.196C351.216 759.522 349.638 757.113 347.877 754.683ZM358.762 763.721L359.567 764.453L363.234 767.2C365.594 767.305 369.527 766.539 371.588 767.128C373.001 767.532 375.4 769.648 376.726 770.525C381.883 769.681 384.923 768.197 389.583 765.987C389.857 764.302 389.503 763.584 388.708 762.103L386.896 761.878C384.716 761.524 383.844 761.169 382.568 759.402L377.538 756.585L377.392 754.986C371.87 759.834 368.967 761.407 361.578 761.477C360.431 761.488 359.581 761.444 359.216 762.74C359.029 763.406 359.134 763.153 358.762 763.721ZM384.248 751.461L380.631 752.056L377.392 754.986L377.538 756.585L382.568 759.402C385.097 757.263 384.773 755.739 385.454 752.784L385.621 752.081L384.248 751.461Z"/>
	<path fill="#FBF4E0" fill-opacity="0.7764706" transform="translate(0 -449.395)" d="M358.762 763.721C359.134 763.153 359.029 763.406 359.216 762.74C359.581 761.444 360.431 761.488 361.578 761.477C368.967 761.407 371.87 759.834 377.392 754.986L377.538 756.585L382.568 759.402C383.844 761.169 384.716 761.524 386.896 761.878L388.708 762.103C389.503 763.584 389.857 764.302 389.583 765.987C384.923 768.197 381.883 769.681 376.726 770.525C375.4 769.648 373.001 767.532 371.588 767.128C369.527 766.539 365.594 767.305 363.234 767.2L359.567 764.453L358.762 763.721Z"/>
	<path fill="#55301E" transform="translate(0 -449.395)" d="M358.762 763.721C359.134 763.153 359.029 763.406 359.216 762.74C359.581 761.444 360.431 761.488 361.578 761.477C368.967 761.407 371.87 759.834 377.392 754.986L377.538 756.585L379.091 760.667C375.726 763.761 370.104 765.362 365.585 765.168L359.567 764.453L358.762 763.721Z"/>
	<path fill="#FBF4E0" fill-opacity="0.38039216" transform="translate(0 -449.395)" d="M347.877 754.683C349.638 757.113 351.216 759.522 353.762 761.196L354.314 761.563C355.711 762.466 357.228 763.093 358.762 763.721L359.567 764.453L363.234 767.2L363.687 767.685C365.112 769.178 366.338 770.157 368.18 771.077C368.625 772.257 369 772.495 368.577 773.73C367.342 773.95 365.485 774.526 364.27 774.496C362.982 774.464 361.277 772.453 359.581 772.34C357.582 772.207 355.08 772.961 353.104 773.356C349.916 771.54 347.21 769.487 344.408 767.123L344.062 764.29L342.283 763.297C341.218 761.535 340.401 760.805 340.657 758.653C342.075 757.269 343.422 755.606 345.471 755.314C346.307 755.194 347.069 754.927 347.877 754.683Z"/>
</svg>
